SplineFontDB: 3.0
FontName: Coda-Heavy
FullName: Coda Heavy
FamilyName: Koda Heavy Heavy
Weight: Black
Copyright: Copyright (c) 2009-12 by vernon adams. All rights reserved.
Version: 1.000;PS 001.001;hotconv 1.0.56
ItalicAngle: 0
UnderlinePosition: 0
UnderlineWidth: 0
Ascent: 1638
Descent: 410
UFOAscent: 1710
UFODescent: -408
LayerCount: 2
Layer: 0 0 "Back"  1
Layer: 1 0 "Fore"  0
FSType: 512
OS2Version: 0
OS2_WeightWidthSlopeOnly: 0
OS2_UseTypoMetrics: 0
CreationTime: 1349907388
ModificationTime: 1349923081
PfmFamily: 0
TTFWeight: 900
TTFWidth: 1
LineGap: 0
VLineGap: 0
Panose: 2 0 5 5 2 0 0 2 0 4
OS2TypoAscent: 0
OS2TypoAOffset: 1
OS2TypoDescent: 0
OS2TypoDOffset: 1
OS2TypoLinegap: 0
OS2WinAscent: 1710
OS2WinAOffset: 0
OS2WinDescent: 408
OS2WinDOffset: 0
HheadAscent: 1638
HheadAOffset: 0
HheadDescent: 410
HheadDOffset: 0
OS2SubXSize: 1331
OS2SubYSize: 1228
OS2SubXOff: 0
OS2SubYOff: 153
OS2SupXSize: 1331
OS2SupYSize: 1228
OS2SupXOff: 0
OS2SupYOff: 716
OS2StrikeYSize: 102
OS2StrikeYPos: 780
OS2Vendor: 'newt'
OS2CodePages: 00000093.00000001
OS2UnicodeRanges: 00000007.00000000.00000000.00000000
Lookup: 258 0 0 "'kern' Horizontal Kerning in Latin lookup 0"  {"'kern' Horizontal Kerning in Latin lookup 0 subtable"  } ['kern' ('latn' <'dflt' > ) ]
DEI: 91125
LangName: 1033 "" "" "" "1.000;;Coda-Heavy" "" "Version 1.000;PS 001.001;hotconv 1.0.56" "" "Coda Heavy is a trademark of vernon adams." "vernon adams" "vernon adams" "Copyright (c) 2009 by vernon adams. All rights reserved." "newtypography.co.uk" "newtypography.co.uk" "SIL Open Font License (OFL)" "http://scripts.sil.org/cms/scripts/page.php?item_id+AD0A-OFL_web" 
PickledData: "(dp1
S'public.glyphOrder'
p2
(S'A'
S'Agrave'
S'Aacute'
S'Acircumflex'
S'Atilde'
S'Adieresis'
S'Aring'
S'Amacron'
S'Abreve'
S'Aogonek'
S'uni0200'
S'uni0202'
S'B'
S'C'
S'Ccedilla'
S'Cacute'
S'Ccircumflex'
S'Cdotaccent'
S'Ccaron'
S'D'
S'Dcaron'
S'E'
S'Egrave'
S'Eacute'
S'Ecircumflex'
S'Edieresis'
S'Emacron'
S'Eogonek'
S'Ecaron'
S'uni0204'

StartChar: A
Encoding: 65 65 1
Width: 1640
VWidth: 0
Flags: HW
LayerCount: 2
Fore
SplineSet
669 75 m 2
 662 27 631 0 582 0 c 2
 148 0 l 2
 108 0 84 23 84 58 c 0
 84 64 106 487 310 1520 c 0
 320 1570 351 1595 400 1595 c 2
 1235 1595 l 2
 1284 1595 1315 1569 1325 1520 c 0
 1532 496 1556 63 1556 58 c 0
 1556 23 1532 0 1492 0 c 2
 1057 0 l 2
 1008 0 977 27 970 75 c 2
 936 327 l 2
 930 365 936 366 897 366 c 2
 743 366 l 2
 704 366 710 365 704 327 c 2
 669 75 l 2
902 615 m 2
 852 1085 l 1
 828 1265 l 2
 828 1271 823 1273 818 1273 c 0
 813 1273 808 1271 807 1265 c 2
 785 1085 l 1
 737 615 l 2
 736 607 735 600 735 595 c 0
 735 578 743 576 771 576 c 2
 869 576 l 2
 897 576 904 578 904 594 c 0
 904 599 903 606 902 615 c 2
EndSplineSet
EndChar

StartChar: AE
Encoding: 198 198 2
Width: 2011
VWidth: 0
Flags: HW
LayerCount: 2
Fore
SplineSet
968.275 944.423 m 2
 865.725 634.577 l 2
 854.94 601.989 872.268 578 906.596 578 c 2
 927.404 578 l 2
 964.699 578 987 600.301 987 637.596 c 2
 987 941.404 l 2
 987 959.414 973.933 961.52 968.275 944.423 c 2
748.887 1595 m 2
 1870.11 1595 l 2
 1917.6 1595 1946 1566.6 1946 1519.11 c 2
 1946 1429.89 l 2
 1946 1382.4 1917.6 1354 1870.11 1354 c 2
 1664.6 1354 l 2
 1627.3 1354 1605 1331.7 1605 1294.4 c 2
 1605 1020.6 l 2
 1605 983.301 1627.3 961 1664.6 961 c 2
 1847.11 961 l 2
 1894.6 961 1923 932.603 1923 885.113 c 2
 1923 786.887 l 2
 1923 739.397 1894.6 711 1847.11 711 c 2
 1664.6 711 l 2
 1627.3 711 1605 688.699 1605 651.404 c 2
 1605 303.596 l 2
 1605 266.301 1627.3 244 1664.6 244 c 2
 1870.11 244 l 2
 1917.6 244 1946 215.603 1946 168.113 c 2
 1946 75.8854 l 2
 1946 28.3951 1917.6 0 1870.11 0 c 2
 1065.39 0 l 2
 1017.83 0 989.297 28.327 988.955 75.8854 c 2
 987.428 288.406 l 2
 987.16 325.754 964.754 348 927.404 348 c 2
 833.596 348 l 2
 794.455 348 767.784 328.513 755.89 291.223 c 2
 686.061 72.2986 l 2
 670.915 24.8145 636.954 0 587.113 0 c 2
 113.887 0 l 2
 71.0315 0 50.2178 30.6888 66.0695 70.5052 c 2
 644.931 1524.49 l 2
 663.494 1571.12 698.699 1595 748.887 1595 c 2
EndSplineSet
EndChar

StartChar: B
Encoding: 66 66 12
Width: 1666
VWidth: 0
Flags: HW
LayerCount: 2
Fore
SplineSet
809 296 m 2
 909 296 l 2
 947 296 969 325.333333333 969 376 c 2
 969 660 l 2
 969 710.666992188 947 740 909 740 c 2
 809 740 l 2
 771 740 769 738 769 700 c 2
 769 336 l 2
 769 298 771 296 809 296 c 2
809 922 m 2
 909 922 l 2
 947 922 969 947.666666667 969 992 c 2
 969 1222 l 2
 969 1260 947 1282 909 1282 c 2
 809 1282 l 2
 771 1282 769 1280 769 1242 c 2
 769 962 l 2
 769 924 771 922 809 922 c 2
1035 0 m 2
 241 0 l 2
 193 0 168 31 165 76 c 0
 149 323 140 574 140 818 c 0
 140 1062 149 1300 165 1519 c 0
 169 1567 193 1595 241 1595 c 2
 1039 1595 l 2
 1299 1595 1538 1551 1538 1219 c 0
 1538 1019 1501 911 1233 875 c 1
 1541 812 1579 647 1579 460 c 0
 1579 91 1424 0 1035 0 c 2
EndSplineSet
EndChar

StartChar: C
Encoding: 67 67 13
Width: 1692
VWidth: 0
Flags: HW
LayerCount: 2
Fore
SplineSet
981 588 m 0
 981 636 1005 670 1044 670 c 2
 1523 670 l 2
 1563 670 1583 639 1583 595 c 1
 1558 -9 1391.55 -39 843 -39 c 0
 223 -39 105 19 105 805 c 0
 105 1568 242 1631 843 1631 c 0
 1365.78 1631 1554 1603 1583 1010 c 1
 1583 958 1561 922 1519 922 c 2
 1051 922 l 2
 1005 922 981 950 981 998 c 0
 979 1277 962.895 1282 866 1282 c 2
 830 1282 l 2
 728 1282 727 1280 727 796 c 0
 727 314 728 315 830 315 c 2
 866 315 l 2
 961.567 315 978 315 981 588 c 0
EndSplineSet
EndChar

StartChar: D
Encoding: 68 68 19
Width: 1751
VWidth: 0
Flags: HW
LayerCount: 2
Fore
SplineSet
240 1595 m 2
 983 1595 l 2
 1299 1595 1559 1549 1609 1204 c 0
 1628 1076 1637 936 1637 797 c 0
 1637 657 1628 519 1609 393 c 0
 1556 34 1294 0 983 0 c 2
 240 0 l 2
 192 0 169 29 164 76 c 0
 141 316 140 547 140 783 c 0
 140 1018 141 1259 164 1519 c 0
 168 1567 192 1595 240 1595 c 2
774 1242 m 2
 774 354 l 2
 774 316 776 314 814 314 c 2
 909 314 l 2
 947 314 1001 338 1006 374 c 0
 1022 491 1030 649 1030 804 c 0
 1030 962 1022 1117 1006 1222 c 0
 1001 1259 947 1282 909 1282 c 2
 814 1282 l 2
 776 1282 774 1280 774 1242 c 2
EndSplineSet
EndChar

StartChar: Dcroat
Encoding: 272 272 21
Width: 1449
VWidth: 0
Flags: HW
LayerCount: 2
Fore
SplineSet
1378 1204 m 2
 1378 393.118 l 2
 1378 393.059 1377.95 392.974 1377.89 392.947 c 2
 1376.11 392.053 l 2
 1376.05 392.026 1376 391.941 1376 391.873 c 0
 1375.98 217.955 1330.97 124.986 1210 66 c 0
 1110 17 980 0 817 0 c 2
 221.887 0 l 2
 174.397 0 146 28.397 146 75.8873 c 2
 146 726 l 1
 122 726 l 2
 78.1939 726 52 752.194 52 796 c 2
 52 798 l 2
 52 841.806 78.1939 868 122 868 c 2
 146 868 l 1
 146 1519.11 l 2
 146 1566.6 174.397 1595 221.887 1595 c 2
 817 1595 l 2
 980 1595 1110 1578 1211 1529 c 0
 1305 1484 1368 1412 1375 1289 c 0
 1377 1259 1378 1231 1378 1204 c 2
645 1298.4 m 2
 645 868 l 1
 703 868 l 2
 746.806 868 773 841.806 773 798 c 2
 773 796 l 2
 773 752.194 746.806 726 703 726 c 2
 645 726 l 1
 645 296.596 l 2
 645 259.301 667.301 237 704.596 237 c 2
 821.404 237 l 2
 858.699 237 881 259.301 881 296.596 c 2
 881 1298.4 l 2
 881 1335.7 858.699 1358 821.404 1358 c 2
 704.596 1358 l 2
 667.301 1358 645 1335.7 645 1298.4 c 2
EndSplineSet
EndChar

StartChar: E
Encoding: 69 69 22
Width: 1191
VWidth: 0
Flags: HW
LayerCount: 2
Fore
SplineSet
235 1595 m 2
 1037 1595 l 2
 1085 1595 1113 1567 1113 1519 c 2
 1113 1422 l 2
 1113 1374 1085 1346 1037 1346 c 2
 832 1346 l 2
 794 1346 772 1324 772 1286 c 2
 772 1021 l 2
 772 983 794 961 832 961 c 2
 1014 961 l 2
 1062 961 1090 933 1090 885 c 2
 1090 787 l 2
 1090 739 1062 711 1014 711 c 2
 832 711 l 2
 794 711 772 689 772 651 c 2
 772 311 l 2
 772 273 794 251 832 251 c 2
 1037 251 l 2
 1085 251 1113 223 1113 175 c 2
 1113 76 l 2
 1113 28 1085 0 1037 0 c 2
 235 0 l 2
 187 0 162 28 159 76 c 0
 147 307 140 581 140 836 c 0
 140 1112 148 1366 159 1519 c 0
 162 1565 187 1595 235 1595 c 2
EndSplineSet
EndChar

StartChar: Eth
Encoding: 208 208 31
Width: 1449
VWidth: 0
Flags: HW
LayerCount: 2
Fore
SplineSet
1378 1204 m 2
 1378 393.118 l 2
 1378 393.059 1377.95 392.974 1377.89 392.947 c 2
 1376.11 392.053 l 2
 1376.05 392.026 1376 391.941 1376 391.873 c 0
 1375.98 217.955 1330.97 124.986 1210 66 c 0
 1110 17 980 0 817 0 c 2
 221.887 0 l 2
 174.397 0 146 28.397 146 75.8873 c 2
 146 726 l 1
 122 726 l 2
 78.1939 726 52 752.194 52 796 c 2
 52 798 l 2
 52 841.806 78.1939 868 122 868 c 2
 146 868 l 1
 146 1519.11 l 2
 146 1566.6 174.397 1595 221.887 1595 c 2
 817 1595 l 2
 980 1595 1110 1578 1211 1529 c 0
 1305 1484 1368 1412 1375 1289 c 0
 1377 1259 1378 1231 1378 1204 c 2
645 1298.4 m 2
 645 868 l 1
 703 868 l 2
 746.806 868 773 841.806 773 798 c 2
 773 796 l 2
 773 752.194 746.806 726 703 726 c 2
 645 726 l 1
 645 296.596 l 2
 645 259.301 667.301 237 704.596 237 c 2
 821.404 237 l 2
 858.699 237 881 259.301 881 296.596 c 2
 881 1298.4 l 2
 881 1335.7 858.699 1358 821.404 1358 c 2
 704.596 1358 l 2
 667.301 1358 645 1335.7 645 1298.4 c 2
EndSplineSet
EndChar

StartChar: Euro
Encoding: 8364 8364 32
Width: 1432
VWidth: 0
Flags: HW
LayerCount: 2
Fore
SplineSet
-8.08267e-15 605 m 2
 -8.08267e-15 661 l 2
 -8.08267e-15 688.535 16.4648 705 44 705 c 2
 46 705 l 2
 73.5352 705 90 721.465 90 749 c 2
 90 799 l 2
 90 826.535 73.5352 843 46 843 c 2
 44 843 l 2
 16.4648 843 -8.08267e-15 859.465 -8.08267e-15 887 c 2
 -8.08267e-15 943 l 2
 -8.08267e-15 970.535 16.4648 987 44 987 c 2
 46 987 l 2
 73.5352 987 90 1003.46 90 1031 c 2
 90 1226 l 2
 90 1598 483 1632 783 1632 c 0
 1098 1632 1472 1606 1472 1227 c 2
 1472 1182 l 2
 1472 1155.09 1455.91 1139 1429 1139 c 2
 943.887 1139 l 2
 896.397 1139 868 1167.4 868 1214.89 c 2
 868 1296.4 l 2
 868 1333.7 845.699 1356 808.404 1356 c 2
 754.596 1356 l 2
 717.301 1356 695 1333.7 695 1296.4 c 2
 695 1047.6 l 2
 695 1010.3 717.301 988 754.596 988 c 2
 965.5 988 l 2
 1010.24 988 1037 961.245 1037 916.5 c 2
 1037 914.5 l 2
 1037 869.755 1010.24 843 965.5 843 c 2
 754.596 843 l 2
 717.301 843 695 820.699 695 783.404 c 2
 695 765.596 l 2
 695 728.301 717.301 706 754.596 706 c 2
 965.5 706 l 2
 1010.24 706 1037 679.245 1037 634.5 c 2
 1037 632.5 l 2
 1037 587.755 1010.24 561 965.5 561 c 2
 754.596 561 l 2
 717.301 561 695 538.699 695 501.404 c 2
 695 292.596 l 2
 695 255.301 717.301 233 754.596 233 c 2
 808.404 233 l 2
 845.699 233 868 255.301 868 292.596 c 2
 868 375.113 l 2
 868 422.603 896.397 451 943.887 451 c 2
 1432 451 l 2
 1457.03 451 1472 436.032 1472 411 c 2
 1472 369 l 2
 1472 -6 1090 -40 786 -40 c 0
 511 -40 90 -9 90 370 c 2
 90 517 l 2
 90 544.535 73.5352 561 46 561 c 2
 44 561 l 2
 16.4648 561 -8.08267e-15 577.465 -8.08267e-15 605 c 2
EndSplineSet
EndChar

StartChar: F
Encoding: 70 70 33
Width: 1102
VWidth: 0
Flags: HW
LayerCount: 2
Fore
SplineSet
179.887 1595 m 2
 973.113 1595 l 2
 1020.6 1595 1049 1566.6 1049 1519.11 c 2
 1049 1421.89 l 2
 1049 1374.4 1020.6 1346 973.113 1346 c 2
 767.596 1346 l 2
 730.301 1346 708 1323.7 708 1286.4 c 2
 708 1013.6 l 2
 708 976.301 730.301 954 767.596 954 c 2
 950.113 954 l 2
 997.603 954 1026 925.603 1026 878.113 c 2
 1026 780.887 l 2
 1026 733.397 997.603 705 950.113 705 c 2
 767.596 705 l 2
 730.301 705 708 682.699 708 645.404 c 2
 708 75.8873 l 2
 708 28.397 679.603 0 632.113 0 c 2
 179.887 0 l 2
 132.397 0 104 28.397 104 75.8873 c 2
 104 1519.11 l 2
 104 1566.6 132.397 1595 179.887 1595 c 2
EndSplineSet
EndChar

StartChar: G
Encoding: 71 71 34
Width: 1695
VWidth: 0
Flags: HW
LayerCount: 2
Fore
SplineSet
1444 0 m 2
 1326 110 l 1
 1279 35 1143 -39 852 -39 c 0
 232 -39 114 69 114 805 c 0
 114 1568 251 1631 852 1631 c 0
 1375 1631 1563 1603 1592 1010 c 1
 1592 958 1570 922 1528 922 c 2
 1060 922 l 2
 1014 922 990 950 990 998 c 0
 988 1277 980 1282 905 1282 c 2
 839 1282 l 2
 737 1282 736 1280 736 796 c 0
 736 314 737 315 839 315 c 2
 995 315 l 2
 1052 315 1070 339 1075 393 c 1
 1075 534 l 2
 1075 557 1074 575 1025 575 c 2
 944 575 l 1
 942 575 l 2
 916 575 900 591 900 617 c 2
 900 730 l 2
 900 778 928 806 976 806 c 2
 1514 806 l 2
 1562 806 1590 778 1590 730 c 2
 1590 76 l 2
 1590 28 1478 -31 1444 0 c 2
EndSplineSet
EndChar

StartChar: H
Encoding: 72 72 39
Width: 1788
VWidth: 0
Flags: HW
LayerCount: 2
Fore
SplineSet
1089 1595 m 2
 1551 1595 l 2
 1599 1595 1622 1566 1627 1519 c 0
 1648 1325 1648 1069 1648 810 c 0
 1648 548 1648 283 1627 76 c 0
 1622 28 1599 0 1551 0 c 2
 1089 0 l 2
 1041 0 1013 28 1013 76 c 2
 1013 648 l 2
 1013 686 1011 688 973 688 c 2
 814 688 l 2
 776 688 774 686 774 648 c 2
 774 76 l 2
 774 28 746 0 698 0 c 2
 236 0 l 2
 188 0 164 29 160 76 c 0
 141 305 140 543 140 790 c 0
 140 1025 140 1268 160 1519 c 0
 164 1565 188 1595 236 1595 c 2
 698 1595 l 2
 746 1595 774 1567 774 1519 c 2
 774 950 l 2
 774 912 776 908 814 908 c 2
 973 908 l 2
 1011 908 1013 912 1013 950 c 2
 1013 1519 l 2
 1013 1567 1041 1595 1089 1595 c 2
EndSplineSet
EndChar

StartChar: Hbar
Encoding: 294 294 40
Width: 1703
VWidth: 0
Flags: HW
LayerCount: 2
Fore
SplineSet
1023.89 1595 m 2
 1477.11 1595 l 2
 1524.6 1595 1553 1566.6 1553 1519.11 c 2
 1553 1349 l 1
 1583.11 1349 l 2
 1630.6 1349 1659 1320.6 1659 1273.11 c 2
 1659 1233.89 l 2
 1659 1186.4 1630.6 1158 1583.11 1158 c 2
 1553 1158 l 1
 1553 75.8873 l 2
 1553 28.397 1524.6 0 1477.11 0 c 2
 1023.89 0 l 2
 976.397 0 948 28.397 948 75.8873 c 2
 948 628.404 l 2
 948 665.699 925.699 688 888.404 688 c 2
 814.596 688 l 2
 777.301 688 755 665.699 755 628.404 c 2
 755 75.8873 l 2
 755 28.397 726.603 0 679.113 0 c 2
 226.887 0 l 2
 179.397 0 151 28.397 151 75.8873 c 2
 151 1158 l 1
 129.887 1158 l 2
 82.397 1158 54 1186.4 54 1233.89 c 2
 54 1273.11 l 2
 54 1320.6 82.397 1349 129.887 1349 c 2
 151 1349 l 1
 151 1519.11 l 2
 151 1566.6 179.397 1595 226.887 1595 c 2
 679.113 1595 l 2
 726.603 1595 755 1566.6 755 1519.11 c 2
 755 1349 l 1
 948 1349 l 1
 948 1519.11 l 2
 948 1566.6 976.397 1595 1023.89 1595 c 2
948 1158 m 1
 755 1158 l 1
 755 997.596 l 2
 755 960.301 777.301 938 814.596 938 c 2
 888.404 938 l 2
 925.699 938 948 960.301 948 997.596 c 2
 948 1158 l 1
EndSplineSet
EndChar

StartChar: I
Encoding: 73 73 42
Width: 926
VWidth: 0
Flags: HW
LayerCount: 2
Fore
SplineSet
237 1595 m 2
 689 1595 l 2
 737 1595 760 1565 765 1519 c 0
 779 1386 786 1122 786 842 c 0
 786 562 779 265 765 76 c 0
 762 29 737 0 689 0 c 2
 237 0 l 2
 189 0 165 30 161 76 c 0
 148 216 140 531 140 842 c 0
 140 1137 147 1430 161 1519 c 0
 168 1565 189 1595 237 1595 c 2
EndSplineSet
EndChar

StartChar: J
Encoding: 74 74 53
Width: 908
VWidth: 0
Flags: HW
LayerCount: 2
Fore
SplineSet
302.887 1594 m 2
 755.113 1594 l 2
 802.603 1594 831 1565.6 831 1518.11 c 2
 831 274 l 2
 831 -44 604 -159 310 -159 c 0
 252.098 -159 191.129 -154.401 128.921 -145.934 c 0
 82.0968 -139.56 54 -107.38 54 -60.1233 c 2
 54 62.1127 l 2
 54 109.603 82.397 138 129.887 138 c 2
 167.404 138 l 2
 204.699 138 227 160.301 227 197.596 c 2
 227 1518.11 l 2
 227 1565.6 255.397 1594 302.887 1594 c 2
EndSplineSet
EndChar

StartChar: K
Encoding: 75 75 55
Width: 1725
VWidth: 0
Flags: HW
LayerCount: 2
Fore
SplineSet
1622.11 0 m 2
 1136.89 0 l 2
 1086.8 0 1052 24.1832 1034.53 71.1225 c 2
 815.349 660.129 l 2
 807.367 681.577 788.873 687.967 769.353 676.022 c 2
 767.647 674.978 l 2
 745.889 661.664 735.782 642.258 737.344 616.797 c 2
 745 492 l 1
 745 75.8873 l 2
 745 28.397 716.603 0 669.113 0 c 2
 215.887 0 l 2
 168.397 0 140 28.397 140 75.8873 c 2
 140 1519.11 l 2
 140 1566.6 168.397 1595 215.887 1595 c 2
 669.113 1595 l 2
 716.603 1595 745 1566.6 745 1519.11 c 2
 745 994 l 1
 736.229 867.699 l 2
 735.45 856.476 741.408 848.961 752.513 847.16 c 2
 754.487 846.84 l 2
 765.6 845.038 773.646 850.271 776.503 861.161 c 2
 790.754 915.467 l 2
 800.63 953.105 820.589 1015.87 834.265 1052.3 c 2
 1011.33 1523.95 l 2
 1028.94 1570.86 1063.79 1595 1113.89 1595 c 2
 1581.11 1595 l 2
 1623.19 1595 1642.99 1564.23 1625.55 1525.94 c 2
 1339.7 898.237 l 2
 1323.19 861.993 1323.17 825.996 1339.63 789.731 c 2
 1666.64 69.1049 l 2
 1684.04 30.7728 1664.21 0 1622.11 0 c 2
EndSplineSet
EndChar

StartChar: L
Encoding: 76 76 57
Width: 1135
VWidth: 0
Flags: HWO
LayerCount: 2
Fore
SplineSet
1021 0 m 2
 228 0 l 2
 180 0 157 30 152 76 c 0
 139 203 133 500 133 798 c 0
 133 1095 139 1392 152 1519 c 0
 157 1565 180 1595 228 1595 c 2
 680 1595 l 2
 728 1595 756 1567 756 1519 c 2
 756 301 l 2
 756 263 778 241 816 241 c 2
 1021 241 l 2
 1069 241 1097 213 1097 165 c 2
 1097 76 l 2
 1097 28 1069 0 1021 0 c 2
EndSplineSet
EndChar

StartChar: Lslash
Encoding: 321 321 62
Width: 1534
VWidth: 0
Flags: HW
LayerCount: 2
Fore
SplineSet
1246.11 0 m 2
 452.887 0 l 2
 405.397 0 377 28.397 377 75.8873 c 2
 377 571.787 l 1
 139.04 445.561 l 2
 102.758 426.315 72 444.817 72 485.887 c 2
 72 674.113 l 2
 72 724.685 94.3787 761.835 139.084 785.477 c 2
 377 911.297 l 1
 377 1519.11 l 2
 377 1566.6 405.397 1595 452.887 1595 c 2
 905.113 1595 l 2
 952.603 1595 981 1566.6 981 1519.11 c 2
 981 1230.72 l 1
 1252.92 1374.52 l 2
 1289.24 1393.73 1320 1375.2 1320 1334.11 c 2
 1320 1147.89 l 2
 1320 1097.31 1297.64 1060.14 1252.96 1036.44 c 2
 981 892.179 l 1
 981 300.596 l 2
 981 263.301 1003.3 241 1040.6 241 c 2
 1246.11 241 l 2
 1293.6 241 1322 212.603 1322 165.113 c 2
 1322 75.8873 l 2
 1322 28.397 1293.6 0 1246.11 0 c 2
EndSplineSet
EndChar

StartChar: M
Encoding: 77 77 63
Width: 2052
VWidth: 0
Flags: HW
LayerCount: 2
Fore
SplineSet
1473 76 m 1
 1445 939 l 1
 1282 75 l 2
 1273 27 1244 0 1195 0 c 2
 860 0 l 2
 811 0 782 27 774 75 c 2
 621 939 l 1
 594 76 l 1
 591 28 561 0 513 0 c 2
 214 0 l 2
 169 0 141 27 141 71 c 2
 141 71 140 105 140 176 c 0
 140 358 148 788 208 1519 c 0
 212 1567 240 1595 288 1595 c 2
 816 1595 l 2
 865 1595 896 1568 903 1520 c 2
 1020 719 l 2
 1021 714 1026 711 1032 711 c 0
 1037 711 1043 714 1043 719 c 2
 1148 1520 l 2
 1155 1568 1186 1595 1235 1595 c 2
 1764 1595 l 2
 1812 1595 1840 1567 1844 1519 c 0
 1904 760 1912 338 1912 165 c 0
 1912 105 1911 75 1911 71 c 0
 1911 27 1883 0 1838 0 c 2
 1554 0 l 2
 1506 0 1476 28 1473 76 c 1
EndSplineSet
EndChar

StartChar: N
Encoding: 78 78 64
Width: 1715
VWidth: 0
Flags: HW
LayerCount: 2
Fore
SplineSet
1477 0 m 2
 1090 0 l 2
 1039 0 1002 22 976 66 c 2
 638 659 l 2
 633 668 627 671 622 671 c 0
 615 671 609 664 609 651 c 2
 609 76 l 2
 609 28 581 0 533 0 c 2
 237 0 l 2
 189 0 164 28 161 76 c 0
 147 330 140 577 140 817 c 0
 140 1057 147 1291 161 1519 c 0
 164 1567 189 1595 237 1595 c 2
 602 1595 l 2
 653 1595 690 1573 715 1529 c 2
 1080 886 l 2
 1085 877 1091 874 1096 874 c 0
 1103 874 1109 881 1109 894 c 2
 1109 1519 l 2
 1109 1567 1137 1595 1185 1595 c 2
 1477 1595 l 2
 1525 1595 1550 1566 1553 1519 c 0
 1569 1306 1575 1050 1575 829 c 0
 1575 572 1566 349 1553 76 c 0
 1551 28 1525 0 1477 0 c 2
EndSplineSet
EndChar

StartChar: O
Encoding: 79 79 69
Width: 1710
VWidth: 0
Flags: HW
LayerCount: 2
Fore
SplineSet
839 315 m 2
 875 315 l 2
 988 315 991 315 991 799 c 0
 991 1283 988 1282 875 1282 c 2
 839 1282 l 2
 737 1282 736 1280 736 796 c 0
 736 314 737 315 839 315 c 2
852 1631 m 0
 1424 1631 1596 1573 1596 808 c 0
 1596 21 1454 -39 852 -39 c 0
 232 -39 114 19 114 805 c 0
 114 1568 251 1631 852 1631 c 0
EndSplineSet
EndChar

StartChar: OE
Encoding: 338 338 70
Width: 1832
VWidth: 0
Flags: HW
LayerCount: 2
Fore
SplineSet
678 1307 m 2
 678 288 l 2
 678 252.955 698.955 232 734 232 c 2
 736 232 l 2
 771.045 232 792 252.955 792 288 c 2
 792 1307 l 2
 792 1342.04 771.045 1363 736 1363 c 2
 734 1363 l 2
 698.955 1363 678 1342.04 678 1307 c 2
1692.11 0 m 2
 722 0 l 1
 722 -117.958 l 1
 279 60 l 2
 177 101 104 164 95 287 c 0
 93 316 92 344 92 371 c 2
 92 1227 l 2
 92 1401 149 1483 279 1534 c 0
 396 1580 543 1595 722 1595 c 2
 1692.11 1595 l 2
 1739.6 1595 1768 1566.6 1768 1519.11 c 2
 1768 1429.89 l 2
 1768 1382.4 1739.6 1354 1692.11 1354 c 2
 1483.6 1354 l 2
 1446.3 1354 1424 1331.7 1424 1294.4 c 2
 1424 1020.6 l 2
 1424 983.301 1446.3 961 1483.6 961 c 2
 1668.11 961 l 2
 1715.6 961 1744 932.603 1744 885.113 c 2
 1744 786.887 l 2
 1744 739.397 1715.6 711 1668.11 711 c 2
 1483.6 711 l 2
 1446.3 711 1424 688.699 1424 651.404 c 2
 1424 303.596 l 2
 1424 266.301 1446.3 244 1483.6 244 c 2
 1692.11 244 l 2
 1739.6 244 1768 215.603 1768 168.113 c 2
 1768 75.8873 l 2
 1768 28.397 1739.6 0 1692.11 0 c 2
722 -117.958 m 1
 722.464 -118.144 l 2
 748.458 -128.586 722 -146.47 722 -118.457 c 2
 722 -117.958 l 1
EndSplineSet
EndChar

StartChar: Oslash
Encoding: 216 216 78
Width: 1542
VWidth: 0
Flags: HW
LayerCount: 2
Fore
SplineSet
1058 -20 m 0
 981.038 -32.9937 888.091 -38.9941 778.161 -39 c 0
 778.081 -39 778.036 -39.0721 778.072 -39.1441 c 2
 778.947 -40.8944 l 2
 778.974 -40.9472 778.941 -41 778.86 -41 c 0
 609.854 -40.9918 468.256 -26.102 351.986 13.3711 c 1
 281.669 -101.306 l 2
 257.348 -140.971 218.512 -148.384 181.29 -120.468 c 2
 174.71 -115.532 l 2
 136.05 -86.5372 128.443 -46.5253 153.767 -5.36641 c 2
 209.54 85.2832 l 1
 148.81 131.323 106.829 194.334 96 283 c 0
 92 314 90 343 90 370 c 2
 90 1226 l 2
 90 1491 263 1572 499 1611 c 0
 576 1624 669 1630 778 1630 c 0
 916.504 1630 1036.27 1620.63 1139.19 1596.27 c 1
 1235.23 1752.37 l 2
 1259.32 1791.51 1297.98 1797.82 1333.26 1768.37 c 2
 1337.74 1764.63 l 2
 1375.17 1733.38 1381.82 1692.87 1356.33 1651.31 c 2
 1290.14 1543.36 l 1
 1405.98 1485.4 1472 1394.82 1472 1226 c 2
 1472 370 l 2
 1472 103 1295 20 1058 -20 c 0
695 1302.4 m 2
 695 874.317 l 1
 868 1155.5 l 1
 868 1302.4 l 2
 868 1339.7 845.699 1362 808.404 1362 c 2
 754.596 1362 l 2
 717.301 1362 695 1339.7 695 1302.4 c 2
868 854.915 m 1
 695 572.777 l 1
 695 294.596 l 2
 695 257.301 717.301 235 754.596 235 c 2
 808.404 235 l 2
 845.699 235 868 257.301 868 294.596 c 2
 868 854.915 l 1
EndSplineSet
EndChar

StartChar: P
Encoding: 80 80 80
Width: 1550
VWidth: 0
Flags: HW
LayerCount: 2
Fore
SplineSet
707 1302.4 m 2
 707 687.596 l 2
 707 650.301 729.301 628 766.596 628 c 2
 820.404 628 l 2
 857.699 628 880 650.301 880 687.596 c 2
 880 1302.4 l 2
 880 1339.7 857.699 1362 820.404 1362 c 2
 766.596 1362 l 2
 729.301 1362 707 1339.7 707 1302.4 c 2
104 75.8873 m 2
 104 1519.11 l 2
 104 1566.6 132.397 1595 179.887 1595 c 2
 859 1595 l 2
 1175 1595 1485 1559 1485 1204 c 2
 1485 793 l 2
 1485 428 1170 402 860 402 c 2
 767.596 402 l 2
 730.301 402 708 379.699 708 342.404 c 2
 708 75.8873 l 2
 708 28.397 679.603 0 632.113 0 c 2
 179.887 0 l 2
 132.397 0 104 28.397 104 75.8873 c 2
EndSplineSet
EndChar

StartChar: Q
Encoding: 81 81 81
Width: 1710
VWidth: 0
Flags: HW
LayerCount: 2
Fore
SplineSet
838 315 m 2
 875 315 l 2
 988 315 991 315 991 799 c 0
 991 1281 988 1282 876 1282 c 2
 839 1282 l 2
 737 1282 736 1280 736 796 c 0
 736 316 737 315 838 315 c 2
1106 -491 m 0
 828 -491 606 -455 604 -222 c 0
 604 -188 606 -134 606 -114 c 0
 606 -68 594 -42 511 -24 c 0
 508 -23 506 -23 503 -22 c 0
 185 25 114 197 114 805 c 0
 114 1568 251 1631 852 1631 c 0
 1424 1631 1596 1573 1596 808 c 0
 1596 117 1487 -13 1053 -36 c 1
 1054 -80 1048 -153 1061 -159 c 0
 1090 -173 1216 -179 1264 -179 c 0
 1303 -179 1346 -175 1387 -169 c 0
 1391 -168 1395 -168 1399 -168 c 0
 1430 -168 1449 -187 1449 -217 c 0
 1449 -222 1449 -228 1448 -233 c 2
 1416 -406 l 2
 1407 -453 1405 -472 1356 -475 c 0
 1303 -479 1153 -491 1106 -491 c 0
EndSplineSet
EndChar

StartChar: R
Encoding: 82 82 82
Width: 1680
VWidth: 0
Flags: HW
LayerCount: 2
Fore
SplineSet
773 76 m 2
 773 28 745 0 697 0 c 2
 234 0 l 2
 186 0 166 32 162 78 c 0
 146 259 140 511 140 769 c 0
 140 1036 141 1310 162 1519 c 0
 167 1565 191 1595 239 1595 c 2
 1076 1595 l 2
 1365 1595 1533 1502 1533 1190 c 0
 1533 991 1495 874 1352 821 c 1
 1482 786 1536 673 1550 562 c 2
 1613 76 l 2
 1619 28 1585 0 1537 0 c 2
 1082 0 l 2
 1034 0 1006 28 1006 76 c 1
 935 589 l 1
 935 627 913 649 875 649 c 2
 811 649 l 2
 773 649 773 647 773 609 c 2
 773 76 l 2
773 1318 m 2
 773 921 l 2
 773 883 773 881 811 881 c 2
 886 881 l 2
 924 881 946 903 946 941 c 2
 946 1298 l 2
 946 1336 924 1358 886 1358 c 2
 813 1358 l 2
 775 1358 773 1356 773 1318 c 2
EndSplineSet
EndChar

StartChar: S
Encoding: 83 83 86
Width: 1550
VWidth: 0
Flags: HWO
LayerCount: 2
Fore
SplineSet
792 -39 m 4
 419 -39 157 -10 124 345 c 4
 122 371.770491803 120 459.06557377 119 487 c 5
 119 489 l 6
 119 531 135 569 177 566 c 6
 625 536 l 6
 673 533 691 520 691 472 c 6
 691 335 l 6
 691 297 713 275 751 275 c 6
 804 275 l 6
 842 275 864 297 864 335 c 6
 864 515 l 6
 864 588.384615385 827.953347833 606.747963435 746 623 c 4
 247.435783732 721.869467654 112 734.145669291 112 1141 c 4
 112 1554.67307692 354 1631 762 1631 c 4
 1140 1631 1392 1599.58823529 1414 1186 c 5
 1414 1181 l 6
 1414 1140 1408 1112 1366 1110 c 6
 918 1088 l 6
 870 1086 862 1108 862 1176 c 6
 862 1260 l 6
 862 1298 840 1320 802 1320 c 6
 739 1320 l 6
 701 1320 679 1298 679 1260 c 6
 679 1083 l 6
 679 1016.05088832 749.381722465 1014.86815637 814 1004 c 4
 1361 912 1470 880 1470 459 c 4
 1470 21.3636363636 1260 -39 792 -39 c 4
EndSplineSet
EndChar

StartChar: T
Encoding: 84 84 92
Width: 1313
VWidth: 0
Flags: HW
LayerCount: 2
Fore
SplineSet
957 76 m 0
 954 29 929 0 881 0 c 2
 429 0 l 2
 381 0 357 30 353 76 c 0
 340 216 332 531 332 842 c 0
 332 1031 335 1204 341 1326 c 1
 76 1326 l 2
 28 1326 0 1354 0 1402 c 2
 0 1519 l 2
 0 1567 28 1595 76 1595 c 2
 1237 1595 l 2
 1285 1595 1313 1567 1313 1519 c 2
 1313 1402 l 2
 1313 1354 1285 1326 1237 1326 c 2
 968 1326 l 1
 975 1198 978 1033 978 842 c 0
 978 562 971 265 957 76 c 0
EndSplineSet
EndChar

StartChar: Thorn
Encoding: 222 222 94
Width: 1534
VWidth: 0
Flags: HW
LayerCount: 2
Fore
SplineSet
706 1122.4 m 2
 706 541.596 l 2
 706 504.301 728.301 482 765.596 482 c 2
 809.404 482 l 2
 846.699 482 869 504.301 869 541.596 c 2
 869 1122.4 l 2
 869 1159.7 846.699 1182 809.404 1182 c 2
 765.596 1182 l 2
 728.301 1182 706 1159.7 706 1122.4 c 2
104 75.8873 m 2
 104 1523.11 l 2
 104 1570.6 132.397 1599 179.887 1599 c 2
 630.113 1599 l 2
 677.603 1599 706 1570.6 706 1523.11 c 2
 706 1472.6 l 2
 706 1435.3 728.301 1413 765.596 1413 c 2
 843 1413 l 2
 1023 1413 1169 1397 1284 1347 c 0
 1385 1303 1459 1233 1466 1107 c 0
 1468 1077 1469 1049 1469 1022 c 2
 1469 641 l 2
 1469 576 1467 519 1447 469 c 0
 1396 345 1268 295 1108 268 c 0
 1036 256 948 250 843 250 c 2
 765.596 250 l 2
 728.301 250 706 227.699 706 190.404 c 2
 706 75.8873 l 2
 706 28.397 677.603 0 630.113 0 c 2
 179.887 0 l 2
 132.397 0 104 28.397 104 75.8873 c 2
EndSplineSet
EndChar

StartChar: U
Encoding: 85 85 95
Width: 1556
VWidth: 0
Flags: HW
LayerCount: 2
Fore
SplineSet
701 1519.11 m 2
 701 293.596 l 2
 701 256.301 723.301 234 760.596 234 c 2
 814.404 234 l 2
 851.699 234 874 256.301 874 293.596 c 2
 874 1518.11 l 2
 874 1565.6 902.397 1594 949.887 1594 c 2
 1403.11 1594 l 2
 1450.6 1594 1479 1565.6 1479 1518.11 c 2
 1479 370 l 2
 1479 -4 1088 -39 786 -39 c 0
 509 -39 97 -7 97 371 c 2
 97 1519.11 l 2
 97 1566.6 125.397 1595 172.887 1595 c 2
 625.113 1595 l 2
 672.603 1595 701 1566.6 701 1519.11 c 2
EndSplineSet
EndChar

StartChar: V
Encoding: 86 86 106
Width: 1610
VWidth: 0
Flags: HW
LayerCount: 2
Fore
SplineSet
667 1520 m 2
 805 600 l 2
 806 594 811 591 815 591 c 0
 819 591 823 593 823 598 c 2
 943 1520 l 1
 948 1568 979 1595 1028 1595 c 2
 1468 1595 l 2
 1508 1595 1530 1571 1530 1535 c 0
 1530 1530 1530 1526 1529 1521 c 0
 1454 1012 1335 454 1241 74 c 0
 1229 26 1199 0 1150 0 c 2
 460 0 l 2
 411 0 382 29 369 74 c 0
 260 459 157 1019 81 1521 c 0
 80 1526 80 1531 80 1536 c 0
 80 1572 102 1595 142 1595 c 2
 581 1595 l 2
 630 1595 660 1568 667 1520 c 2
EndSplineSet
EndChar

StartChar: W
Encoding: 87 87 107
Width: 2108
VWidth: 0
Flags: HW
LayerCount: 2
Fore
SplineSet
1327.34 1519.57 m 2
 1401 853 l 1
 1417.05 599.001 l 2
 1417.64 589.69 1423.69 584.356 1433 584.938 c 2
 1435 585.062 l 2
 1444.61 585.663 1450.5 591.38 1451.39 600.966 c 2
 1536.96 1519.44 l 2
 1541.44 1567.56 1571.55 1595 1619.89 1595 c 2
 1999.11 1595 l 2
 2045.02 1595 2070.56 1565.35 2063.75 1519.95 c 2
 1847.25 75.0494 l 2
 1840.02 26.8033 1808.9 0 1760.11 0 c 2
 1249.89 0 l 2
 1201.06 0 1169.83 26.7325 1162.3 74.9799 c 2
 1087.7 553.02 l 2
 1081.36 593.666 1074.26 662.706 1072.2 703.792 c 2
 1061.93 908.517 l 2
 1061.34 920.149 1054.15 927 1042.5 927 c 2
 1040.5 927 l 2
 1028.87 927 1021.7 920.139 1021.2 908.517 c 2
 1012.3 703.792 l 2
 1010.5 662.424 1003.58 593.948 997.066 553.057 c 2
 920.934 74.9431 l 2
 913.251 26.696 881.968 0 833.113 0 c 2
 342.887 0 l 2
 294.15 0 263.142 26.8745 256.215 75.1171 c 2
 48.7848 1519.88 l 2
 42.2512 1565.39 67.9132 1595 113.887 1595 c 2
 545.113 1595 l 2
 593.021 1595 622.244 1567.05 624.374 1519.19 c 2
 665.177 602.467 l 2
 665.695 590.844 672.865 584 684.5 584 c 2
 686.5 584 l 2
 698.166 584 705.406 590.822 706.098 602.467 c 2
 721 853 l 1
 796.464 1519.57 l 2
 801.919 1567.77 832.389 1595 880.887 1595 c 2
 1243.11 1595 l 2
 1291.59 1595 1322.01 1567.76 1327.34 1519.57 c 2
EndSplineSet
EndChar

StartChar: X
Encoding: 88 88 112
Width: 1586
VWidth: 0
Flags: HW
LayerCount: 2
Fore
SplineSet
784 514 m 1
 631 72 l 2
 615 25 581 0 531 0 c 2
 97 0 l 2
 64 0 45 18 45 44 c 0
 45 52 46 61 50 70 c 2
 325 727 l 2
 333 746 337 765 337 784 c 0
 337 801 333 819 326 837 c 2
 49 1525 l 2
 45 1534 44 1542 44 1550 c 0
 44 1576 64 1595 97 1595 c 2
 535 1595 l 2
 585 1595 619 1570 635 1523 c 2
 789 1071 l 1
 791 1071 l 1
 946 1523 l 2
 963 1570 997 1595 1047 1595 c 2
 1489 1595 l 2
 1522 1595 1542 1576 1542 1550 c 0
 1542 1542 1541 1534 1537 1525 c 2
 1257 837 l 2
 1250 819 1247 801 1247 783 c 0
 1247 764 1250 746 1258 727 c 2
 1536 70 l 2
 1540 61 1541 52 1541 44 c 0
 1541 18 1522 0 1489 0 c 2
 1043 0 l 2
 993 0 959 25 942 72 c 2
 786 514 l 1
 784 514 l 1
EndSplineSet
EndChar

StartChar: Y
Encoding: 89 89 113
Width: 1509
VWidth: 0
Flags: HW
LayerCount: 2
Fore
SplineSet
982.352 0 m 2
 530.352 0 l 2
 482.352 0 458.352 30 454.352 76 c 0
 445.352 169 439.352 338 436.352 532 c 1
 36.3518 1524 l 2
 20.3518 1564 41.3515625 1595 84.3518 1595 c 2
 472.3515625 1595 l 2
 522.3515625 1595 553.005859375 1569.30078125 568.3515625 1522 c 2
 738.3515625 998 l 5
 739.3515625 990 744.3515625 985 753.3515625 985 c 6
 755.3515625 985 l 6
 763.3515625 985 768.3515625 990 769.3515625 998 c 5
 944.3515625 1522 l 2
 960.104492188 1569.16796875 990.351584961 1595 1040.34960938 1595 c 2
 1424.35 1595 l 2
 1467.34960938 1595 1489.35 1564 1473.35 1524 c 2
 1076.35 528 l 1
 1073.35 355 1067.35 194 1058.35 76 c 0
 1055.35 29 1030.35 0 982.352 0 c 2
EndSplineSet
EndChar

StartChar: Z
Encoding: 90 90 118
Width: 1138
VWidth: 0
Flags: HW
LayerCount: 2
Fore
SplineSet
143.887 1595 m 2
 1016.11 1595 l 2
 1060.63 1595 1083.91 1564.69 1072.44 1521.68 c 2
 760.358 351.583 l 2
 751.35 317.807 769.639 294 804.596 294 c 2
 1006.11 294 l 2
 1053.6 294 1082 265.603 1082 218.113 c 2
 1082 75.8873 l 2
 1082 28.397 1053.6 0 1006.11 0 c 2
 131.887 0 l 2
 87.7181 0 64.9599 30.4263 77.437 72.7966 c 2
 423.165 1246.83 l 2
 432.964 1280.11 415.091 1304 380.404 1304 c 2
 143.887 1304 l 2
 96.397 1304 68 1332.4 68 1379.89 c 2
 68 1519.11 l 2
 68 1566.6 96.397 1595 143.887 1595 c 2
EndSplineSet
EndChar

StartChar: a
Encoding: 97 97 122
Width: 1464
VWidth: 0
Flags: HW
LayerCount: 2
Fore
SplineSet
809 114 m 0
 768 33 660 -27 494 -27 c 0
 209 -27 73 107 73 388 c 0
 73 777 277 823 770 823 c 0
 796 823 811 823 811 824 c 2
 811 1046 l 2
 811 1084 809 1106 771 1106 c 2
 712 1106 l 2
 674 1106 672 1084 672 1046 c 2
 672 971 l 2
 672 923 672 920 624 918 c 2
 199 897 l 1
 195 897 l 2
 164 897 143 917 139 948 c 0
 137 967 136 985 136 1005 c 0
 136 1304 503 1327 740 1327 c 0
 1047 1327 1381 1303 1381 952 c 2
 1381 257 l 1
 1382 192 1387 131 1396 76 c 0
 1397 71 1397 65 1397 61 c 0
 1397 23 1374 1 1332 1 c 2
 963 1 l 2
 915 1 881 24 862 69 c 2
 848 104 l 2
 840 124 838 145 831 145 c 0
 827 145 820 136 809 114 c 0
771 680 m 2
 735 680 l 2
 694 680 656 660 645 620 c 0
 640 603 629 506 629 418 c 0
 629 365 633 315 645 287 c 0
 659 254 669 227 745 227 c 2
 770 227 l 2
 808 227 811 229 811 267 c 2
 811 640 l 2
 811 678 809 680 771 680 c 2
EndSplineSet
EndChar

StartChar: acute
Encoding: 180 180 126
Width: 873
VWidth: 0
Flags: HW
LayerCount: 2
Fore
SplineSet
25 1420 m 0
 25 1438 35 1459 59 1480 c 0
 222 1629 432 1835 533 1893 c 0
 578 1919 620 1930 658 1930 c 0
 761 1930 832 1846 832 1752 c 0
 832 1687 797 1617 716 1570 c 0
 612 1510 325 1438 120 1376 c 0
 109 1372 98 1371 88 1371 c 0
 53 1371 25 1391 25 1420 c 0
EndSplineSet
EndChar

StartChar: ae
Encoding: 230 230 128
Width: 2144
VWidth: 0
Flags: HW
LayerCount: 2
Fore
SplineSet
1359 995.404 m 2
 1359 860.596 l 2
 1359 823.301 1381.3 801 1418.6 801 c 2
 1443.4 801 l 2
 1480.7 801 1503 823.301 1503 860.596 c 2
 1503 995.404 l 2
 1503 1032.7 1480.7 1055 1443.4 1055 c 2
 1418.6 1055 l 2
 1381.3 1055 1359 1032.7 1359 995.404 c 2
727.404 604 m 2
 696.596 604 l 2
 659.301 604 637 581.699 637 544.404 c 2
 637 311.596 l 2
 637 274.301 659.301 252 696.596 252 c 2
 727.404 252 l 2
 764.699 252 787 274.301 787 311.596 c 2
 787 544.404 l 2
 787 581.699 764.699 604 727.404 604 c 2
725 1343 m 0
 870.786 1343 992.668 1320.09 1073.66 1261.28 c 1
 1072.29 1262.71 l 2
 1072.15 1262.85 1072.17 1263.11 1072.38 1263.25 c 0
 1159.36 1320.07 1282.22 1345 1431 1345 c 0
 1613 1345 1760 1328 1877 1279 c 0
 1981 1235 2060 1165 2071 1040 c 0
 2074 1011 2075 983 2075 956 c 2
 2075 681.887 l 2
 2075 634.397 2046.6 606 1999.11 606 c 2
 1418.6 606 l 2
 1381.3 606 1359 583.699 1359 546.404 c 2
 1359 311.596 l 2
 1359 274.301 1381.3 252 1418.6 252 c 2
 1443.4 252 l 2
 1480.7 252 1503 274.301 1503 311.596 c 2
 1503 425.113 l 2
 1503 472.603 1531.4 501 1578.89 501 c 2
 2001.5 501 l 2
 2046.87 501 2074 473.871 2074 428.5 c 2
 2074 354 l 1
 2069 96 1917 16 1682 -20 c 0
 1611 -31 1526 -36 1427 -36 c 0
 1301.27 -36 1203.9 -4.26005 1126.57 43.6809 c 0
 1089.4 66.7274 1065.68 68.0987 1026.13 49.5075 c 0
 905.333 -7.27846 760.44 -36 577 -36 c 0
 395 -36 261 9 175 97 c 0
 108 166 69 263 69 388 c 0
 69 692 229 824 538 824 c 0
 613.691 824 675.341 815.36 730.094 800.857 c 0
 764.865 791.647 787 808.682 787 844.652 c 2
 787 994.404 l 2
 787 1031.7 764.699 1054 727.404 1054 c 2
 723.596 1054 l 2
 686.301 1054 664 1031.7 664 994.404 c 2
 664 983.507 l 2
 664 940.295 638.732 913.997 595.519 912.269 c 0
 466.878 907.126 339.833 901.983 211.214 896.84 c 0
 166.216 895.041 133.479 924.324 130.272 969.24 c 0
 129.461 980.587 129 992.155 129 1004 c 0
 129 1231 298 1300 503 1329 c 0
 566 1338 640 1343 725 1343 c 0
EndSplineSet
EndChar

StartChar: afii10018
Encoding: 1041 1041 130
Width: 1550
VWidth: 0
Flags: HW
LayerCount: 2
Fore
SplineSet
104 1519.11 m 2
 104 1566.6 132.397 1595 179.887 1595 c 2
 1277 1595 l 2
 1325 1595 1353 1567 1353 1519 c 2
 1353 1402 l 2
 1353 1354 1325 1326 1277 1326 c 2
 708 1326 l 1
 708 1002.6 l 2
 708 990.333 719.075 983 737.596 983 c 2
 860 983 l 2
 1170 983 1485 957 1485 592 c 2
 1485 391 l 2
 1485 36 1175 0 859 0 c 2
 179.887 0 l 2
 132.397 0 104 28.4004 104 75.8896 c 2
 104 1519.11 l 2
707 262.6 m 2
 707 244.075 718.075 233 736.596 233 c 2
 820.404 233 l 2
 857.699 233 880 255.3 880 292.6 c 2
 880 697.404 l 2
 880 734.699 857.699 757 820.404 757 c 2
 736.596 757 l 2
 718.075 757 707 745.925 707 727.404 c 2
 707 262.6 l 2
EndSplineSet
EndChar

StartChar: afii10020
Encoding: 1043 1043 132
Width: 1313
VWidth: 0
Flags: HW
LayerCount: 2
Fore
SplineSet
957 76 m 0
 954 29 929 0 881 0 c 2
 429 0 l 2
 381 0 357 30 353 76 c 0
 340 216 332 531 332 842 c 0
 332 1232.89 341 1463.5 343 1519 c 0
 344.729 1566.97 371 1595 419 1595 c 2
 1297 1595 l 2
 1345 1595 1373 1567 1373 1519 c 2
 1373 1402 l 2
 1373 1354 1345 1326 1297 1326 c 2
 968 1326 l 1
 975 1198 978 1033 978 842 c 0
 978 562 971 265 957 76 c 0
EndSplineSet
EndChar

StartChar: afii10021
Encoding: 1044 1044 133
Width: 1788
VWidth: 0
Flags: HW
LayerCount: 2
Fore
SplineSet
363 1595 m 2
 1531 1595 l 2
 1579 1595 1602 1566 1607 1519 c 0
 1628 1325 1628 1069 1628 810 c 0
 1628 626.099643176 1628 440.554310437 1617.98046875 279.5 c 1
 1751 279.5 l 2
 1799 279.5 1818.29 249.955 1827 203.5 c 1
 1831.01 137.715185427 1832.92 50.3099921216 1832.92 -37.5049 c 0
 1832.92 -120.457565813 1830.87 -203.812563164 1827 -266 c 1
 1819.06 -313.601 1799 -342 1751 -342 c 2
 1349 -342 l 2
 1301 -342 1273 -314 1273 -266 c 2
 1273 -10 l 2
 1273 28 1271 30 1233 30 c 2
 514 30 l 2
 476 30 474 28 474 -10 c 2
 474 -266 l 2
 474 -314 446 -342 398 -342 c 2
 -2 -342 l 2
 -50 -342 -71.8398 -312.766 -78 -266 c 1
 -80.6835 -193.887633274 -81.9346 -120.173720385 -81.9346 -46.2686 c 0
 -81.9346 37.3473045342 -80.5529 121.190737813 -78 203.5 c 1
 -72.2568 249.315 -50 279.5 -2 279.5 c 2
 131.64453125 279.5 l 1
 184.679691272 719.050425758 242.424865505 1196.1539425 287 1519 c 1
 291.228 1564.98 315 1595 363 1595 c 2
737.671875 299.5 m 1
 1013 299.5 l 1
 1013 1335.5 l 2
 1013 1373.5 1011 1375.5 973 1375.5 c 2
 884 1375.5 l 2
 846 1375.5 847.879882812 1373.29882812 844 1335.5 c 2
 737.671875 299.5 l 1
EndSplineSet
EndChar

StartChar: afii10024
Encoding: 1046 1046 136
Width: 1586
VWidth: 0
Flags: HW
LayerCount: 2
Fore
SplineSet
784 514 m 1
 631 72 l 2
 615 25 581 0 531 0 c 2
 97 0 l 2
 64 0 45 18 45 44 c 0
 45 52 46 61 50 70 c 2
 325 727 l 2
 333 746 337 765 337 784 c 0
 337 801 333 819 326 837 c 2
 49 1525 l 2
 45 1534 44 1542 44 1550 c 0
 44 1576 64 1595 97 1595 c 2
 535 1595 l 2
 585 1595 619 1570 635 1523 c 2
 789 1071 l 1
 791 1071 l 1
 946 1523 l 2
 963 1570 997 1595 1047 1595 c 2
 1489 1595 l 2
 1522 1595 1542 1576 1542 1550 c 0
 1542 1542 1541 1534 1537 1525 c 2
 1257 837 l 2
 1250 819 1247 801 1247 783 c 0
 1247 764 1250 746 1258 727 c 2
 1536 70 l 2
 1540 61 1541 52 1541 44 c 0
 1541 18 1522 0 1489 0 c 2
 1043 0 l 2
 993 0 959 25 942 72 c 2
 786 514 l 1
 784 514 l 1
EndSplineSet
EndChar

StartChar: afii10025
Encoding: 1047 1047 137
Width: 1436
VWidth: 0
Flags: HW
LayerCount: 2
Fore
SplineSet
72 1108 m 0
 72 1503 293 1632 714 1632 c 0
 1147 1632 1364 1506 1364 1113 c 0
 1364 988.161 1307.08 900.32 1216.65 846.477 c 0
 1190.27 830.774 1190.47 810.206 1217.14 795.002 c 0
 1316.8 738.198 1366 641.114 1366 522 c 0
 1366 79 1111 -39 716 -39 c 0
 270 -39 71 142 71 517 c 0
 71 533.075 71.2689 549.419 71.9461 566.032 c 0
 73.1209 594.85 92.0264 613 120.868 613 c 2
 551.113 613 l 2
 598.603 613 627 584.603 627 537.113 c 2
 627 294.596 l 2
 627 257.301 649.301 235 686.596 235 c 2
 739.404 235 l 2
 776.699 235 799 257.301 799 294.596 c 2
 799 647.404 l 2
 799 684.699 776.699 707 739.404 707 c 2
 615.887 707 l 2
 568.397 707 540 735.397 540 782.887 c 2
 540 855.113 l 2
 540 902.603 568.397 931 615.887 931 c 2
 739.404 931 l 2
 776.699 931 799 953.301 799 990.596 c 2
 799 1301.4 l 2
 799 1338.7 776.699 1361 739.404 1361 c 2
 686.596 1361 l 2
 649.301 1361 627 1338.7 627 1301.4 c 2
 627 1099.89 l 2
 627 1052.4 598.603 1024 551.113 1024 c 2
 115.311 1024 l 2
 89.9287 1024 73.7592 1039.58 72.8158 1064.94 c 0
 72.2719 1079.57 72 1093.92 72 1108 c 0
EndSplineSet
EndChar

StartChar: afii10026
Encoding: 1048 1048 138
Width: 1715
VWidth: 0
Flags: HW
LayerCount: 2
Fore
SplineSet
238 0 m 2
 190 0 164 28 162 76 c 0
 149 349 140 572 140 829 c 0
 140 1050 146 1306 162 1519 c 0
 165 1566 190 1595 238 1595 c 2
 530 1595 l 2
 578 1595 606 1567 606 1519 c 2
 606 894 l 2
 606 881 612 874 619 874 c 0
 624 874 630 877 635 886 c 2
 1000 1529 l 2
 1025 1573 1062 1595 1113 1595 c 2
 1478 1595 l 2
 1526 1595 1551 1567 1554 1519 c 0
 1568 1291 1575 1057 1575 817 c 0
 1575 577 1568 330 1554 76 c 0
 1551 28 1526 0 1478 0 c 2
 1182 0 l 2
 1134 0 1106 28 1106 76 c 2
 1106 651 l 2
 1106 664 1100 671 1093 671 c 0
 1088 671 1082 668 1077 659 c 2
 739 66 l 2
 713 22 676 0 625 0 c 2
 238 0 l 2
EndSplineSet
EndChar

StartChar: afii10028
Encoding: 1050 1050 140
Width: 1725
VWidth: 0
Flags: HW
LayerCount: 2
Fore
SplineSet
1622.11035156 0 m 2
 1136.88964844 0 l 2
 1086.79980469 0 1053.35449219 24.7109375 1034.53027344 71.1220703125 c 2
 775.348632812 710.12890625 l 1
 770.705161356 718.008840781 762.169104262 723.039033718 754.354495016 723.039033718 c 0
 745.333253364 723.039033718 737.273453605 716.335516299 737.273453605 699.57401427 c 0
 737.273453605 698.677261663 737.296523397 697.751719804 737.34375 696.796875 c 2
 745 542 l 1
 745 75.8876953125 l 2
 745 28.3974609375 716.602539062 0 669.11328125 0 c 2
 215.88671875 0 l 2
 168.397460938 0 140 28.3974609375 140 75.8876953125 c 2
 140 1519.11035156 l 2
 140 1566.59960938 168.397460938 1595 215.88671875 1595 c 2
 669.11328125 1595 l 2
 716.602539062 1595 745 1566.59960938 745 1519.11035156 c 2
 745 994 l 1
 736.228515625 867.69921875 l 2
 736.191832507 867.170236218 736.173866293 866.650274944 736.173866293 866.139448526 c 0
 736.173866293 853.730772319 746.775206348 846.712308654 757.217756018 846.712308654 c 0
 765.61132288 846.712308654 773.902299936 851.246732006 776.502929688 861.161132812 c 2
 790.75390625 915.466796875 l 2
 800.629882812 953.10546875 820.588867188 1015.87011719 834.264648438 1052.29980469 c 2
 1011.33007812 1523.95019531 l 2
 1028.94042969 1570.86035156 1063.79003906 1595 1113.88964844 1595 c 2
 1581.11035156 1595 l 2
 1612.8239641 1595 1631.8826721 1577.52330782 1631.8826721 1552.52196661 c 0
 1631.8826721 1544.34959133 1629.84627043 1535.3732157 1625.54980469 1525.94042969 c 2
 1339.70019531 898.237304688 l 2
 1331.43394281 880.09027432 1327.30136815 862.005181796 1327.30136815 843.91742988 c 0
 1327.30136815 825.879435007 1331.41123774 807.838795353 1339.62988281 789.731445312 c 2
 1666.63964844 69.1044921875 l 2
 1670.91713034 59.6814525848 1672.94474512 50.715243887 1672.94474512 42.5507054088 c 0
 1672.94474512 17.5026758322 1653.86074976 0 1622.11035156 0 c 2
EndSplineSet
EndChar

StartChar: afii10029
Encoding: 1051 1051 141
Width: 1788
VWidth: 0
Flags: HW
LayerCount: 2
Fore
SplineSet
236 1595 m 2
 1551 1595 l 2
 1599 1595 1622 1566 1627 1519 c 0
 1648 1325 1648 1069 1648 810 c 0
 1648 548 1648 283 1627 76 c 0
 1622 28 1599 0 1551 0 c 2
 1089 0 l 2
 1041 0 1013 28 1013 76 c 2
 1013 1335.5 l 2
 1013 1373.5 1011 1375.5 973 1375.5 c 2
 814 1375.5 l 2
 776 1375.5 774 1373.5 774 1335.5 c 2
 773 407.6 l 2
 773 89.5996 537.286 -25.4004 232 -25.4004 c 0
 174.098 -25.4004 113.129 -20.8018 50.9209 -12.334 c 0
 4.09668 -5.95996 -24 26.2197 -24 73.4766 c 2
 -24 195.712 l 2
 -24 243.202 4.39746 271.6 51.8867 271.6 c 2
 99.4043 271.6 l 2
 136.699 271.6 159 293.9 159 331.195 c 0
 159 552.646 142.998 646.56 142.998 990.704 c 0
 142.998 1282.56 147.22 1339.93 160 1519 c 0
 164 1565 188 1595 236 1595 c 2
EndSplineSet
EndChar

StartChar: afii10033
Encoding: 1055 1055 145
Width: 1788
VWidth: 0
Flags: HW
LayerCount: 2
Fore
SplineSet
236 1595 m 2
 1551 1595 l 2
 1599 1595 1622 1566 1627 1519 c 0
 1648 1325 1648 1069 1648 810 c 0
 1648 548 1648 283 1627 76 c 0
 1622 28 1599 0 1551 0 c 2
 1089 0 l 2
 1041 0 1013 28 1013 76 c 2
 1013 1335.5 l 2
 1013 1373.5 1011 1375.5 973 1375.5 c 2
 814 1375.5 l 2
 776 1375.5 774 1373.5 774 1335.5 c 2
 774 76 l 2
 774 28 746 0 698 0 c 2
 236 0 l 2
 188 0 164 29 160 76 c 0
 141 305 140 543 140 790 c 0
 140 1025 140 1268 160 1519 c 0
 164 1565 188 1595 236 1595 c 2
EndSplineSet
EndChar

StartChar: afii10037
Encoding: 1059 1059 149
Width: 1509
VWidth: 0
Flags: HW
LayerCount: 2
Fore
SplineSet
982.352 0 m 2
 530.352 0 l 2
 482.352 0 458.352 30 454.352 76 c 0
 445.352 169 439.352 338 436.352 532 c 1
 36.3518 1524 l 2
 20.3518 1564 41.3518 1595 84.3518 1595 c 2
 492.352 1595 l 2
 542.352 1595 575.352 1570 588.352 1522 c 2
 738.352 988 l 1
 739.352 980 744.352 975 753.352 975 c 2
 755.352 975 l 2
 763.352 975 768.352 980 769.352 988 c 1
 924.352 1522 l 2
 937.352 1570 970.352 1595 1020.35 1595 c 2
 1424.35 1595 l 2
 1467.35 1595 1489.35 1564 1473.35 1524 c 2
 1076.35 528 l 1
 1073.35 355 1067.35 194 1058.35 76 c 0
 1055.35 29 1030.35 0 982.352 0 c 2
EndSplineSet
EndChar

StartChar: afii10038
Encoding: 1060 1060 150
Width: 2336
VWidth: 0
Flags: HW
LayerCount: 2
Fore
SplineSet
993 1595 m 2
 1340 1595 l 2
 1388 1595 1411 1565 1416 1519 c 0
 1419.44 1486.33 1422.46 1445.77 1425.05 1399 c 1
 1484 1399 l 2
 2085 1399 2222 1429 2222 803 c 0
 2222 158 2104 193 1484 193 c 2
 1423.14 193 l 1
 1421.01 150.747 1418.63 111.472 1416 76 c 0
 1413 29 1388 0 1340 0 c 2
 993 0 l 2
 945 0 921 30 917 76 c 0
 914.117 107.045 911.48 146.696 909.122 193 c 1
 852 193 l 2
 232 193 114 158 114 803 c 0
 114 1429 251 1399 852 1399 c 2
 906.796 1399 l 1
 909.637 1452.29 913.038 1493.81 917 1519 c 0
 924 1565 945 1595 993 1595 c 2
899.563 482.458 m 1
 897.249 595.564 896 719.095 896 842 c 0
 896 934.614 896.689 1027.03 898.069 1113 c 1
 787 1113 l 2
 685 1113 684 1113 684 796 c 0
 684 486 685 484 787 484 c 1
 899.563 482.458 l 1
1433.14 482.413 m 1
 1549 484 l 1
 1651 484 1652 486 1652 796 c 0
 1652 1113 1651 1113 1549 1113 c 2
 1434.66 1113 l 1
 1436.22 1027.31 1437 935.549 1437 842 c 0
 1437 721.979 1435.71 598.836 1433.14 482.413 c 1
EndSplineSet
EndChar

StartChar: afii10040
Encoding: 1062 1062 152
Width: 1788
VWidth: 0
Flags: HW
LayerCount: 2
Fore
SplineSet
1377.27441406 109 m 6
 1742.11328125 109 l 6
 1789.60351562 109 1818 80.603515625 1818 33.11328125 c 6
 1818 -334.11328125 l 6
 1818 -381.603105244 1789.60351562 -410 1742.11328125 -410 c 6
 1407.27441406 -410 l 6
 1359.78417969 -410 1331.38671875 -381.603105244 1331.38671875 -334.11328125 c 6
 1301.38671875 33.11328125 l 6
 1297.51953125 80.4462890625 1329.78417969 109 1377.27441406 109 c 6
1552 0 m 2
 237 0 l 2
 189 0 166 29 161 76 c 0
 140 270 140 526 140 785 c 0
 140 1047 140 1312 161 1519 c 0
 166 1567 189 1595 237 1595 c 2
 699 1595 l 2
 747 1595 775 1567 775 1519 c 2
 775 311.5 l 2
 775 273.5 777 271.5 815 271.5 c 2
 974 271.5 l 2
 1012 271.5 1014 273.5 1014 311.5 c 2
 1014 1519 l 2
 1014 1567 1042 1595 1090 1595 c 2
 1552 1595 l 2
 1600 1595 1624 1566 1628 1519 c 0
 1647 1290 1648 1052 1648 805 c 0
 1648 570 1648 327 1648 76 c 0
 1642.94736842 30 1612.63157895 0 1552 0 c 2
EndSplineSet
EndChar

StartChar: afii10041
Encoding: 1063 1063 153
Width: 1550
VWidth: 0
Flags: HW
LayerCount: 2
Fore
SplineSet
882 1302.4 m 2
 882 1339.7 859.699 1362 822.404 1362 c 2
 768.596 1362 l 2
 731.301 1362 709 1339.7 709 1302.4 c 2
 709 687.596 l 2
 709 650.301 731.301 628 768.596 628 c 2
 822.404 628 l 2
 859.699 628 882 650.301 882 687.596 c 2
 882 1302.4 l 2
1485 75.8877 m 2
 1485 28.3975 1456.6 0 1409.11 0 c 2
 956.887 0 l 2
 909.397 0 881 28.3975 881 75.8877 c 2
 881 342.404 l 2
 881 379.699 858.699 402 821.404 402 c 2
 729 402 l 2
 419 402 104 428 104 793 c 2
 104 1204 l 2
 104 1559 414 1595 730 1595 c 2
 1409.11 1595 l 2
 1456.6 1595 1485 1566.6 1485 1519.11 c 2
 1485 75.8877 l 2
EndSplineSet
EndChar

StartChar: afii10042
Encoding: 1064 1064 154
Width: 1788
VWidth: 0
Flags: HW
LayerCount: 2
Fore
SplineSet
1552 0 m 2
 237 0 l 2
 189 0 166 29 161 76 c 0
 140 270 140 526 140 785 c 0
 140 1047 140 1312 161 1519 c 0
 166 1567 189 1595 237 1595 c 2
 699 1595 l 2
 747 1595 775 1567 775 1519 c 2
 775 259.5 l 2
 775 221.5 777 219.5 815 219.5 c 2
 974 219.5 l 2
 1012 219.5 1014 221.5 1014 259.5 c 2
 1014 1519 l 2
 1014 1567 1042 1595 1090 1595 c 2
 1552 1595 l 2
 1600 1595 1624 1566 1628 1519 c 0
 1647 1290 1648 1052 1648 805 c 0
 1648 570 1648 327 1628 76 c 0
 1624 30 1600 0 1552 0 c 2
EndSplineSet
EndChar

StartChar: afii10043
Encoding: 1065 1065 155
Width: 1788
VWidth: 0
Flags: HW
LayerCount: 2
Fore
SplineSet
1552 0 m 2
 237 0 l 2
 189 0 166 29 161 76 c 0
 140 270 140 526 140 785 c 0
 140 1047 140 1312 161 1519 c 0
 166 1567 189 1595 237 1595 c 2
 699 1595 l 2
 747 1595 775 1567 775 1519 c 2
 775 259.5 l 2
 775 221.5 777 219.5 815 219.5 c 2
 974 219.5 l 2
 1012 219.5 1014 221.5 1014 259.5 c 2
 1014 1519 l 2
 1014 1567 1042 1595 1090 1595 c 2
 1552 1595 l 2
 1600 1595 1624 1566 1628 1519 c 0
 1647 1290 1648 1052 1648 805 c 0
 1648 570 1648 327 1628 76 c 0
 1624 30 1600 0 1552 0 c 2
EndSplineSet
EndChar

StartChar: afii10044
Encoding: 1066 1066 156
Width: 1550
VWidth: 0
Flags: HW
LayerCount: 2
Fore
SplineSet
707 262.6 m 2
 707 244.075 718.075 233 736.596 233 c 2
 820.404 233 l 2
 857.699 233 880 255.3 880 292.6 c 2
 880 697.404 l 2
 880 734.699 857.699 757 820.404 757 c 2
 736.596 757 l 2
 718.075 757 707 745.925 707 727.404 c 2
 707 262.6 l 2
104 1519.11 m 2
 104 1566.6 132.397 1595 179.887 1595 c 2
 632.113 1595 l 2
 679.603 1595 708 1566.6 708 1519.11 c 2
 708 1002.6 l 2
 708 990.333 719.075 983 737.596 983 c 2
 860 983 l 2
 1170 983 1485 957 1485 592 c 2
 1485 391 l 2
 1485 36 1175 0 859 0 c 2
 179.887 0 l 2
 132.397 0 104 28.4004 104 75.8896 c 2
 104 1519.11 l 2
EndSplineSet
EndChar

StartChar: afii10045
Encoding: 1067 1067 157
Width: 1550
VWidth: 0
Flags: HW
LayerCount: 2
Fore
SplineSet
707 262.6 m 2
 707 244.075 718.075 233 736.596 233 c 2
 820.404 233 l 2
 857.699 233 880 255.3 880 292.6 c 2
 880 697.404 l 2
 880 734.699 857.699 757 820.404 757 c 2
 736.596 757 l 2
 718.075 757 707 745.925 707 727.404 c 2
 707 262.6 l 2
104 1519.11 m 2
 104 1566.6 132.397 1595 179.887 1595 c 2
 632.113 1595 l 2
 679.603 1595 708 1566.6 708 1519.11 c 2
 708 1002.6 l 2
 708 990.333 719.075 983 737.596 983 c 2
 860 983 l 2
 1170 983 1485 957 1485 592 c 2
 1485 391 l 2
 1485 36 1175 0 859 0 c 2
 179.887 0 l 2
 132.397 0 104 28.4004 104 75.8896 c 2
 104 1519.11 l 2
EndSplineSet
EndChar

StartChar: afii10046
Encoding: 1068 1068 158
Width: 1550
VWidth: 0
Flags: HW
LayerCount: 2
Fore
SplineSet
707 262.6 m 2
 707 244.075 718.075 233 736.596 233 c 2
 820.404 233 l 2
 857.699 233 880 255.3 880 292.6 c 2
 880 697.404 l 2
 880 734.699 857.699 757 820.404 757 c 2
 736.596 757 l 2
 718.075 757 707 745.925 707 727.404 c 2
 707 262.6 l 2
104 1519.11 m 2
 104 1566.6 132.397 1595 179.887 1595 c 2
 632.113 1595 l 2
 679.603 1595 708 1566.6 708 1519.11 c 2
 708 1002.6 l 2
 708 990.333 719.075 983 737.596 983 c 2
 860 983 l 2
 1170 983 1485 957 1485 592 c 2
 1485 391 l 2
 1485 36 1175 0 859 0 c 2
 179.887 0 l 2
 132.397 0 104 28.4004 104 75.8896 c 2
 104 1519.11 l 2
EndSplineSet
EndChar

StartChar: afii10047
Encoding: 1069 1069 159
Width: 1692
VWidth: 0
Flags: HW
LayerCount: 2
Fore
SplineSet
677 488 m 0
 680 315 696.433 315 792 315 c 2
 828 315 l 2
 921.644 315 930.146 314.157 930.913 687 c 1
 638 687 l 2
 591 687 562 716 562 763 c 2
 562 835 l 2
 562 882 591 911 638 911 c 2
 930.913 911 l 1
 930.072 1280.33 921.185 1282 828 1282 c 2
 792 1282 l 2
 695.105 1282 679 1278.76 677 1098 c 0
 677 1050 653 1022 607 1022 c 2
 169 1022 l 2
 127 1022 105 1058 105 1110 c 1
 132.824 1607.51 313.413 1631 815 1631 c 0
 1416 1631 1553 1568 1553 805 c 0
 1553 19 1435 -39 815 -39 c 0
 288.688 -39 128.986 -13.7314 105 495 c 1
 105 539 125 570 165 570 c 2
 614 570 l 2
 653 570 677 536 677 488 c 0
EndSplineSet
EndChar

StartChar: afii10048
Encoding: 1070 1070 160
Width: 2452
VWidth: 0
Flags: HW
LayerCount: 2
Fore
SplineSet
957.938669849 688 m 1
 794 688 l 2
 756 688 754 686 754 648 c 2
 754 76 l 2
 754 28 726 0 678 0 c 2
 236 0 l 2
 188 0 164 29 160 76 c 0
 141 305 140 543 140 790 c 0
 140 1025 140 1268 160 1519 c 0
 164 1565 188 1595 236 1595 c 2
 678 1595 l 2
 726 1595 754 1567 754 1519 c 2
 754 950 l 2
 754 912 756 908 794 908 c 2
 957.871761765 908 l 1
 969.872455972 1573.78224658 1110.09807405 1631 1644 1631 c 0
 2177.56 1631 2338 1573 2338 808 c 0
 2338 21 2205.54 -39 1644 -39 c 0
 1096.1657276 -39 969.634499625 13.1147768647 957.938669849 688 c 1
1631 315 m 2
 1667 315 l 2
 1780 315 1783 315 1783 799 c 0
 1783 1283 1780 1282 1667 1282 c 2
 1631 1282 l 2
 1529 1282 1528 1280 1528 796 c 0
 1528 314 1529 315 1631 315 c 2
EndSplineSet
EndChar

StartChar: afii10049
Encoding: 1071 1071 161
Width: 1680
VWidth: 0
Flags: HW
LayerCount: 2
Fore
SplineSet
980 76 m 2
 980 609 l 2
 980 647 980 649 942 649 c 2
 878 649 l 2
 840 649 818 627 818 589 c 1
 747 76 l 1
 747 28 719 0 671 0 c 2
 216 0 l 2
 168 0 134 28 140 76 c 2
 203 562 l 2
 217 673 271 786 401 821 c 1
 258 874 220 991 220 1190 c 0
 220 1502 388 1595 677 1595 c 2
 1514 1595 l 2
 1562 1595 1586 1565 1591 1519 c 0
 1612 1310 1613 1036 1613 769 c 0
 1613 511 1607 259 1591 78 c 0
 1587 32 1567 0 1519 0 c 2
 1056 0 l 2
 1008 0 980 28 980 76 c 2
980 1318 m 2
 980 1356 978 1358 940 1358 c 2
 867 1358 l 2
 829 1358 807 1336 807 1298 c 2
 807 941 l 2
 807 903 829 881 867 881 c 2
 942 881 l 2
 980 881 980 883 980 921 c 2
 980 1318 l 2
EndSplineSet
EndChar

StartChar: afii10050
Encoding: 1168 1168 162
Width: 1313
VWidth: 0
Flags: HW
LayerCount: 2
Fore
SplineSet
957 76 m 0
 954 29 929 0 881 0 c 2
 429 0 l 2
 381 0 357 30 353 76 c 0
 340 216 332 531 332 842 c 0
 332 1232.89 341 1463.5 343 1519 c 0
 344.729 1566.97 371 1595 419 1595 c 2
 1297 1595 l 2
 1345 1595 1373 1567 1373 1519 c 2
 1373 1402 l 2
 1373 1354 1345 1326 1297 1326 c 2
 968 1326 l 1
 975 1198 978 1033 978 842 c 0
 978 562 971 265 957 76 c 0
EndSplineSet
EndChar

StartChar: afii10053
Encoding: 1028 1028 165
Width: 1692
VWidth: 0
Flags: HW
LayerCount: 2
Fore
SplineSet
981 488 m 0
 981 536 1005 570 1044 570 c 2
 1493 570 l 2
 1533 570 1553 539 1553 495 c 1
 1529.01 -13.7319 1369.31 -39 843 -39 c 0
 223 -39 105 19 105 805 c 0
 105 1568 242 1631 843 1631 c 0
 1344.59 1631 1525.18 1607.51 1553 1110 c 1
 1553 1058 1531 1022 1489 1022 c 2
 1051 1022 l 2
 1005 1022 981 1050 981 1098 c 0
 979 1278.76 962.895 1282 866 1282 c 2
 830 1282 l 2
 736.815 1282 727.915 1280.33 727.075 911 c 1
 1020 911 l 2
 1067 911 1096 882 1096 835 c 2
 1096 763 l 2
 1096 716 1067 687 1020 687 c 2
 727.075 687 l 1
 727.842 314.157 736.356 315 830 315 c 2
 866 315 l 2
 961.567 315 978 315 981 488 c 0
EndSplineSet
EndChar

StartChar: afii10058
Encoding: 1033 1033 170
Width: 2534
VWidth: 0
Flags: HW
LayerCount: 2
Fore
SplineSet
1672 685.52 m 1
 1670 262.6 l 2
 1670 244.075 1677.33 233 1689.6 233 c 2
 1783.4 233 l 2
 1820.7 233 1843 255.3 1843 292.6 c 2
 1843 647.404 l 2
 1843 684.699 1820.7 707 1783.4 707 c 2
 1689.6 707 l 2
 1680.19 707 1673.91 699.13 1672 685.52 c 1
260 1595 m 2
 1575 1595 l 2
 1623 1595 1646 1566 1651 1519 c 0
 1665.64 1352.51 1670.07 1148.92 1671.42 932.85 c 1
 1730.6 933 l 1
 1823 933 l 2
 2133 933 2448 907 2448 542 c 2
 2448 391 l 2
 2448 36 2138 0 1822 0 c 2
 1113 0 l 2
 1065 0 1037 28 1037 76 c 2
 1037 1335.5 l 2
 1037 1373.5 1035 1375.5 997 1375.5 c 2
 838 1375.5 l 2
 800 1375.5 798 1373.5 798 1335.5 c 2
 797 407.6 l 2
 797 89.5996 561.286 -25.4004 256 -25.4004 c 0
 198.098 -25.4004 137.129 -20.8018 74.9209 -12.334 c 0
 28.0967 -5.95996 0 26.2197 0 73.4766 c 2
 0 195.712 l 2
 0 243.202 28.3975 271.6 75.8867 271.6 c 2
 123.404 271.6 l 2
 160.699 271.6 183 293.9 183 331.195 c 0
 183 552.646 166.998 646.56 166.998 990.704 c 0
 166.998 1282.56 171.22 1339.93 184 1519 c 0
 188 1565 212 1595 260 1595 c 2
EndSplineSet
EndChar

StartChar: afii10059
Encoding: 1034 1034 171
Width: 2397
VWidth: 0
Flags: HW
LayerCount: 2
Fore
SplineSet
1648 685.52 m 1
 1646 262.6 l 2
 1646 244.075 1653.33 233 1665.6 233 c 2
 1759.4 233 l 2
 1796.7 233 1819 255.3 1819 292.6 c 2
 1819 647.404 l 2
 1819 684.699 1796.7 707 1759.4 707 c 2
 1665.6 707 l 2
 1656.19 707 1649.91 699.13 1648 685.52 c 1
1089 1595 m 2
 1551 1595 l 2
 1599 1595 1622 1566 1627 1519 c 0
 1643.28 1354.53 1646.94 1149.3 1647.76 933.39 c 1
 1799 933 l 2
 2109 932.202 2424 907 2424 542 c 2
 2424 391 l 2
 2424 36 2114 0 1798 0 c 2
 1551 0 l 1
 1329 0 l 1
 1089 0 l 2
 1041 0 1013 28 1013 76 c 2
 1013 648 l 2
 1013 686 1011 688 973 688 c 2
 814 688 l 2
 776 688 774 686 774 648 c 2
 774 76 l 2
 774 28 746 0 698 0 c 2
 236 0 l 2
 188 0 164 29 160 76 c 0
 141 305 140 543 140 790 c 0
 140 1025 140 1268 160 1519 c 0
 164 1565 188 1595 236 1595 c 2
 698 1595 l 2
 746 1595 774 1567 774 1519 c 2
 774 950 l 2
 774 912 776 908 814 908 c 2
 973 908 l 2
 1011 908 1013 912 1013 950 c 2
 1013 1519 l 2
 1013 1567 1041 1595 1089 1595 c 2
EndSplineSet
EndChar

StartChar: afii10067
Encoding: 1074 1074 177
Width: 1666
VWidth: 0
Flags: HW
LayerCount: 2
Fore
SplineSet
971 0 m 2
 241 0 l 2
 197 0 174 25 171 62 c 0
 156 264 148 468 148 667 c 0
 148 866 156 1061 171 1240 c 0
 175 1279 197 1302 241 1302 c 2
 975 1302 l 2
 1214 1302 1434 1266 1434 995 c 0
 1434 832 1401 743 1154 714 c 1
 1437 663 1472 528 1472 375 c 0
 1472 74 1329 0 971 0 c 2
764 738 m 2
 856 738 l 2
 891 738 911 756 911 787 c 2
 911 997 l 2
 911 1028 891 1046 856 1046 c 2
 764 1046 l 2
 729 1046 727 1044 727 1013 c 2
 727 771 l 2
 727 740 729 738 764 738 c 2
764 257 m 2
 856 257 l 2
 891 257 911 275 911 306 c 2
 911 563 l 2
 911 594 891 612 856 612 c 2
 764 612 l 2
 729 612 727 610 727 579 c 2
 727 290 l 2
 727 259 729 257 764 257 c 2
EndSplineSet
EndChar

StartChar: afii10068
Encoding: 1075 1075 178
Width: 1313
VWidth: 0
Flags: HW
LayerCount: 2
Fore
SplineSet
915 62 m 0
 912 24 889 0 845 0 c 2
 429 0 l 2
 385 0 363 24 359 62 c 0
 347 176 340 433 340 687 c 0
 340 1006 348 1195 350 1240 c 0
 352 1279 376 1302 420 1302 c 2
 1228 1302 l 2
 1272 1302 1297 1279 1297 1240 c 2
 1297 1144 l 2
 1297 1105 1272 1082 1228 1082 c 2
 925 1082 l 1
 931 978 934 843 934 687 c 0
 934 459 928 216 915 62 c 0
EndSplineSet
EndChar

StartChar: afii10069
Encoding: 1076 1076 179
Width: 1866
VWidth: 0
Flags: HW
LayerCount: 2
Fore
SplineSet
453 1302 m 2
 1528 1302 l 2
 1572 1302 1593 1278 1598 1240 c 0
 1617 1082 1617 872 1617 661 c 0
 1617 502 1617 343 1608 204 c 1
 1730 204 l 2
 1774 204 1792 180 1800 142 c 1
 1804 95 1805 32 1805 -31 c 0
 1805 -123.60130719 1804 -214.549019608 1800 -284 c 1
 1793 -323 1774 -346 1730 -346 c 2
 1360 -346 l 2
 1316 -346 1290 -323 1290 -284 c 2
 1290 -33 l 2
 1290 -2 1288 0 1253 0 c 2
 592 0 l 2
 557 0 555 -2 555 -33 c 2
 555 -284 l 2
 555 -323 529 -346 485 -346 c 2
 117 -346 l 2
 73 -346 53 -322 47 -284 c 1
 45 -203.123287671 44 -120.561643836 44 -38 c 0
 44 22 45 83 47 142 c 1
 52 179 73 204 117 204 c 2
 240 204 l 1
 289 571 342 970 383 1240 c 1
 387 1278 409 1302 453 1302 c 2
798 220 m 1
 1051 220 l 1
 1051 1090 l 2
 1051 1121 1049 1122 1014 1122 c 2
 932 1122 l 2
 897 1122 899 1121 896 1090 c 2
 798 220 l 1
EndSplineSet
EndChar

StartChar: afii10072
Encoding: 1078 1078 182
Width: 1920
VWidth: 0
Flags: HW
LayerCount: 2
Fore
SplineSet
493 0 m 2
 108 0 l 2
 79 0 61 16 61 38 c 0
 61 47 64 56 70 66 c 2
 365 600 l 2
 375 618 380 635 380 652 c 0
 380 669 375 687 365 704 c 2
 70 1234 l 2
 64 1244 61 1253 61 1262 c 0
 61 1284 79 1300 108 1300 c 2
 498 1300 l 2
 548 1300 580 1274 599 1228 c 2
 701 975 l 1
 706 966 713 960 719 958 c 1
 719 1224 l 2
 719 1271 748 1300 795 1300 c 2
 1124 1300 l 2
 1171 1300 1200 1271 1200 1224 c 2
 1200 958 l 1
 1207 959 1214 965 1220 975 c 1
 1322 1228 l 2
 1341 1274 1373 1300 1423 1300 c 2
 1813 1300 l 2
 1842 1300 1859 1284 1859 1262 c 0
 1859 1253 1857 1244 1851 1234 c 2
 1556 704 l 2
 1546 687 1541 669 1541 652 c 0
 1541 635 1546 618 1556 600 c 2
 1851 66 l 2
 1857 56 1859 47 1859 38 c 0
 1859 16 1842 0 1813 0 c 2
 1428 0 l 2
 1378 0 1346 26 1327 72 c 2
 1221 332 l 1
 1214 343 1207 349 1200 350 c 1
 1200 76 l 2
 1200 29 1171 0 1124 0 c 2
 795 0 l 2
 748 0 719 29 719 76 c 2
 719 350 l 1
 713 349 706 342 700 332 c 1
 594 72 l 2
 575 26 543 0 493 0 c 2
EndSplineSet
EndChar

StartChar: afii10073
Encoding: 1079 1079 183
Width: 1436
VWidth: 0
Flags: HW
LayerCount: 2
Fore
SplineSet
123.84 903.189 m 0
 123.84 1225.51 327.16 1330.77 714.48 1330.77 c 0
 1112.84 1330.77 1312.48 1227.96 1312.48 907.27 c 0
 1312.48 805.401 1260.11 733.723 1176.92 689.787 c 0
 1152.65 676.974 1152.83 660.189 1177.37 647.783 c 0
 1269.06 601.432 1314.32 522.211 1314.32 425.014 c 0
 1314.32 63.5254 1079.72 -32.7627 716.32 -32.7627 c 0
 306 -32.7627 122.92 114.934 122.92 420.934 c 0
 122.92 434.051 123.167 447.388 123.79 460.943 c 0
 124.871 484.459 142.265 499.27 168.799 499.27 c 2
 564.624 499.27 l 2
 608.314 499.27 634.44 476.098 634.44 437.346 c 2
 634.44 239.452 l 2
 634.44 209.02 654.957 190.821 689.269 190.821 c 2
 737.852 190.821 l 2
 772.163 190.821 792.68 209.02 792.68 239.452 c 2
 792.68 527.344 l 2
 792.68 557.776 772.163 575.974 737.852 575.974 c 2
 624.216 575.974 l 2
 580.525 575.974 554.4 599.146 554.4 637.897 c 2
 554.4 696.834 l 2
 554.4 735.586 580.525 758.758 624.216 758.758 c 2
 737.852 758.758 l 2
 772.163 758.758 792.68 776.955 792.68 807.388 c 2
 792.68 1061 l 2
 792.68 1091.44 772.163 1109.64 737.852 1109.64 c 2
 689.269 1109.64 l 2
 654.957 1109.64 634.44 1091.44 634.44 1061 c 2
 634.44 896.572 l 2
 634.44 857.82 608.314 834.646 564.624 834.646 c 2
 163.687 834.646 l 2
 140.334 834.646 125.458 847.358 124.591 868.053 c 0
 124.09 879.99 123.84 891.7 123.84 903.189 c 0
EndSplineSet
EndChar

StartChar: afii10074
Encoding: 1080 1080 184
Width: 1715
VWidth: 0
Flags: HW
LayerCount: 2
Fore
SplineSet
238 0 m 2
 194 0 170 23 168 62 c 0
 156 285 148 466 148 676 c 0
 148 856 153 1066 168 1240 c 0
 171 1278 194 1302 238 1302 c 2
 507 1302 l 2
 551 1302 577 1279 577 1240 c 2
 577 730 l 2
 577 719 583 713 589 713 c 0
 594 713 598 716 603 723 c 2
 939 1248 l 2
 962 1284 996 1302 1043 1302 c 2
 1379 1302 l 2
 1423 1302 1446 1279 1449 1240 c 0
 1462 1054 1468 863 1468 667 c 0
 1468 471 1462 269 1449 62 c 0
 1446 23 1423 0 1379 0 c 2
 1106 0 l 2
 1062 0 1037 23 1037 62 c 2
 1037 531 l 2
 1037 542 1031 548 1025 548 c 0
 1020 548 1015 545 1010 538 c 2
 699 54 l 2
 675 18 641 0 594 0 c 2
 238 0 l 2
EndSplineSet
EndChar

StartChar: afii10076
Encoding: 1082 1082 186
Width: 1725
VWidth: 0
Flags: HW
LayerCount: 2
Fore
SplineSet
1510 0 m 2
 1063 0 l 2
 1017 0 985.935546875 20.40625 969 58 c 2
 737 573 l 1
 732.79446677 591.726469629 724.751629664 600.970703125 716.861328125 600.970703125 c 0
 706.063211572 600.970703125 695.55078125 583.656672581 695.55078125 549.638671875 c 0
 695.55078125 545.654564426 695.695042306 541.441347155 696 537 c 2
 703 435 l 1
 703 62 l 2
 703 23 677 0 633 0 c 2
 216 0 l 2
 172 0 146 23 146 62 c 2
 146 1240 l 2
 146 1279 172 1302 216 1302 c 2
 633 1302 l 2
 677 1302 703 1279 703 1240 c 2
 703 831 l 1
 695 728 l 2
 694 719 700 712 710 711 c 1
 711 711 l 1
 721 710 729 714 732 723 c 2
 745 767 l 2
 754 798 772 849 785 879 c 2
 948 1244 l 2
 964.8125 1281.64746094 996 1302 1042 1302 c 2
 1472 1302 l 2
 1501.36882591 1302 1518.8289821 1287.25593273 1518.8289821 1266.73558403 c 0
 1518.8289821 1260.0061679 1516.95125091 1252.65554864 1513 1245 c 2
 1250 733 l 2
 1242.5 718 1238.75 703.25 1238.75 688.5 c 0
 1238.75 673.75 1242.5 659 1250 644 c 2
 1551 56 l 2
 1554.95125091 48.3444513644 1556.8289821 41.0548179728 1556.8289821 34.4172522821 c 0
 1556.8289821 14.1769877603 1539.36882591 0 1510 0 c 2
EndSplineSet
EndChar

StartChar: afii10077
Encoding: 1083 1083 187
Width: 1731
VWidth: 0
Flags: HW
LayerCount: 2
Fore
SplineSet
304 1302 m 2
 1514 1302 l 2
 1558 1302 1579 1278 1584 1240 c 0
 1603 1082 1603 872 1603 661 c 0
 1603 447 1603 231 1584 62 c 0
 1579 23 1558 0 1514 0 c 2
 1089 0 l 2
 1045 0 1019 23 1019 62 c 2
 1019 1090 l 2
 1019 1121 1017 1122 982 1122 c 2
 836 1122 l 2
 801 1122 799 1121 799 1090 c 2
 798 333 l 2
 798 74 582 -21 301 -21 c 0
 248 -21 191 -17 134 -10 c 0
 91 -5 65 21 65 60 c 2
 65 160 l 2
 65 199 91 222 135 222 c 2
 179 222 l 2
 213 222 233 240 233 270 c 0
 233 451 219 527 219 808 c 0
 219 1046 222 1094 234 1240 c 0
 238 1278 260 1302 304 1302 c 2
EndSplineSet
EndChar

StartChar: afii10078
Encoding: 1084 1084 188
Width: 1886
VWidth: 0
Flags: HW
LayerCount: 2
Fore
SplineSet
1354 62 m 1
 1329 766 l 1
 1179 61 l 2
 1171 22 1144 0 1099 0 c 2
 790 0 l 2
 745 0 718 22 711 61 c 2
 570 766 l 1
 546 62 l 1
 543 23 515 0 471 0 c 2
 196 0 l 2
 155 0 129 22 129 58 c 2
 129 58 128 86 128 144 c 0
 128 293 135 644 190 1240 c 0
 194 1279 220 1302 264 1302 c 2
 750 1302 l 2
 795 1302 824 1279 830 1240 c 2
 938 587 l 2
 939 583 943 580 949 580 c 0
 954 580 959 583 959 587 c 2
 1055 1240 l 2
 1061 1279 1090 1302 1135 1302 c 2
 1622 1302 l 2
 1666 1302 1692 1279 1696 1240 c 0
 1751 621 1758 276 1758 135 c 0
 1758 86 1757 61 1757 58 c 0
 1757 22 1731 0 1690 0 c 2
 1429 0 l 2
 1385 0 1357 23 1354 62 c 1
EndSplineSet
EndChar

StartChar: afii10079
Encoding: 1085 1085 189
Width: 1643
VWidth: 0
Flags: HW
LayerCount: 2
Fore
SplineSet
1001 1302 m 2
 1426 1302 l 2
 1470 1302 1491 1278 1496 1240 c 0
 1515 1082 1515 872 1515 661 c 0
 1515 447 1515 231 1496 62 c 0
 1491 23 1470 0 1426 0 c 2
 1001 0 l 2
 957 0 931 23 931 62 c 2
 931 529 l 2
 931 560 929 561 894 561 c 2
 748 561 l 2
 713 561 711 560 711 529 c 2
 711 62 l 2
 711 23 685 0 641 0 c 2
 216 0 l 2
 172 0 150 24 146 62 c 0
 129 249 128 443 128 645 c 0
 128 837 128 1035 146 1240 c 0
 150 1278 172 1302 216 1302 c 2
 641 1302 l 2
 685 1302 711 1279 711 1240 c 2
 711 775 l 2
 711 744 713 741 748 741 c 2
 894 741 l 2
 929 741 931 744 931 775 c 2
 931 1240 l 2
 931 1279 957 1302 1001 1302 c 2
EndSplineSet
EndChar

StartChar: afii10081
Encoding: 1087 1087 191
Width: 1643
VWidth: 0
Flags: HW
LayerCount: 2
Fore
SplineSet
216 1302 m 2
 1426 1302 l 2
 1470 1302 1491 1278 1496 1240 c 0
 1515 1082 1515 872 1515 661 c 0
 1515 447 1515 231 1496 62 c 0
 1491 23 1470 0 1426 0 c 2
 1001 0 l 2
 957 0 931 23 931 62 c 2
 931 1090 l 2
 931 1121 929 1122 894 1122 c 2
 748 1122 l 2
 713 1122 711 1121 711 1090 c 2
 711 62 l 2
 711 23 685 0 641 0 c 2
 216 0 l 2
 172 0 150 24 146 62 c 0
 129 249 128 443 128 645 c 0
 128 837 128 1035 146 1240 c 0
 150 1278 172 1302 216 1302 c 2
EndSplineSet
EndChar

StartChar: afii10084
Encoding: 1090 1090 194
Width: 1313
VWidth: 0
Flags: HW
LayerCount: 2
Fore
SplineSet
915 62 m 0
 912 24 889 0 845 0 c 2
 429 0 l 2
 385 0 363 24 359 62 c 0
 347 176 340 433 340 687 c 0
 340 841 342 982 348 1082 c 1
 104 1082 l 2
 60 1082 34 1105 34 1144 c 2
 34 1240 l 2
 34 1279 60 1302 104 1302 c 2
 1172 1302 l 2
 1216 1302 1242 1279 1242 1240 c 2
 1242 1144 l 2
 1242 1105 1216 1082 1172 1082 c 2
 925 1082 l 1
 931 978 934 843 934 687 c 0
 934 459 928 216 915 62 c 0
EndSplineSet
EndChar

StartChar: afii10086
Encoding: 1092 1092 196
Width: 2110
VWidth: 0
Flags: HW
LayerCount: 2
Fore
SplineSet
894 1302 m 2
 1213 1302 l 2
 1257 1302 1278 1278 1283 1240 c 0
 1286 1213 1289 1180 1291 1142 c 1
 1346 1142 l 2
 1899 1142 2025 1166 2025 655 c 0
 2025 129 1916 157 1346 157 c 2
 1290 157 l 1
 1288 123 1285 91 1283 62 c 0
 1280 24 1257 0 1213 0 c 2
 894 0 l 2
 850 0 828 24 824 62 c 0
 821 87 819 119 817 157 c 1
 764 157 l 2
 194 157 85 129 85 655 c 0
 85 1166 211 1142 764 1142 c 2
 815 1142 l 1
 818 1185 820 1219 824 1240 c 0
 830 1278 850 1302 894 1302 c 2
808 394 m 1
 806 486 805 587 805 687 c 0
 805 763 806 838 807 908 c 1
 704 908 l 2
 610 908 610 909 610 650 c 0
 610 397 610 395 704 395 c 2
 808 394 l 1
1299 394 m 1
 1406 395 l 2
 1500 395 1500 397 1500 650 c 0
 1500 909 1500 908 1406 908 c 2
 1300 908 l 1
 1301 838 1302 763 1302 687 c 0
 1302 589 1301 489 1299 394 c 1
EndSplineSet
EndChar

StartChar: afii10088
Encoding: 1094 1094 198
Width: 1788
VWidth: 0
Flags: HW
LayerCount: 2
Fore
SplineSet
1263.27441406 109 m 6
 1628.11328125 109 l 6
 1675.60351562 109 1704 80.603515625 1704 33.11328125 c 6
 1704 -334.11328125 l 6
 1704 -381.603105244 1675.60351562 -410 1628.11328125 -410 c 6
 1293.27441406 -410 l 6
 1245.78417969 -410 1217.38671875 -381.603105244 1217.38671875 -334.11328125 c 6
 1187.38671875 33.11328125 l 6
 1183.51953125 80.4462890625 1215.78417969 109 1263.27441406 109 c 6
1447 0 m 2
 237 0 l 2
 193 0 172 24 167 62 c 0
 148 220 148 430 148 641 c 0
 148 855 148 1071 167 1240 c 0
 172 1279 193 1302 237 1302 c 2
 662 1302 l 2
 706 1302 732 1279 732 1240 c 2
 732 303 l 2
 732 272 734 271 769 271 c 2
 915 271 l 2
 950 271 952 272 952 303 c 2
 952 1240 l 2
 952 1279 978 1302 1022 1302 c 2
 1447 1302 l 2
 1491 1302 1513 1278 1517 1240 c 0
 1534 1053 1535 859 1535 657 c 0
 1535 465 1535 267 1537 62 c 0
 1531.85714286 24 1503.57142857 0 1447 0 c 2
EndSplineSet
EndChar

StartChar: afii10089
Encoding: 1095 1095 199
Width: 1788
VWidth: 0
Flags: HW
LayerCount: 2
Back
SplineSet
1408 1797 m 6
 985 1797 l 6
 937 1797 909 1769 909 1721 c 6
 909 1548 l 5
 904 1321 900 1116 900 890 c 4
 900 834 900 776 901 718 c 5
 891 701 873 692 849 692 c 6
 790 692 l 6
 752 692 730 714 730 752 c 6
 730 1721 l 6
 730 1769 702 1797 654 1797 c 6
 235 1797 l 6
 187 1797 162 1769 159 1721 c 4
 150 1583 146 1427 146 1281 c 4
 146 1113 151 956 159 853 c 4
 179 602 277 471 550 470 c 4
 673 470 825 507 894 566 c 4
 897 569 900 571 903 573 c 5
 905 428 908 285 913 163 c 4
 915 116 941 87 989 87 c 6
 1408 87 l 6
 1456 87 1482 118 1484 163 c 4
 1493 388 1497 630 1497 884 c 4
 1497 996 1496 1111 1495 1227 c 4
 1494 1284 1493 1343 1492 1402 c 4
 1490 1507 1487 1614 1484 1721 c 4
 1483 1769 1456 1797 1408 1797 c 6
EndSplineSet
Fore
SplineSet
952.30078125 430 m 1
 520 430 l 2
 362.610687023 430 154 469.850478378 154 833 c 0
 154 980.495912807 159 1130.20980926 167 1240 c 0
 170 1279 193 1302 237 1302 c 2
 662 1302 l 2
 706 1302 732 1279 732 1240 c 2
 732 692 l 2
 732 612.5625 738.864864865 610 859 610 c 2
 935 610 l 2
 951.081054688 610 952 611 952 642 c 2
 952 1240 l 2
 952 1279 978 1302 1022 1302 c 2
 1447 1302 l 2
 1491 1302 1515 1278 1517 1240 c 0
 1524 1126 1528 1008 1528 889 c 0
 1528 880.601276124 1527.98007526 872.197571062 1527.94057734 863.789939494 c 2
 1528 62 l 2
 1528 23 1502 0 1458 0 c 2
 1033 0 l 2
 989 0 965 24 963 62 c 0
 956 163.008547009 952 267.561253561 952 373 c 0
 952 391.978621301 952.101610861 410.982677816 952.30078125 430 c 1
EndSplineSet
EndChar

StartChar: afii10090
Encoding: 1096 1096 200
Width: 1788
VWidth: 0
Flags: HW
LayerCount: 2
Fore
SplineSet
-426 0 m 6
 -470 0 -492 24 -496 62 c 4
 -514 267 -514 465 -514 657 c 4
 -514 859 -513 1053 -496 1240 c 4
 -492 1278 -470 1302 -426 1302 c 6
 -41 1302 l 6
 3 1302 29 1279 29 1240 c 6
 29 212 l 6
 29 181 31 180 66 180 c 6
 212 180 l 6
 247 180 249 181 249 212 c 6
 249 1240 l 6
 249 1279 275 1302 319 1302 c 6
 702 1302 l 6
 746 1302 772 1279 772 1240 c 6
 772 212 l 6
 772 181 774 180 809 180 c 6
 955 180 l 6
 990 180 992 181 992 212 c 6
 992 1240 l 6
 992 1279 1018 1302 1062 1302 c 6
 1447 1302 l 6
 1491 1302 1513 1278 1517 1240 c 4
 1534 1053 1535 859 1535 657 c 4
 1535 465 1535 267 1517 62 c 4
 1513 24 1491 0 1447 0 c 6
 -426 0 l 6
EndSplineSet
EndChar

StartChar: afii10091
Encoding: 1097 1097 201
Width: 1788
VWidth: 0
Flags: HW
LayerCount: 2
Fore
SplineSet
1263 109 m 2
 1628 109 l 2
 1675 109 1704 80 1704 33 c 2
 1704 -334 l 2
 1704 -381 1675 -410 1628 -410 c 2
 1293 -410 l 2
 1246 -410 1217 -381 1217 -334 c 2
 1187 33 l 2
 1183 80 1216 109 1263 109 c 2
-426 0 m 6
 -470 0 -492 24 -496 62 c 4
 -514 267 -514 465 -514 657 c 4
 -514 859 -513 1053 -496 1240 c 4
 -492 1278 -470 1302 -426 1302 c 6
 -41 1302 l 6
 3 1302 29 1279 29 1240 c 6
 29 212 l 6
 29 181 31 180 66 180 c 6
 212 180 l 6
 247 180 249 181 249 212 c 6
 249 1240 l 6
 249 1279 275 1302 319 1302 c 6
 702 1302 l 6
 746 1302 772 1279 772 1240 c 6
 772 212 l 6
 772 181 774 180 809 180 c 6
 955 180 l 6
 990 180 992 181 992 212 c 6
 992 1240 l 6
 992 1279 1018 1302 1062 1302 c 6
 1447 1302 l 6
 1491 1302 1513 1278 1517 1240 c 4
 1534 1053 1535 859 1535 657 c 4
 1535 465 1535 267 1517 62 c 4
 1513 24 1491 0 1447 0 c 6
 -426 0 l 6
EndSplineSet
EndChar

StartChar: afii10092
Encoding: 1098 1098 202
Width: 1550
VWidth: 0
Flags: HW
LayerCount: 2
Fore
SplineSet
719 214 m 2
 719 199 729 190 746 190 c 2
 823 190 l 2
 857 190 878 209 878 239 c 2
 878 569 l 2
 878 599 857 618 823 618 c 2
 746 618 l 2
 729 618 719 609 719 594 c 2
 719 214 l 2
164 1240 m 2
 164 1279 190 1302 234 1302 c 2
 650 1302 l 2
 694 1302 720 1279 720 1240 c 2
 720 818 l 2
 720 808 730 802 747 802 c 2
 860 802 l 2
 1145 802 1435 781 1435 483 c 2
 1435 319 l 2
 1435 29 1150 0 859 0 c 2
 234 0 l 2
 190 0 164 23 164 62 c 2
 164 1240 l 2
EndSplineSet
EndChar

StartChar: afii10093
Encoding: 1099 1099 203
Width: 1550
VWidth: 0
Flags: HW
LayerCount: 2
Fore
SplineSet
719 214 m 2
 719 199 729 190 746 190 c 2
 823 190 l 2
 857 190 878 209 878 239 c 2
 878 569 l 2
 878 599 857 618 823 618 c 2
 746 618 l 2
 729 618 719 609 719 594 c 2
 719 214 l 2
164 1240 m 2
 164 1279 190 1302 234 1302 c 2
 650 1302 l 2
 694 1302 720 1279 720 1240 c 2
 720 818 l 2
 720 808 730 802 747 802 c 2
 860 802 l 2
 1145 802 1435 781 1435 483 c 2
 1435 319 l 2
 1435 29 1150 0 859 0 c 2
 234 0 l 2
 190 0 164 23 164 62 c 2
 164 1240 l 2
EndSplineSet
EndChar

StartChar: afii10094
Encoding: 1100 1100 204
Width: 1550
VWidth: 0
Flags: HW
LayerCount: 2
Fore
SplineSet
719 214 m 2
 719 199 729 190 746 190 c 2
 823 190 l 2
 857 190 878 209 878 239 c 2
 878 569 l 2
 878 599 857 618 823 618 c 2
 746 618 l 2
 729 618 719 609 719 594 c 2
 719 214 l 2
164 1240 m 2
 164 1279 190 1302 234 1302 c 2
 650 1302 l 2
 694 1302 720 1279 720 1240 c 2
 720 818 l 2
 720 808 730 802 747 802 c 2
 860 802 l 2
 1145 802 1435 781 1435 483 c 2
 1435 319 l 2
 1435 29 1150 0 859 0 c 2
 234 0 l 2
 190 0 164 23 164 62 c 2
 164 1240 l 2
EndSplineSet
EndChar

StartChar: afii10095
Encoding: 1101 1101 205
Width: 1598
VWidth: 0
Flags: HW
LayerCount: 2
Fore
SplineSet
690.080078125 398.391601562 m 0
 692.83984375 257.223632812 707.958007812 257.223632812 795.879882812 257.223632812 c 2
 829 257.223632812 l 2
 915.15234375 257.223632812 922.974609375 256.536132812 923.6796875 560.776367188 c 1
 654.200195312 560.776367188 l 2
 610.959960938 560.776367188 584.280273438 584.440429688 584.280273438 622.791992188 c 2
 584.280273438 681.543945312 l 2
 584.280273438 719.896484375 610.959960938 743.559570312 654.200195312 743.559570312 c 2
 923.6796875 743.559570312 l 1
 922.907226562 1044.9296875 914.73046875 1046.29980469 829 1046.29980469 c 2
 795.879882812 1046.29980469 l 2
 706.737304688 1046.29980469 691.919921875 1043.65039062 690.080078125 896.15234375 c 0
 690.080078125 856.984375 668 834.135742188 625.6796875 834.135742188 c 2
 222.719726562 834.135742188 l 2
 184.080078125 834.135742188 163.83984375 863.51171875 163.83984375 905.944335938 c 1
 189.439453125 1311.91015625 355.580078125 1331.08007812 817.040039062 1331.08007812 c 0
 1369.95996094 1331.08007812 1496 1279.66992188 1496 657.064453125 c 0
 1496 15.6884765625 1387.44042969 -31.6396484375 817.040039062 -31.6396484375 c 0
 332.833984375 -31.6396484375 185.907226562 -11.021484375 163.83984375 404.103515625 c 1
 163.83984375 440.0078125 182.240234375 465.303710938 219.040039062 465.303710938 c 2
 632.120117188 465.303710938 l 2
 668 465.303710938 690.080078125 437.559570312 690.080078125 398.391601562 c 0
EndSplineSet
EndChar

StartChar: afii10096
Encoding: 1102 1102 206
Width: 2452
VWidth: 0
Flags: HW
LayerCount: 2
Fore
SplineSet
900 561 m 1
 749 561 l 2
 714 561 713 560 713 529 c 2
 713 62 l 2
 713 23 687 0 643 0 c 2
 236 0 l 2
 192 0 170 24 166 62 c 0
 149 249 148 443 148 645 c 0
 148 837 148 1035 166 1240 c 0
 170 1278 192 1302 236 1302 c 2
 643 1302 l 2
 687 1302 713 1279 713 1240 c 2
 713 775 l 2
 713 744 714 741 749 741 c 2
 900 741 l 1
 911 1284 1040 1331 1531 1331 c 0
 2022 1331 2170 1283 2170 659 c 0
 2170 17 2048 -32 1531 -32 c 0
 1027 -32 911 10 900 561 c 1
1519 257 m 2
 1553 257 l 2
 1657 257 1659 257 1659 652 c 0
 1659 1047 1657 1046 1553 1046 c 2
 1519 1046 l 2
 1425 1046 1425 1045 1425 650 c 0
 1425 257 1425 257 1519 257 c 2
EndSplineSet
EndChar

StartChar: afii10097
Encoding: 1103 1103 207
Width: 1680
VWidth: 0
Flags: HW
LayerCount: 2
Fore
SplineSet
986 62 m 2
 986 497 l 2
 986 528 986 530 951 530 c 2
 892 530 l 2
 857 530 837 512 837 481 c 1
 772 62 l 1
 772 23 746 0 702 0 c 2
 283 0 l 2
 239 0 207 23 213 62 c 2
 271 459 l 2
 284 550 333 641 453 670 c 1
 321 713 287 809 287 971 c 0
 287 1226 441 1302 707 1302 c 2
 1477 1302 l 2
 1521 1302 1543 1278 1548 1240 c 0
 1567 1069 1568 846 1568 628 c 0
 1568 417 1563 212 1548 64 c 0
 1544 26 1526 0 1482 0 c 2
 1056 0 l 2
 1012 0 986 23 986 62 c 2
986 1075 m 2
 986 1106 984 1108 949 1108 c 2
 882 1108 l 2
 847 1108 827 1090 827 1059 c 2
 827 768 l 2
 827 737 847 719 882 719 c 2
 951 719 l 2
 986 719 986 721 986 752 c 2
 986 1075 l 2
EndSplineSet
EndChar

StartChar: afii10098
Encoding: 1169 1169 208
Width: 1313
VWidth: 0
Flags: HW
LayerCount: 2
Fore
SplineSet
915 62 m 0
 912 24 889 0 845 0 c 2
 429 0 l 2
 385 0 363 24 359 62 c 0
 347 176 340 433 340 687 c 0
 340 1006 348 1195 350 1240 c 0
 352 1279 376 1302 420 1302 c 2
 1228 1302 l 2
 1272 1302 1297 1279 1297 1240 c 2
 1297 1144 l 2
 1297 1105 1272 1082 1228 1082 c 2
 925 1082 l 1
 931 978 934 843 934 687 c 0
 934 459 928 216 915 62 c 0
EndSplineSet
EndChar

StartChar: afii10099
Encoding: 1106 1106 209
Width: 1788
VWidth: 0
Flags: HW
LayerCount: 2
Fore
SplineSet
729.69921875 832 m 1
 1162 832 l 2
 1319.38964844 832 1528 792.149414062 1528 429 c 2
 1528 94 l 2
 1528 -199 1364 -326 1067 -326 c 0
 991.370848519 -326 929.702725001 -323.593108026 871.974609375 -316.774414062 c 0
 825.676173135 -311.306372547 793.821917004 -279.683132452 788.015625 -233.42578125 c 2
 776.451171875 -141.295898438 l 2
 770.700017906 -95.4786602379 796.709961983 -66 842.887695312 -66 c 2
 896.404296875 -66 l 2
 933.699111092 -66 956 -43.69921875 956 -6.404296875 c 2
 956 570 l 2
 956 649.4375 948.810423844 652 823 652 c 2
 747 652 l 2
 730.918945312 652 730 651 730 620 c 2
 730 62 l 2
 730 23 704 0 660 0 c 2
 235 0 l 2
 191 0 167 24 165 62 c 0
 158 176 154 294 154 413 c 0
 154 421.3984375 154.01953125 429.802734375 154.059570312 438.209960938 c 2
 154 1240 l 2
 154 1279 180 1302 224 1302 c 2
 649 1302 l 2
 693 1302 717 1278 719 1240 c 0
 726 1126 730 1008 730 889 c 0
 730 870.021484375 729.8984375 851.017578125 729.69921875 832 c 1
EndSplineSet
EndChar

StartChar: afii10101
Encoding: 1108 1108 211
Width: 1692
VWidth: 0
Flags: HW
LayerCount: 2
Fore
SplineSet
969.92 398.392 m 0
 969.92 437.56 992 465.304 1027.88 465.304 c 2
 1440.96 465.304 l 2
 1477.76 465.304 1496.16 440.008 1496.16 404.104 c 1
 1474.09 -11.0215 1327.17 -31.6396 842.96 -31.6396 c 0
 272.56 -31.6396 164 15.6885 164 657.064 c 0
 164 1279.67 290.04 1331.08 842.96 1331.08 c 0
 1304.42 1331.08 1470.56 1311.91 1496.16 905.944 c 1
 1496.16 863.512 1475.92 834.136 1437.28 834.136 c 2
 1034.32 834.136 l 2
 992 834.136 969.92 856.984 969.92 896.152 c 0
 968.08 1043.65 953.263 1046.3 864.12 1046.3 c 2
 831 1046.3 l 2
 745.271 1046.3 737.083 1044.93 736.31 743.56 c 1
 1005.8 743.56 l 2
 1049.04 743.56 1075.72 719.896 1075.72 681.544 c 2
 1075.72 622.792 l 2
 1075.72 584.44 1049.04 560.776 1005.8 560.776 c 2
 736.31 560.776 l 1
 737.015 256.536 744.848 257.224 831 257.224 c 2
 864.12 257.224 l 2
 952.042 257.224 967.16 257.224 969.92 398.392 c 0
EndSplineSet
EndChar

StartChar: afii10106
Encoding: 1113 1113 216
Width: 2371
VWidth: 0
Flags: HW
LayerCount: 2
Fore
SplineSet
1602 422.142828721 m 2
 1602 214 l 2
 1602 199 1612 190 1629 190 c 2
 1706 190 l 2
 1740 190 1761 209 1761 239 c 2
 1761 569 l 2
 1761 599 1740 618 1706 618 c 2
 1629 618 l 2
 1615.10890247 618 1605.89163929 611.990784336 1602.98496741 601.609109893 c 1
 1602.93909004 541.217954032 1602.75320056 481.028533074 1602 422.142828721 c 2
304 1302 m 2
 1514 1302 l 2
 1558 1302 1579 1278 1584 1240 c 0
 1598.1981979 1121.93077537 1601.78645771 974.823825466 1602.69330579 819.96098416 c 1
 1604.39706156 808.505798219 1611.59675235 802 1630 802 c 2
 1743 802 l 2
 2028 802 2318 781 2318 483 c 2
 2318 319 l 2
 2318 29 2033 0 1742 0 c 2
 1089 0 l 2
 1045 0 1019 23 1019 62 c 2
 1019 1090 l 2
 1019 1121 1017 1122 982 1122 c 2
 836 1122 l 2
 801 1122 799 1121 799 1090 c 2
 798 333 l 2
 798 74 582 -21 301 -21 c 0
 248 -21 191 -17 134 -10 c 0
 91 -5 65 21 65 60 c 2
 65 160 l 2
 65 199 91 222 135 222 c 2
 179 222 l 2
 213 222 233 240 233 270 c 0
 233 451 219 527 219 808 c 0
 219 1046 222 1094 234 1240 c 0
 238 1278 260 1302 304 1302 c 2
EndSplineSet
EndChar

StartChar: afii10107
Encoding: 1114 1114 217
Width: 2303
VWidth: 0
Flags: HW
LayerCount: 2
Back
SplineSet
1534.5 214 m 6
 1534.5 199 1544.5 190 1561.5 190 c 6
 1638.5 190 l 6
 1672.5 190 1693.5 209 1693.5 239 c 6
 1693.5 569 l 6
 1693.5 599 1672.5 618 1638.5 618 c 6
 1561.5 618 l 6
 1544.5 618 1534.5 609 1534.5 594 c 6
 1534.5 214 l 6
1562.5 802 m 6
 1675.5 802 l 6
 1960.5 802 2250.5 781 2250.5 483 c 6
 2250.5 319 l 6
 2250.5 29 1965.5 0 1674.5 0 c 6
 1179.5 0 l 6
 862.444576605 0 1402.26179803 802 1562.5 802 c 6
EndSplineSet
Fore
SplineSet
1535 599 m 1
 1535 556 1534 514 1534 471 c 2
 1534 214 l 2
 1534 199 1545 190 1562 190 c 2
 1638 190 l 2
 1672 190 1694 209 1694 239 c 2
 1694 569 l 2
 1694 599 1672 618 1638 618 c 2
 1562 618 l 2
 1547 618 1537 611 1535 599 c 1
1021 1302 m 2
 1446 1302 l 2
 1490 1302 1511 1278 1516 1240 c 0
 1531 1117 1534 963 1535 802 c 1
 1676 802 l 2
 1961 802 2250 781 2250 483 c 2
 2250 319 l 2
 2250 29 1965 0 1674 0 c 2
 1021 0 l 2
 977 0 951 23 951 62 c 2
 951 529 l 2
 951 560 949 561 914 561 c 2
 768 561 l 2
 733 561 731 560 731 529 c 2
 731 62 l 2
 731 23 705 0 661 0 c 2
 236 0 l 2
 192 0 170 24 166 62 c 0
 149 249 148 443 148 645 c 0
 148 837 148 1035 166 1240 c 0
 170 1278 192 1302 236 1302 c 2
 661 1302 l 2
 705 1302 731 1279 731 1240 c 2
 731 775 l 2
 731 744 733 741 768 741 c 2
 914 741 l 2
 949 741 951 744 951 775 c 2
 951 1240 l 2
 951 1279 977 1302 1021 1302 c 2
EndSplineSet
EndChar

StartChar: afii10193
Encoding: 1119 1119 222
Width: 1788
VWidth: 0
Flags: HW
LayerCount: 2
Fore
SplineSet
1447 0 m 2
 237 0 l 2
 193 0 172 24 167 62 c 0
 148 220 148 430 148 641 c 0
 148 855 148 1071 167 1240 c 0
 172 1279 193 1302 237 1302 c 2
 662 1302 l 2
 706 1302 732 1279 732 1240 c 2
 732 212 l 2
 732 181 734 180 769 180 c 2
 915 180 l 2
 950 180 952 181 952 212 c 2
 952 1240 l 2
 952 1279 978 1302 1022 1302 c 2
 1447 1302 l 2
 1491 1302 1513 1278 1517 1240 c 0
 1534 1053 1535 859 1535 657 c 0
 1535 465 1535 267 1517 62 c 0
 1513 24 1491 0 1447 0 c 2
EndSplineSet
EndChar

StartChar: ampersand
Encoding: 38 38 226
Width: 1653
VWidth: 0
Flags: HW
LayerCount: 2
Fore
SplineSet
359 840.5 m 2
 359 842.5 l 2
 359 854.311 352.349 861.713 340.605 862.971 c 2
 247 873 l 2
 180 880 84 958 84 1198 c 0
 84 1594 453 1632 806 1632 c 0
 1220 1632 1442 1522 1442 1238 c 0
 1442 1228.92 1441.71 1219.55 1440.99 1209.9 c 0
 1439.82 1194.21 1428.81 1184 1413.08 1184 c 2
 968.887 1184 l 2
 921.397 1184 893 1212.4 893 1259.89 c 2
 893 1332.4 l 2
 893 1369.7 870.699 1392 833.404 1392 c 2
 746.596 1392 l 2
 709.301 1392 687 1369.7 687 1332.4 c 2
 687 988.596 l 2
 687 951.301 709.301 929 746.596 929 c 2
 836.404 929 l 2
 873.699 929 896 951.301 896 988.596 c 2
 896 999.5 l 2
 896 1042.37 921.633 1068 964.5 1068 c 2
 1373.5 1068 l 2
 1416.37 1068 1442 1042.37 1442 999.5 c 2
 1442 988.596 l 2
 1442 951.301 1464.3 929 1501.6 929 c 2
 1518.5 929 l 2
 1565.12 929 1593 901.122 1593 854.5 c 2
 1593 810.5 l 2
 1593 763.878 1565.12 736 1518.5 736 c 2
 1501.6 736 l 2
 1464.3 736 1442 713.699 1442 676.404 c 2
 1442 513 l 2
 1442 75 1312 -40 766 -40 c 0
 361 -40 85 16 85 456 c 0
 85 569 126 795 247 809 c 2
 340.605 819.867 l 2
 352.355 821.231 359 828.671 359 840.5 c 2
746.596 224 m 2
 836.404 224 l 2
 873.699 224 896 246.301 896 283.596 c 2
 896 676.404 l 2
 896 713.699 873.699 736 836.404 736 c 2
 746.596 736 l 2
 709.301 736 687 713.699 687 676.404 c 2
 687 283.596 l 2
 687 246.301 709.301 224 746.596 224 c 2
EndSplineSet
EndChar

StartChar: asciicircum
Encoding: 94 94 229
Width: 1222
VWidth: 0
Flags: HW
LayerCount: 2
Fore
SplineSet
393.887 676 m 2
 820.113 676 l 2
 870.511 676 906.655 652.845 927.723 607.061 c 2
 1147.28 129.939 l 2
 1164.84 91.7724 1145.13 61 1103.11 61 c 2
 773.887 61 l 2
 724.279 61 691.032 86.3382 677.878 134.171 c 2
 625.802 323.538 l 2
 619.724 345.64 600.689 345.529 594.869 323.357 c 2
 545.268 134.401 l 2
 532.69 86.4869 499.65 61 450.113 61 c 2
 121.887 61 l 2
 79.6465 61 59.6094 91.7713 76.6951 130.402 c 2
 287.305 606.598 l 2
 307.668 652.638 343.545 676 393.887 676 c 2
EndSplineSet
EndChar

StartChar: asciitilde
Encoding: 126 126 230
Width: 1424
VWidth: 0
Flags: HW
LayerCount: 2
Fore
SplineSet
1278.99 642 m 2
 1146.23 642 l 2
 1087.39 642 1063.26 660.534 1048.1 717.383 c 0
 1034.39 768.765 1003.89 806 950 806 c 0
 784 806 715 616 480 616 c 0
 165.238 616 86.0421 839.913 74.5776 1100.16 c 0
 72.5542 1146.09 101.175 1176 147.152 1176 c 2
 280.872 1176 l 2
 338.582 1176 363.311 1156.57 376.955 1100.49 c 0
 389.904 1047.27 420.423 1008 481 1008 c 0
 670 1008 754 1201 1008 1201 c 0
 1289.33 1201 1346.28 1022.01 1353.21 717.933 c 0
 1354.27 671.21 1325.72 642 1278.99 642 c 2
EndSplineSet
EndChar

StartChar: asterisk
Encoding: 42 42 231
Width: 1321
VWidth: 0
Flags: HW
LayerCount: 2
Fore
SplineSet
877 430 m 0
 838 430 800 447 775 489 c 0
 743.966 540.724 711.445 662.303 678.72 782.628 c 0
 672.668 804.88 653.333 804.83 647.391 782.533 c 0
 591.434 572.562 562.052 430 450 430 c 0
 368 430 282 502 282 581 c 0
 282 650.057 383.347 743.245 507.411 858.399 c 0
 523.378 873.219 514.619 888.793 493.646 882.894 c 0
 375.248 849.588 257.381 817 198 817 c 0
 113 817 73 889 73 962 c 0
 73 1037 116 1112 199 1112 c 0
 259.964 1112 376.96 1077.32 493.646 1043.47 c 0
 514.846 1037.32 523.91 1053.08 507.981 1068.31 c 0
 380.255 1190.48 282 1282.51 282 1351 c 0
 282 1431 369 1497 450 1497 c 0
 490 1497 529 1480 553 1440 c 0
 585.805 1384.75 617.119 1260.19 648.229 1137.74 c 0
 653.785 1115.87 672.445 1115.82 678.1 1137.63 c 0
 709.863 1260.12 741.186 1384.73 774 1440 c 0
 798 1480 836 1497 877 1497 c 0
 957 1497 1045 1430 1045 1351 c 0
 1045 1282.58 944.5 1189.84 817.925 1068.42 c 0
 801.972 1053.11 811.084 1037.32 832.308 1043.47 c 0
 949.236 1077.33 1067.02 1112 1128 1112 c 0
 1211 1112 1254 1037 1254 962 c 0
 1254 889 1214 817 1128 817 c 0
 1068.64 817 950.795 850.309 832.431 883.175 c 0
 811.276 889.049 802.413 873.24 818.491 858.229 c 0
 941.932 742.984 1044 649.133 1044 581 c 0
 1044 500 957 430 877 430 c 0
EndSplineSet
EndChar

StartChar: at
Encoding: 64 64 232
Width: 2198
VWidth: 0
Flags: HW
LayerCount: 2
Fore
SplineSet
1128.5 641 m 2
 1126.5 641 l 2
 1098.03 641 1081 623.974 1081 595.5 c 2
 1081 381.5 l 2
 1081 353.026 1098.03 336 1126.5 336 c 2
 1128.5 336 l 2
 1156.97 336 1174 353.026 1174 381.5 c 2
 1174 595.5 l 2
 1174 623.974 1156.97 641 1128.5 641 c 2
2133 878 m 0
 2133 421.939 2050.73 105.824 1592.88 88.7293 c 0
 1564.31 87.6624 1501.29 90.1133 1477.23 92.8945 c 0
 1374.94 104.717 1292.6 137.524 1237.56 193.463 c 0
 1209.64 221.839 1190.73 222.326 1161.39 195.427 c 0
 1110.49 148.757 1041.86 113 950 113 c 0
 733 113 620 199 613 405 c 0
 612 435 612 464 612 493 c 0
 612 732 708 836 950 836 c 0
 1019.03 836 1075.42 829.193 1121.2 813.547 c 0
 1155.3 801.894 1175 815.983 1175 852.015 c 2
 1175 993.5 l 2
 1175 1011.34 1164.34 1022 1146.5 1022 c 2
 1144.5 1022 l 2
 1126.66 1022 1116 1011.34 1116 993.5 c 2
 1116 953.5 l 2
 1116 911.884 1091.12 887 1049.5 887 c 2
 697.747 887 l 2
 676.446 887 663.984 899.194 663.522 920.489 c 0
 663.265 932.326 663 944.163 663 956 c 0
 663 1204 858 1248 1138 1248 c 0
 1496 1248 1607 1146 1607 837 c 2
 1607 389.596 l 2
 1607 352.301 1629.3 330 1666.6 330 c 2
 1717.4 330 l 2
 1754.7 330 1777 352.301 1777 389.596 c 2
 1777 832 l 2
 1777 1339 1587 1424 1152 1424 c 0
 565 1424 428 1204 428 692 c 0
 428 59 589 -58 1222 -58 c 0
 1312.04 -58 1419.1 -43.4073 1630.06 4.75667 c 0
 1676.59 15.3807 1710.33 -5.83837 1720.92 -52.3791 c 2
 1746.06 -162.902 l 2
 1756.4 -208.39 1737.88 -249.684 1697.02 -272.204 c 0
 1572.47 -340.865 1414.09 -393 1240 -393 c 0
 425 -393 74 -177 74 687 c 0
 74 1495 440 1741 1148 1741 c 0
 1840 1741 2133 1508 2133 878 c 0
EndSplineSet
EndChar

StartChar: b
Encoding: 98 98 234
Width: 1563
VWidth: 0
Flags: HW
LayerCount: 2
Fore
SplineSet
774 199 m 2
 821 199 l 2
 859 199 876 223 881 259 c 0
 896 372 903 517 903 658 c 0
 903 803 896 944 881 1045 c 0
 876 1078 859 1105 821 1105 c 2
 774 1105 l 2
 736 1105 714 1083 714 1045 c 2
 714 259 l 2
 714 221 736 199 774 199 c 2
1471 650 m 0
 1471 566 1465 486 1452 377 c 0
 1421 109 1313 -27 1035 -27 c 0
 916 -27 807 8 739 70 c 0
 729 79 719 83 710 83 c 0
 697 83 687 73 681 54 c 1
 681 56 l 1
 669 19 643 0 604 0 c 2
 219 0 l 2
 171 0 145 29 143 76 c 0
 132 290 128 534 128 768 c 0
 128 1124 137 1458 143 1634 c 0
 145 1681 171 1710 219 1710 c 2
 638 1710 l 2
 686 1710 714 1682 714 1634 c 2
 714 1278 l 2
 714 1258 723 1247 736 1247 c 0
 742 1247 750 1249 758 1255 c 0
 824 1304 917 1327 1038 1327 c 0
 1307 1327 1424 1201 1452 940 c 0
 1465 819 1471 732 1471 650 c 0
EndSplineSet
EndChar

StartChar: backslash
Encoding: 92 92 235
Width: 1053
VWidth: 0
Flags: HW
LayerCount: 2
Fore
SplineSet
188.887 1595 m 2
 511.113 1595 l 2
 560.393 1595 592.734 1569.01 603.354 1520.89 c 2
 922.646 74.1042 l 2
 932.359 30.0905 908.185 0 863.113 0 c 2
 539.887 0 l 2
 490.611 0 458.281 25.9792 447.69 74.1042 c 2
 129.31 1520.89 l 2
 119.621 1564.91 143.807 1595 188.887 1595 c 2
EndSplineSet
EndChar

StartChar: bar
Encoding: 124 124 236
Width: 831
VWidth: 0
Flags: HW
LayerCount: 2
Fore
SplineSet
204.887 1795 m 2
 624.113 1795 l 2
 671.603 1795 700 1766.6 700 1719.11 c 2
 700 -24.1127 l 2
 700 -71.603 671.603 -100 624.113 -100 c 2
 204.887 -100 l 2
 157.397 -100 129 -71.603 129 -24.1127 c 2
 129 1719.11 l 2
 129 1766.6 157.397 1795 204.887 1795 c 2
EndSplineSet
EndChar

StartChar: braceleft
Encoding: 123 123 237
Width: 1132
VWidth: 0
Flags: HW
LayerCount: 2
Fore
SplineSet
274 1228 m 0
 340.62 1726.7 540.39 1907.48 1024.17 1923.77 c 0
 1070.45 1925.33 1100 1896.76 1100 1850.45 c 2
 1100 1727.4 l 2
 1100 1675.12 1076.09 1648.06 1024.21 1641.62 c 0
 597.191 1588.61 841.051 1068.76 652.554 837.913 c 0
 625.081 804.268 625.332 789.633 653.969 756.919 c 0
 839.856 544.568 598.256 8.27802 1025.24 -46.47 c 0
 1077.25 -53.1383 1101 -80.1277 1101 -132.561 c 2
 1101 -255.291 l 2
 1101 -301.718 1071.49 -330.311 1025.08 -328.839 c 0
 537.351 -313.373 308.22 -140.413 273 366 c 1
 258.673 474.718 269.911 607.585 160.068 646.677 c 0
 100.166 667.996 85 689.497 85 753.08 c 2
 85 842.673 l 2
 85 905.577 100.593 927.438 160.068 947.92 c 0
 268.48 985.255 258.861 1111.93 274 1228 c 0
EndSplineSet
EndChar

StartChar: braceright
Encoding: 125 125 238
Width: 1131
VWidth: 0
Flags: HW
LayerCount: 2
Fore
SplineSet
506.989 837.25 m 0
 317.479 1067.76 562.225 1588.57 134.772 1641.62 c 0
 82.9053 1648.05 59 1675.11 59 1727.37 c 2
 59 1850.45 l 2
 59 1896.76 88.5492 1925.33 134.835 1923.77 c 0
 618.61 1907.48 818.38 1726.7 885 1228 c 0
 900.139 1111.93 890.516 985.255 998.928 947.92 c 0
 1058.41 927.438 1074 905.577 1074 842.673 c 2
 1074 753.08 l 2
 1074 689.497 1058.83 667.996 998.928 646.677 c 0
 889.085 607.585 900.327 474.718 886 366 c 1
 850.78 -140.413 621.649 -313.373 133.918 -328.839 c 0
 87.5135 -330.311 58 -301.718 58 -255.291 c 2
 58 -132.55 l 2
 58 -80.1241 81.7477 -53.1376 133.748 -46.4711 c 0
 561.18 8.32607 318.652 545.654 505.598 757.564 c 0
 533.846 789.585 534.102 804.271 506.989 837.25 c 0
EndSplineSet
EndChar

StartChar: bracketleft
Encoding: 91 91 239
Width: 1108
VWidth: 0
Flags: HW
LayerCount: 2
Fore
SplineSet
85 -243 m 2
 85 1743 l 2
 85 1791 113 1819 161 1819 c 2
 1004 1819 l 2
 1052 1819 1060 1791 1060 1743 c 2
 1060 1653 l 2
 1060 1605 1052 1577 1004 1577 c 2
 759 1577 l 2
 721 1577 719 1565 719 1527 c 2
 719 -28 l 2
 719 -66 721 -78 759 -78 c 2
 1004 -78 l 2
 1052 -78 1060 -106 1060 -154 c 2
 1060 -243 l 2
 1060 -291 1052 -319 1004 -319 c 2
 161 -319 l 2
 113 -319 85 -291 85 -243 c 2
EndSplineSet
EndChar

StartChar: bracketright
Encoding: 93 93 240
Width: 1108
VWidth: 0
Flags: HW
LayerCount: 2
Fore
SplineSet
1010 1743.11 m 2
 1010 -243.113 l 2
 1010 -290.603 981.603 -319 934.113 -319 c 2
 91 -319 l 2
 43 -319 35 -290.603 35 -243.113 c 2
 35 -152.887 l 2
 35 -105.397 43 -77 91 -77 c 2
 336 -77 l 2
 374 -77 376 -65 376 -27 c 2
 376 1528 l 2
 376 1566 374 1578 336 1578 c 2
 91 1578 l 2
 43 1578 35 1606.4 35 1653.89 c 2
 35 1743.11 l 2
 35 1790.6 43 1819 91 1819 c 2
 934.113 1819 l 2
 981.603 1819 1010 1790.6 1010 1743.11 c 2
EndSplineSet
EndChar

StartChar: breve
Encoding: 728 728 241
Width: 1210
VWidth: 0
Flags: HW
LayerCount: 2
Fore
SplineSet
1064.77929688 1803.11035156 m 0
 1049.70019531 1561.23046875 951.825195312 1398 604.985351562 1398 c 0
 258.145507812 1398 160.270507812 1561.23046875 145.19140625 1803.11035156 c 0
 142.365234375 1848.44042969 171.075195312 1879 216.501953125 1879 c 2
 355.27734375 1879 l 2
 409.123046875 1879 435.594726562 1856.4296875 444.116210938 1803.25976562 c 0
 454.287109375 1739.79980469 488.921875 1701 604.985351562 1701 c 0
 721.047851562 1701 755.682617188 1739.79980469 765.854492188 1803.25976562 c 0
 774.375 1856.4296875 800.846679688 1879 854.693359375 1879 c 2
 993.467773438 1879 l 2
 1038.89550781 1879 1067.60546875 1848.44042969 1064.77929688 1803.11035156 c 0
EndSplineSet
EndChar

StartChar: brokenbar
Encoding: 166 166 242
Width: 831
VWidth: 0
Flags: HW
LayerCount: 2
Fore
SplineSet
206.887 1708 m 2
 626.113 1708 l 2
 673.603 1708 702 1679.6 702 1632.11 c 2
 702 872.887 l 2
 702 825.397 673.603 797 626.113 797 c 2
 206.887 797 l 2
 159.397 797 131 825.397 131 872.887 c 2
 131 1632.11 l 2
 131 1679.6 159.397 1708 206.887 1708 c 2
206.887 656 m 2
 626.113 656 l 2
 673.603 656 702 627.603 702 580.113 c 2
 702 -179.113 l 2
 702 -226.603 673.603 -255 626.113 -255 c 2
 206.887 -255 l 2
 159.397 -255 131 -226.603 131 -179.113 c 2
 131 580.113 l 2
 131 627.603 159.397 656 206.887 656 c 2
EndSplineSet
EndChar

StartChar: bullet
Encoding: 8226 8226 243
Width: 1120
VWidth: 0
Flags: HW
LayerCount: 2
Fore
SplineSet
579 1254 m 0
 921 1254 1053 1076 1053 726 c 0
 1053 407 947 195 577 195 c 0
 181 195 71 381 71 726 c 0
 71 1102 213 1254 579 1254 c 0
EndSplineSet
EndChar

StartChar: c
Encoding: 99 99 244
Width: 1525
VWidth: 0
Flags: HW
LayerCount: 2
Fore
SplineSet
1421 792 m 0
 1421 784 1420 774 1408 774 c 2
 884 774 l 2
 869 774 863 782 863 801 c 2
 863 955 l 2
 863 1070 863 1105 772 1105 c 2
 746 1105 l 2
 653 1105 653 1073 653 955 c 2
 653 391 l 2
 653 276 653 233 746 233 c 2
 772 233 l 2
 862 233 863 282 863 393 c 2
 863 493 l 2
 863 515 865 524 878 524 c 2
 1404 524 l 2
 1419 524 1421 505 1421 502 c 0
 1420 454 1414 405 1404 352 c 0
 1334 -12 1068 -27 763 -27 c 0
 445 -27 175 -7 115 353 c 0
 100 445 102 542 102 641 c 0
 102 743 100 848 115 953 c 0
 163 1293 467 1327 764 1327 c 0
 1083 1327 1338 1292 1404 952 c 0
 1414 898 1421 845 1421 792 c 0
EndSplineSet
EndChar

StartChar: caron
Encoding: 711 711 246
Width: 1126
VWidth: 0
Flags: HW
LayerCount: 2
Fore
SplineSet
563 1411 m 0
 508 1411 451 1435 420 1483 c 2
 157 1892 l 2
 145 1911 139 1929 139 1944 c 0
 139 1981 169 2006 205 2006 c 0
 222 2006 241 2000 259 1986 c 2
 514.908203125 1787.51953125 l 2
 545.627929688 1763.70019531 578.372070312 1763.70019531 609.091796875 1787.51953125 c 2
 865 1986 l 2
 884 2001 904 2008 922 2008 c 0
 957 2008 985 1982 985 1945 c 0
 985 1929 979 1911 967 1892 c 2
 704 1483 l 2
 671 1432 616 1411 563 1411 c 0
EndSplineSet
EndChar

StartChar: cedilla
Encoding: 184 184 251
Width: 948
VWidth: 0
Flags: HW
LayerCount: 2
Fore
SplineSet
384 -104.113 m 2
 384 -75.8873 l 2
 384 -28.397 412.397 0 459.887 0 c 2
 527 0 l 2
 548.277 0 561 -12.7228 561 -34 c 2
 561 -35.2292 l 2
 561 -57.186 573.032 -69.7448 594.999 -70.6862 c 0
 715.402 -75.846 791 -111.604 791 -228 c 2
 791 -323 l 2
 791 -460 678 -481 538 -481 c 0
 389 -481 284 -457 284 -323 c 2
 284 -294 l 2
 284 -276.716 293.643 -265.811 310.797 -263.695 c 2
 446.489 -246.957 l 2
 485.764 -242.113 511 -264.427 511 -304 c 2
 511 -340.5 l 2
 511 -359.587 522.413 -371 541.5 -371 c 2
 543.5 -371 l 2
 562.587 -371 574 -359.587 574 -340.5 c 2
 574 -239.596 l 2
 574 -202.301 551.699 -180 514.404 -180 c 2
 459.887 -180 l 2
 412.397 -180 384 -151.603 384 -104.113 c 2
EndSplineSet
EndChar

StartChar: cent
Encoding: 162 162 252
Width: 1462
VWidth: 0
Flags: HW
LayerCount: 2
Fore
SplineSet
653 1119 m 2
 651 1119 l 2
 617.833 1119 598 1099.17 598 1066 c 2
 598 426 l 2
 598 392.833 617.833 373 651 373 c 2
 653 373 l 2
 686.167 373 706 392.833 706 426 c 2
 706 1066 l 2
 706 1099.17 686.167 1119 653 1119 c 2
960.887 633 m 2
 1342 633 l 2
 1375.79 633 1396 612.793 1396 579 c 2
 1396 523 l 2
 1396 203.238 1118.76 154.632 844.612 147.894 c 0
 806.764 146.963 785 124.658 785 86.7982 c 2
 785 -35.5 l 2
 785 -59.5933 770.593 -74 746.5 -74 c 2
 744.5 -74 l 2
 720.407 -74 706 -59.5933 706 -35.5 c 2
 706 86.7603 l 2
 706 124.664 684.298 146.947 646.408 147.949 c 0
 365.892 155.366 86 209.648 86 529 c 2
 86 969 l 2
 86 1286.19 379.295 1335.16 646.408 1342.06 c 0
 684.262 1343.04 706 1365.33 706 1403.2 c 2
 706 1539.5 l 2
 706 1563.59 720.407 1578 744.5 1578 c 2
 746.5 1578 l 2
 770.593 1578 785 1563.59 785 1539.5 c 2
 785 1403.31 l 2
 785 1365.3 806.564 1342.96 844.554 1341.63 c 0
 1082.39 1333.28 1396 1283.85 1396 992 c 2
 1396 935.5 l 2
 1396 901.394 1375.61 881 1341.5 881 c 2
 960.887 881 l 2
 913.397 881 885 909.397 885 956.887 c 2
 885 1070 l 2
 885 1100.66 866.664 1119 836 1119 c 2
 834 1119 l 2
 803.336 1119 785 1100.66 785 1070 c 2
 785 422 l 2
 785 391.336 803.336 373 834 373 c 2
 836 373 l 2
 866.664 373 885 391.336 885 422 c 2
 885 557.113 l 2
 885 604.603 913.397 633 960.887 633 c 2
EndSplineSet
EndChar

StartChar: circumflex
Encoding: 710 710 253
Width: 1126
VWidth: 0
Flags: HW
LayerCount: 2
Fore
SplineSet
139 1475 m 0
 139 1490 145 1508 157 1527 c 2
 420 1936 l 2
 451 1984 508 2008 563 2008 c 0
 616 2008 671 1987 704 1936 c 2
 967 1527 l 2
 979 1508 985 1490 985 1474 c 0
 985 1437 957 1411 922 1411 c 0
 904 1411 884 1418 865 1433 c 2
 609.091796875 1631.48046875 l 2
 578.372070312 1655.29980469 545.627929688 1655.29980469 514.908203125 1631.48046875 c 2
 259 1433 l 2
 241 1419 222 1413 205 1413 c 0
 169 1413 139 1438 139 1475 c 0
EndSplineSet
EndChar

StartChar: colon
Encoding: 58 58 254
Width: 691
VWidth: 0
Flags: HW
LayerCount: 2
Fore
SplineSet
345 923 m 0
 243 923 141 993 141 1133 c 0
 141 1273 243 1343 345 1343 c 0
 447 1343 549 1273 549 1133 c 0
 549 993 447 923 345 923 c 0
345 113 m 0
 243 113 141 183 141 323 c 0
 141 463 243 533 345 533 c 0
 447 533 549 463 549 323 c 0
 549 183 447 113 345 113 c 0
EndSplineSet
EndChar

StartChar: comma
Encoding: 44 44 255
Width: 711
VWidth: 0
Flags: HW
LayerCount: 2
Fore
SplineSet
262.191 14.5872 m 0
 194.214 42.5593 141 107.526 141 209 c 0
 141 342 243 409 345 409 c 0
 489 409 555 298 555 169 c 0
 555 -15 429 -234 208 -234 c 0
 200.562 -234 192.843 -233.718 184.991 -233.153 c 0
 172.169 -232.232 164 -223.454 164 -210.599 c 2
 164 -182.905 l 2
 164 -142.475 176.587 -125.888 217.003 -114.594 c 0
 240.538 -108.018 261.712 -97.1565 278.679 -82.3521 c 0
 307.96 -56.8034 298.656 -0.418232 262.191 14.5872 c 0
EndSplineSet
EndChar

StartChar: copyright
Encoding: 169 169 256
Width: 1861
VWidth: 0
Flags: HW
LayerCount: 2
Fore
SplineSet
835 1162.4 m 2
 835 491.596 l 2
 835 454.301 857.301 432 894.596 432 c 2
 974.404 432 l 2
 1011.7 432 1034 454.301 1034 491.596 c 2
 1034 673.113 l 2
 1034 720.603 1062.4 749 1109.89 749 c 2
 1235.11 749 l 2
 1282.6 749 1311 720.603 1311 673.113 c 2
 1311 542 l 2
 1311 312 1161 272 916 272 c 0
 701 272 555 315 555 547 c 2
 555 1107 l 2
 555 1334 687 1381 916 1381 c 0
 1113 1381 1311 1366 1311 1111 c 2
 1311 988.887 l 2
 1311 941.397 1282.6 913 1235.11 913 c 2
 1109.89 913 l 2
 1062.4 913 1034 941.397 1034 988.887 c 2
 1034 1162.4 l 2
 1034 1199.7 1011.7 1222 974.404 1222 c 2
 894.596 1222 l 2
 857.301 1222 835 1199.7 835 1162.4 c 2
932 1573 m 0
 520 1573 323 1471 323 1114 c 2
 323 535 l 2
 323 169 523 68 932 68 c 0
 1300 68 1541 156 1541 482 c 2
 1541 1165 l 2
 1541 1500 1275 1573 932 1573 c 0
1780 539 m 2
 1780 14 1377 -101 932 -101 c 0
 421 -101 84 42 84 539 c 2
 84 1116 l 2
 84 1638 490 1749 932 1749 c 0
 1441 1749 1780 1610 1780 1116 c 2
 1780 539 l 2
EndSplineSet
EndChar

StartChar: currency
Encoding: 164 164 257
Width: 1390
VWidth: 0
Flags: HW
LayerCount: 2
Fore
SplineSet
637 1015 m 2
 637 625 l 2
 637 590.581 657.581 570 692 570 c 2
 694 570 l 2
 728.419 570 749 590.581 749 625 c 2
 749 1015 l 2
 749 1049.42 728.419 1070 694 1070 c 2
 692 1070 l 2
 657.581 1070 637 1049.42 637 1015 c 2
978.727 329.367 m 0
 897.033 308.772 806.962 299 698 299 c 0
 586.65 299.807 492.879 309.729 410.907 331.392 c 0
 369.35 342.375 339.969 333.831 310.781 302.276 c 2
 244.705 230.844 l 2
 220.81 205.011 190.959 204.794 166.69 230.276 c 2
 165.31 231.724 l 2
 140.398 257.882 140.151 288.35 164.635 314.909 c 2
 200.727 354.06 l 2
 227.634 383.247 226.164 410.619 196.288 436.757 c 0
 104.538 517.027 68 629.568 68 804 c 0
 68 976.07 92.4268 1102.25 174.396 1189.54 c 0
 202.918 1219.91 203.119 1246.43 175.061 1277.24 c 2
 165.384 1287.86 l 2
 141.032 1314.6 141.371 1345.09 166.31 1371.28 c 2
 167.69 1372.72 l 2
 191.949 1398.2 221.792 1397.95 245.635 1372.09 c 2
 281.851 1332.81 l 2
 310.927 1301.27 340.249 1293.16 381.4 1305.28 c 0
 470.555 1331.53 572.985 1343 697 1343 c 0
 819.227 1343 919.92 1331.56 1008.46 1305.92 c 0
 1049.54 1294.03 1078.99 1302.32 1107.83 1333.89 c 2
 1142.33 1371.66 l 2
 1166.2 1397.8 1196.23 1398.2 1220.81 1372.72 c 2
 1222.19 1371.28 l 2
 1247.4 1345.14 1247.76 1314.51 1223.19 1287.78 c 2
 1214.81 1278.66 l 2
 1187.06 1248.48 1187.55 1221.55 1216.36 1192.38 c 0
 1301.19 1106.48 1325 986.86 1325 804 c 0
 1325 632.207 1284.76 514.818 1192.69 433.818 c 0
 1162.86 407.58 1161.55 380.331 1188.7 351.338 c 2
 1223.8 313.857 l 2
 1248.58 287.4 1248.35 256.812 1223.19 230.72 c 2
 1221.81 229.28 l 2
 1197.2 203.763 1167.14 204.082 1143.08 230.118 c 2
 1078.88 299.595 l 2
 1049.98 330.871 1020.02 339.777 978.727 329.367 c 0
EndSplineSet
EndChar

StartChar: d
Encoding: 100 100 258
Width: 1478
VWidth: 0
Flags: HW
LayerCount: 2
Fore
SplineSet
822 258.596 m 2
 822 1045.4 l 2
 822 1082.7 799.699 1105 762.404 1105 c 2
 714.596 1105 l 2
 677.301 1105 655 1082.7 655 1045.4 c 2
 655 258.596 l 2
 655 221.301 677.301 199 714.596 199 c 2
 762.404 199 l 2
 799.699 199 822 221.301 822 258.596 c 2
85 940 m 2
 85 1203 228 1327 500 1327 c 0
 620.667 1327 712.859 1304.35 779.181 1255.41 c 0
 803.181 1237.7 823 1247.7 823 1277.53 c 2
 823 1634.11 l 2
 823 1681.6 851.397 1710 898.887 1710 c 2
 1318.11 1710 l 2
 1365.6 1710 1394 1681.6 1394 1634.11 c 2
 1394 75.8873 l 2
 1394 28.397 1365.6 0 1318.11 0 c 2
 932.927 0 l 2
 894.82 -3.55271e-15 868.592 18.6101 856.375 54.3037 c 0
 845.892 86.604 822.997 92.7907 797.672 70.1668 c 0
 728.873 8.70684 621.837 -27 502 -27 c 0
 224 -27 85 106 85 377 c 2
 85 940 l 2
EndSplineSet
EndChar

StartChar: dagger
Encoding: 8224 8224 259
Width: 1061
VWidth: 0
Flags: HW
LayerCount: 2
Fore
SplineSet
523 1627 m 0
 617 1627 713 1569 713 1458 c 0
 713 1371.5 663.856 1262.26 610.797 1156.04 c 0
 598.736 1131.89 614.461 1114.67 639.593 1124.49 c 0
 731.673 1160.46 830.848 1199 908 1199 c 0
 986 1199 1025 1128 1025 1058 c 0
 1025 986 986 915 907 915 c 0
 832.776 915 736.788 951.047 647.642 985.561 c 0
 618.485 996.85 597.21 979.177 602.956 948.454 c 0
 664.687 618.402 712 359.944 712 222 c 0
 712 79 617 5 523 5 c 0
 432 5 341 76 341 220 c 0
 341 360.26 387.965 631.668 444.358 943.3 c 0
 449.956 974.236 428.814 991.761 399.442 980.518 c 0
 305.316 944.487 220.031 915 153 915 c 0
 73 915 34 985 34 1056 c 0
 34 1127 74 1199 152 1199 c 0
 220.907 1199 308.175 1168.64 404.307 1131.64 c 0
 429.641 1121.89 445.253 1138.96 433.298 1163.31 c 0
 382.387 1267 338 1372.55 338 1457 c 0
 338 1571 430 1627 523 1627 c 0
EndSplineSet
EndChar

StartChar: daggerdbl
Encoding: 8225 8225 260
Width: 1061
VWidth: 0
Flags: HW
LayerCount: 2
Fore
SplineSet
153 673 m 0
 220.031 673 305.316 643.513 399.442 607.482 c 0
 430.982 595.409 455 611.933 455 645.704 c 2
 455 942.296 l 2
 455 976.067 430.982 992.591 399.442 980.518 c 0
 305.316 944.487 220.031 915 153 915 c 0
 73 915 34 985 34 1056 c 0
 34 1127 74 1199 152 1199 c 0
 220.907 1199 308.175 1168.64 404.307 1131.64 c 0
 429.641 1121.89 445.253 1138.96 433.298 1163.31 c 0
 382.387 1267 338 1372.55 338 1457 c 0
 338 1571 430 1627 523 1627 c 0
 617 1627 713 1569 713 1458 c 0
 713 1371.5 663.856 1262.26 610.797 1156.04 c 0
 598.736 1131.89 614.461 1114.67 639.593 1124.49 c 0
 731.673 1160.46 830.848 1199 908 1199 c 0
 986 1199 1025 1128 1025 1058 c 0
 1025 986 986 915 907 915 c 0
 832.776 915 736.788 951.047 647.642 985.561 c 0
 616.263 997.71 592 981.085 592 947.437 c 2
 592 640.563 l 2
 592 606.915 616.263 590.29 647.642 602.439 c 0
 736.788 636.953 832.776 673 907 673 c 0
 986 673 1025 602 1025 530 c 0
 1025 460 986 389 908 389 c 0
 830.894 389 731.79 427.495 639.756 463.45 c 0
 614.577 473.286 598.792 455.999 610.888 431.78 c 0
 663.912 325.616 713 216.452 713 130 c 0
 713 19 617 -39 523 -39 c 0
 430 -39 338 17 338 131 c 0
 338 215.498 382.438 321.122 433.385 424.867 c 0
 445.289 449.108 429.715 466.136 404.475 456.423 c 0
 308.276 419.4 220.947 389 152 389 c 0
 74 389 34 461 34 532 c 0
 34 603 73 673 153 673 c 0
EndSplineSet
EndChar

StartChar: dcroat
Encoding: 273 273 262
Width: 1478
VWidth: 0
Flags: HW
LayerCount: 2
Fore
SplineSet
822 259 m 2
 822 1045 l 2
 822 1083 800 1105 762 1105 c 2
 715 1105 l 2
 677 1105 655 1083 655 1045 c 2
 655 259 l 2
 655 221 677 199 715 199 c 2
 762 199 l 2
 800 199 822 221 822 259 c 2
85 940 m 2
 85 1203 228 1327 500 1327 c 0
 621 1327 733 1294 799 1245 c 0
 823 1228 823 1248 823 1278 c 2
 823 1407 l 1
 699 1407 l 2
 651 1407 645 1435 645 1483 c 2
 645 1521 l 2
 645 1569 651 1597 699 1597 c 2
 823 1597 l 1
 823 1654 l 2
 823 1702 851 1710 899 1710 c 2
 1318 1710 l 2
 1366 1710 1394 1702 1394 1654 c 2
 1394 1597 l 1
 1422 1597 l 2
 1470 1597 1478 1569 1478 1521 c 2
 1478 1483 l 2
 1478 1435 1470 1407 1422 1407 c 2
 1394 1407 l 1
 1394 76 l 2
 1394 28 1366 0 1318 0 c 2
 933 0 l 2
 894 0 866 12 856 56 c 0
 848 90 846 87 834 75 c 0
 773 18 622 -27 502 -27 c 0
 224 -27 85 106 85 377 c 2
 85 940 l 2
EndSplineSet
EndChar

StartChar: degree
Encoding: 176 176 263
Width: 812
VWidth: 0
Flags: HW
LayerCount: 2
Fore
SplineSet
404 1222 m 0
 487 1222 545 1283 545 1371 c 0
 545 1459 487 1520 404 1520 c 0
 321 1520 263 1459 263 1371 c 0
 263 1283 321 1222 404 1222 c 0
404 1070 m 0
 196 1070 73 1218 73 1371 c 0
 73 1524 196 1672 404 1672 c 0
 612 1672 735 1524 735 1371 c 0
 735 1218 612 1070 404 1070 c 0
EndSplineSet
EndChar

StartChar: dieresis
Encoding: 168 168 264
Width: 1296
VWidth: 0
Flags: HW
LayerCount: 2
Fore
SplineSet
841.887 418 m 2
 1141.11 418 l 2
 1188.6 418 1217 389.603 1217 342.113 c 2
 1217 157.887 l 2
 1217 110.397 1188.6 82 1141.11 82 c 2
 841.887 82 l 2
 794.397 82 766 110.397 766 157.887 c 2
 766 342.113 l 2
 766 389.603 794.397 418 841.887 418 c 2
158.887 418 m 2
 457.113 418 l 2
 504.603 418 533 389.603 533 342.113 c 2
 533 157.887 l 2
 533 110.397 504.603 82 457.113 82 c 2
 158.887 82 l 2
 111.397 82 83 110.397 83 157.887 c 2
 83 342.113 l 2
 83 389.603 111.397 418 158.887 418 c 2
EndSplineSet
EndChar

StartChar: divide
Encoding: 247 247 265
Width: 1286
VWidth: 0
Flags: HW
LayerCount: 2
Fore
SplineSet
142.887 908 m 2
 1153.11 908 l 2
 1200.6 908 1229 879.603 1229 832.113 c 2
 1229 745.887 l 2
 1229 698.397 1200.6 670 1153.11 670 c 2
 142.887 670 l 2
 95.397 670 67 698.397 67 745.887 c 2
 67 832.113 l 2
 67 879.603 95.397 908 142.887 908 c 2
901 1421.11 m 2
 901 1075.89 l 2
 901 1028.4 872.603 1000 825.113 1000 c 2
 469.887 1000 l 2
 422.397 1000 394 1028.4 394 1075.89 c 2
 394 1421.11 l 2
 394 1468.6 422.397 1497 469.887 1497 c 2
 825.113 1497 l 2
 872.603 1497 901 1468.6 901 1421.11 c 2
901 483.113 m 2
 901 167.887 l 2
 901 120.397 872.603 92 825.113 92 c 2
 469.887 92 l 2
 422.397 92 394 120.397 394 167.887 c 2
 394 483.113 l 2
 394 530.603 422.397 559 469.887 559 c 2
 825.113 559 l 2
 872.603 559 901 530.603 901 483.113 c 2
EndSplineSet
EndChar

StartChar: dollar
Encoding: 36 36 266
Width: 1434
VWidth: 0
Flags: HW
LayerCount: 2
Fore
SplineSet
600 1241.5 m 2
 600 1073.55 l 2
 600 1045.77 614.378 1027.71 641.448 1021.48 c 0
 642.113 1021.33 642.78 1021.18 643.447 1021.02 c 0
 667.688 1015.46 685 1029.25 685 1054.12 c 2
 685 1241.5 l 2
 685 1267.47 669.471 1283 643.5 1283 c 2
 641.5 1283 l 2
 615.529 1283 600 1267.47 600 1241.5 c 2
847 323.5 m 2
 847 514.736 l 2
 847 541.431 832.713 558.758 806.5 563.811 c 2
 804.5 564.189 l 2
 780.257 568.863 764 555.425 764 530.736 c 2
 764 323.5 l 2
 764 298.155 779.155 283 804.5 283 c 2
 806.5 283 l 2
 831.845 283 847 298.155 847 323.5 c 2
725.5 -168 m 2
 723.5 -168 l 2
 699.407 -168 685 -153.593 685 -129.5 c 2
 685 -38.2354 l 2
 685 -0.323846 663.331 21.9424 625.434 22.9738 c 0
 499.472 26.4017 391.978 38.9412 301 71 c 0
 165.773 119.041 103.363 214.57 99.6846 406.174 c 0
 98.8198 451.223 129.123 480.197 174.088 477.313 c 2
 524.268 454.857 l 2
 572.253 451.779 600 422.196 600 374.113 c 2
 600 324.5 l 2
 600 298.529 615.529 283 641.5 283 c 2
 643.5 283 l 2
 669.471 283 685 298.529 685 324.5 c 2
 685 525.951 l 2
 685 564.799 664.552 589.55 626.402 596.881 c 0
 350.691 649.861 70 735.481 70 1080 c 0
 70 1439.85 307.822 1528.16 625.473 1542.2 c 0
 663.602 1543.89 685 1566.26 685 1604.42 c 2
 685 1691.5 l 2
 685 1715.59 699.407 1730 723.5 1730 c 2
 725.5 1730 l 2
 749.593 1730 764 1715.59 764 1691.5 c 2
 764 1605.22 l 2
 764 1567.31 785.663 1545.05 823.555 1544.02 c 0
 947.7 1540.62 1054.2 1528.54 1145 1500 c 1
 1316.74 1443.9 1349.95 1322.26 1348.75 1167.86 c 0
 1348.4 1122.07 1318.02 1093.68 1272.31 1096.43 c 2
 922.751 1117.45 l 2
 874.789 1120.33 847 1149.84 847 1197.89 c 2
 847 1242.5 l 2
 847 1267.84 831.845 1283 806.5 1283 c 2
 804.5 1283 l 2
 779.155 1283 764 1267.84 764 1242.5 c 2
 764 1056.92 l 2
 764 1018.12 784.415 993.171 822.45 985.499 c 0
 1091.35 931.258 1378 848.318 1378 510 c 0
 1378 142.556 1170.8 40.5788 823.555 24.8596 c 0
 785.383 23.1317 764 0.731971 764 -37.4792 c 2
 764 -129.5 l 2
 764 -153.593 749.593 -168 725.5 -168 c 2
EndSplineSet
EndChar

StartChar: dotaccent
Encoding: 729 729 267
Width: 700
VWidth: 0
Flags: HW
LayerCount: 2
Fore
SplineSet
350 -39 m 0
 248 -39 146 31 146 171 c 0
 146 311 248 381 350 381 c 0
 452 381 554 311 554 171 c 0
 554 31 452 -39 350 -39 c 0
EndSplineSet
EndChar

StartChar: dotlessi
Encoding: 305 305 268
Width: 744
VWidth: 0
Flags: HW
LayerCount: 2
Fore
SplineSet
669 1222.11 m 2
 669 75.8873 l 2
 669 28.397 640.603 0 593.113 0 c 2
 175.887 0 l 2
 128.397 0 100 28.397 100 75.8873 c 2
 100 1222.11 l 2
 100 1269.6 128.397 1298 175.887 1298 c 2
 593.113 1298 l 2
 640.603 1298 669 1269.6 669 1222.11 c 2
EndSplineSet
EndChar

StartChar: e
Encoding: 101 101 269
Width: 1513
VWidth: 0
Flags: HW
LayerCount: 2
Fore
SplineSet
666 995 m 2
 666 817 l 2
 666 779 668 777 706 777 c 2
 832 777 l 2
 870 777 872 779 872 817 c 2
 872 995 l 2
 872 1073 866 1105 818 1105 c 2
 726 1105 l 2
 668 1105 666 1073 666 995 c 2
917 483 m 2
 1332 483 l 2
 1380.71428571 483 1382.28571429 473.756756757 1387 426 c 0
 1388 409.331288344 1380 318.969325153 1373 283 c 0
 1337 79 1245 -27 783 -27 c 0
 289 -27 188 77 126 353 c 0
 108 431 102 545 102 658 c 0
 102 773 113 882 126 953 c 0
 176 1217 295 1327 781 1327 c 0
 1361 1327 1381 1108 1408 835 c 0
 1413 782 1416 723 1409 680 c 0
 1401 632 1381 604 1333 604 c 2
 706 604 l 2
 668 604 666 602 666 564 c 2
 666 314 l 2
 666 276 674 234 726 234 c 2
 811 234 l 2
 869 234 871 276 871 314 c 2
 871 397 l 2
 871 470.714285714 869 483 917 483 c 2
EndSplineSet
EndChar

StartChar: eight
Encoding: 56 56 275
Width: 1427
VWidth: 0
Flags: HW
LayerCount: 2
Fore
SplineSet
628 660.404 m 2
 628 294.596 l 2
 628 257.301 650.301 235 687.596 235 c 2
 734.404 235 l 2
 771.699 235 794 257.301 794 294.596 c 2
 794 660.404 l 2
 794 697.699 771.699 720 734.404 720 c 2
 687.596 720 l 2
 650.301 720 628 697.699 628 660.404 c 2
734.404 1355 m 2
 699.596 1355 l 2
 662.301 1355 640 1332.7 640 1295.4 c 2
 640 1019.6 l 2
 640 982.301 662.301 960 699.596 960 c 2
 734.404 960 l 2
 771.699 960 794 982.301 794 1019.6 c 2
 794 1295.4 l 2
 794 1332.7 771.699 1355 734.404 1355 c 2
200.049 894.936 m 0
 138.615 952.083 119 1062.95 119 1181 c 0
 119 1529 366 1631 719 1631 c 0
 1071 1631 1310 1528 1310 1180 c 0
 1310 1048.92 1279.03 941.249 1202.25 888.945 c 0
 1178.98 873.1 1180.12 856.942 1205.34 844.512 c 0
 1320.36 787.828 1368 644.795 1368 470 c 0
 1368 34 1100 -40 721 -40 c 0
 287 -40 64 75 64 470 c 0
 64 590.379 82.2624 765.546 195.121 838.849 c 0
 223.838 857.501 225.067 871.663 200.049 894.936 c 0
EndSplineSet
EndChar

StartChar: ellipsis
Encoding: 8230 8230 276
Width: 2010
VWidth: 0
Flags: HW
LayerCount: 2
Fore
SplineSet
1680 -39 m 0
 1578 -39 1476 31 1476 171 c 0
 1476 311 1578 381 1680 381 c 0
 1782 381 1884 311 1884 171 c 0
 1884 31 1782 -39 1680 -39 c 0
1010 -39 m 0
 908 -39 806 31 806 171 c 0
 806 311 908 381 1010 381 c 0
 1112 381 1214 311 1214 171 c 0
 1214 31 1112 -39 1010 -39 c 0
340 -39 m 0
 238 -39 136 31 136 171 c 0
 136 311 238 381 340 381 c 0
 442 381 544 311 544 171 c 0
 544 31 442 -39 340 -39 c 0
EndSplineSet
EndChar

StartChar: emdash
Encoding: 8212 8212 278
Width: 1857
VWidth: 0
Flags: HW
LayerCount: 2
Fore
SplineSet
162.887 897 m 2
 1696.11 897 l 2
 1743.6 897 1772 868.603 1772 821.113 c 2
 1772 536.887 l 2
 1772 489.397 1743.6 461 1696.11 461 c 2
 162.887 461 l 2
 115.397 461 87 489.397 87 536.887 c 2
 87 821.113 l 2
 87 868.603 115.397 897 162.887 897 c 2
EndSplineSet
EndChar

StartChar: endash
Encoding: 8211 8211 279
Width: 1005
VWidth: 0
Flags: HW
LayerCount: 2
Fore
SplineSet
162.887 897 m 6
 844.113 897 l 6
 891.603 897 920 868.603 920 821.113 c 6
 920 536.887 l 6
 920 489.397 891.603 461 844.113 461 c 6
 162.887 461 l 6
 115.397 461 87 489.397 87 536.887 c 6
 87 821.113 l 6
 87 868.603 115.397 897 162.887 897 c 6
EndSplineSet
EndChar

StartChar: equal
Encoding: 61 61 281
Width: 1008
VWidth: 0
Flags: HW
LayerCount: 2
Fore
SplineSet
164.887 897 m 2
 847.113 897 l 2
 894.603 897 923 868.603 923 821.113 c 2
 923 636.887 l 2
 923 589.397 894.603 561 847.113 561 c 2
 164.887 561 l 2
 117.397 561 89 589.397 89 636.887 c 2
 89 821.113 l 2
 89 868.603 117.397 897 164.887 897 c 2
164.887 336 m 2
 847.113 336 l 2
 894.603 336 923 307.603 923 260.113 c 2
 923 75.8873 l 2
 923 28.397 894.603 0 847.113 0 c 2
 164.887 0 l 2
 117.397 0 89 28.397 89 75.8873 c 2
 89 260.113 l 2
 89 307.603 117.397 336 164.887 336 c 2
EndSplineSet
EndChar

StartChar: eth
Encoding: 240 240 282
Width: 1395
VWidth: 0
Flags: HW
LayerCount: 2
Fore
SplineSet
762 297.596 m 2
 762 768.404 l 2
 762 805.699 739.699 828 702.404 828 c 2
 699.596 828 l 2
 662.301 828 640 805.699 640 768.404 c 2
 640 297.596 l 2
 640 260.301 662.301 238 699.596 238 c 2
 702.404 238 l 2
 739.699 238 762 260.301 762 297.596 c 2
306.33 1576.95 m 2
 509.935 1886.9 l 2
 509.968 1886.95 510.026 1887.05 510.053 1887.11 c 2
 510.958 1888.92 l 2
 510.979 1888.96 511.043 1888.98 511.086 1888.96 c 0
 628.953 1839.92 733.496 1781.25 832.36 1709.77 c 0
 865.113 1686.09 897.029 1685.71 930.334 1708.6 c 2
 1030.31 1777.34 l 2
 1065.8 1801.74 1101.47 1793.67 1123 1756.37 c 2
 1124 1754.63 l 2
 1146.24 1716.1 1138 1679.5 1101.39 1654.22 c 2
 1040.99 1612.52 l 2
 1010.86 1591.72 1007.87 1562.28 1033.18 1535.83 c 0
 1156.18 1407.37 1256.75 1250.51 1308 1050 c 0
 1327 975 1337 894 1337 807 c 0
 1337 471 1326 171 1119 45 c 0
 1017 -17 880 -37 708 -37 c 0
 414 -37 191 12 112 221 c 0
 80 306 72 408 72 525 c 0
 72 761 109 933 258 1021 c 0
 349 1075 470 1097 623 1097 c 2
 711.025 1097 l 2
 741.083 1097 762.732 1127.29 752.996 1155.73 c 0
 737.144 1202.03 705.257 1239.87 678 1270 c 0
 669.268 1279.76 660.271 1289.26 651.011 1298.49 c 0
 634.636 1314.81 613.44 1316.75 594.377 1303.66 c 2
 429.872 1190.73 l 2
 394.342 1166.34 358.677 1174.6 337.492 1212.13 c 2
 336.508 1213.87 l 2
 314.546 1252.78 323.028 1289.46 359.837 1314.78 c 2
 458.099 1382.37 l 2
 485.505 1401.22 484.955 1430.38 456.858 1448.19 c 0
 421.897 1470.34 386.765 1491.77 353 1510 c 2
 318.619 1528.47 l 2
 298.595 1539.23 293.85 1557.95 306.33 1576.95 c 2
EndSplineSet
EndChar

StartChar: exclam
Encoding: 33 33 283
Width: 801
VWidth: 0
Flags: HW
LayerCount: 2
Fore
SplineSet
398 -39 m 0
 296 -39 194 31 194 171 c 0
 194 311 296 381 398 381 c 0
 500 381 602 311 602 171 c 0
 602 31 500 -39 398 -39 c 0
398 539 m 0
 373 539 348 561 337 607 c 0
 273 880 145 1259 145 1413 c 0
 145 1560 270 1631 396 1631 c 0
 525 1631 656 1556 656 1411 c 0
 656 1253 521 874 458 607 c 0
 447 562 423 539 398 539 c 0
EndSplineSet
EndChar

StartChar: f
Encoding: 102 102 285
Width: 1205
VWidth: 0
Flags: HW
LayerCount: 2
Fore
SplineSet
131.887 1300 m 2
 241 1300 l 2
 260 1300 264 1308 265 1330 c 0
 278 1609 465.98 1731 773 1731 c 0
 870.01 1731 969.55 1723.41 1065.58 1702.2 c 0
 1110.99 1692.18 1139 1657.3 1139 1610.81 c 2
 1139 1552.89 l 2
 1139 1505.4 1111 1477 1063.11 1477 c 2
 994 1477 l 2
 846 1477 834 1425 834 1323 c 0
 834 1305 846 1300 864 1300 c 2
 1072.11 1300 l 2
 1120 1300 1148 1271.6 1148 1224.11 c 2
 1148 1173.89 l 2
 1148 1126.4 1120 1098 1072.11 1098 c 2
 854 1098 l 2
 836 1098 834 1086 834 1068 c 2
 834 75.8873 l 2
 834 28 805.603 0 758.113 0 c 2
 338.887 0 l 2
 291.397 0 263 28 263 75.8873 c 2
 263 1068 l 2
 263 1096 261 1098 233 1098 c 2
 131.887 1098 l 2
 84 1098 56 1126.4 56 1173.89 c 2
 56 1224.11 l 2
 56 1271.6 84 1300 131.887 1300 c 2
EndSplineSet
EndChar

StartChar: five
Encoding: 53 53 286
Width: 1429
VWidth: 0
Flags: HW
LayerCount: 2
Fore
SplineSet
648.536 1037.57 m 0
 720.241 1086.6 826.123 1105 955 1105 c 0
 1281 1105 1364 881 1364 553 c 0
 1364 87 1187 -39 714 -39 c 0
 369 -39 113 30 75 331 c 0
 71.8828 354.379 69.5754 378.568 68.0777 403.426 c 0
 65.5335 445.653 92.2244 474 134.528 474 c 2
 540.113 474 l 2
 587.603 474 616 445.603 616 398.113 c 2
 616 295.596 l 2
 616 258.301 638.301 236 675.596 236 c 2
 737.404 236 l 2
 774.699 236 797 258.301 797 295.596 c 2
 797 778.404 l 2
 797 815.699 774.699 838 737.404 838 c 2
 675.596 838 l 2
 638.301 838 616 815.699 616 778.404 c 2
 616 730.887 l 2
 616 683.397 587.603 655 540.113 655 c 2
 158.887 655 l 2
 111.963 655 84.6287 683.917 87.2674 730.767 c 2
 131.733 1520.23 l 2
 134.433 1568.17 163.873 1596 211.887 1596 c 2
 1153.11 1596 l 2
 1200.6 1596 1229 1567.6 1229 1520.11 c 2
 1229 1374.89 l 2
 1229 1327.4 1200.6 1299 1153.11 1299 c 2
 697.596 1299 l 2
 659.51 1299 635.586 1277.63 631.311 1239.78 c 2
 611.019 1060.14 l 2
 607.892 1032.46 625.539 1021.84 648.536 1037.57 c 0
EndSplineSet
EndChar

StartChar: four
Encoding: 52 52 287
Width: 1459
VWidth: 0
Flags: HW
LayerCount: 2
Fore
SplineSet
1377 862.113 m 2
 1377 75.8873 l 2
 1377 28.397 1348.6 0 1301.11 0 c 2
 940.887 0 l 2
 893.397 0 865 28.397 865 75.8873 c 2
 865 180.404 l 2
 865 217.699 842.699 240 805.404 240 c 2
 148.887 240 l 2
 101.397 240 73 268.397 73 315.887 c 2
 73 581.113 l 2
 73 626.057 81.0877 686.867 92.8351 730.249 c 2
 307.165 1521.75 l 2
 320.125 1569.61 353.303 1595 402.887 1595 c 2
 824.113 1595 l 2
 868.615 1595 891.887 1564.68 880.383 1521.69 c 2
 655.721 682.116 l 2
 651.746 667.261 649 646.378 649 631 c 2
 649 629 l 2
 649 612.729 658.729 603 675 603 c 2
 805.404 603 l 2
 842.699 603 865 625.301 865 662.596 c 2
 865 862.113 l 2
 865 909.603 893.397 938 940.887 938 c 2
 1301.11 938 l 2
 1348.6 938 1377 909.603 1377 862.113 c 2
EndSplineSet
EndChar

StartChar: g
Encoding: 103 103 288
Width: 1553
VWidth: 0
Flags: HW
LayerCount: 2
Fore
SplineSet
102 705 m 0
 102 790 105 875 111 927 c 0
 142 1194 271 1327 548 1327 c 1
 677 1326 780 1293 848 1230 c 0
 867 1212 878 1198 887 1198 c 0
 895 1198 901 1211 906 1245 c 1
 905 1244 l 1
 917 1280 923 1299 961 1299 c 2
 1358 1299 l 2
 1406 1299 1432 1270 1434 1223 c 0
 1443 1037 1451 803 1451 587 c 0
 1451 413 1446 251 1434 136 c 0
 1391 -281 1207 -372 715 -372 c 0
 553 -372 421 -354 312 -330 c 0
 273 -321 250 -294 250 -257 c 0
 250 -251 251 -245 252 -238 c 2
 280 -98 l 2
 288 -56 311 -34 349 -34 c 0
 355 -34 362 -35 369 -36 c 0
 437 -48 521 -60 601 -60 c 0
 615 -60 628 -60 641 -59 c 0
 833 -48 876 -2 876 142 c 0
 876 175 872 186 865 186 c 0
 857 186 846 173 833 164 c 0
 764 113 657 91 545 91 c 0
 274 91 141 216 111 482 c 0
 105 535 102 620 102 705 c 0
863 376 m 2
 863 1044 l 2
 863 1082 841 1104 803 1104 c 2
 725 1104 l 2
 687 1104 655 1082 655 1044 c 2
 655 376 l 2
 655 338 687 316 725 316 c 2
 803 316 l 2
 841 316 863 338 863 376 c 2
EndSplineSet
EndChar

StartChar: germandbls
Encoding: 223 223 293
Width: 1389
VWidth: 0
Flags: HW
LayerCount: 2
Fore
SplineSet
595 1298.4 m 2
 595 -129.113 l 2
 595 -176.603 566.603 -205 519.113 -205 c 2
 174.887 -205 l 2
 127.397 -205 99 -176.603 99 -129.113 c 2
 99 1217 l 2
 99 1464 244 1542 463 1578 c 0
 532 1589 616 1595 715 1595 c 0
 975 1595 1172 1538 1236 1350 c 0
 1254 1297 1258 1235 1258 1170 c 0
 1258 1035 1207 957 1122 909 c 0
 1098.09 895.852 1072.4 885.918 1044.71 879.199 c 0
 1031.05 875.885 1031.41 865.786 1045.22 863.448 c 0
 1158.64 844.247 1244.17 788.669 1293 703 c 0
 1316 663 1327 613 1327 553 c 2
 1327 258 l 2
 1327 50 1186 0 996 -25 c 0
 935 -33 862 -37 776 -37 c 2
 733 -37 l 2
 707.342 -37 692 -21.6578 692 4 c 2
 692 125.5 l 2
 692 168.367 717.633 194 760.5 194 c 2
 771.404 194 l 2
 808.699 194 831 216.301 831 253.596 c 2
 831 695 l 2
 831 729.419 810.419 750 776 750 c 2
 774 750 l 2
 739.581 750 719 770.581 719 805 c 2
 719 926 l 2
 719 960.419 739.581 981 774 981 c 2
 776 981 l 2
 810.419 981 831 1001.58 831 1036 c 2
 831 1298.4 l 2
 831 1335.7 808.699 1358 771.404 1358 c 2
 654.596 1358 l 2
 617.301 1358 595 1335.7 595 1298.4 c 2
EndSplineSet
EndChar

StartChar: grave
Encoding: 96 96 294
Width: 873
VWidth: 0
Flags: HW
LayerCount: 2
Fore
SplineSet
340 1893 m 0
 441 1835 651 1629 814 1480 c 0
 838 1459 848 1438 848 1420 c 0
 848 1391 820 1371 785 1371 c 0
 775 1371 764 1372 753 1376 c 0
 548 1438 261 1510 157 1570 c 0
 76 1617 41 1687 41 1752 c 0
 41 1846 112 1930 215 1930 c 0
 253 1930 295 1919 340 1893 c 0
EndSplineSet
EndChar

StartChar: greater
Encoding: 62 62 295
Width: 1035
VWidth: 0
Flags: HW
LayerCount: 2
Fore
SplineSet
963 1022.11 m 2
 963 564.887 l 2
 963 514.26 940.938 476.699 896.72 452.043 c 2
 152.28 36.9568 l 2
 116.705 17.1208 86 35.1559 86 75.8873 c 2
 86 428.113 l 2
 86 478.587 108.843 515.136 154.213 537.255 c 2
 633.431 770.884 l 2
 660.216 783.942 660.251 810.13 633.502 823.26 c 2
 154.123 1058.56 l 2
 108.805 1080.81 86 1117.4 86 1167.89 c 2
 86 1521.11 l 2
 86 1561.7 116.68 1579.54 151.958 1559.47 c 2
 897.042 1135.53 l 2
 941.062 1110.48 963 1072.76 963 1022.11 c 2
EndSplineSet
EndChar

StartChar: guillemotleft
Encoding: 171 171 296
Width: 1806
VWidth: 0
Flags: HW
LayerCount: 2
Fore
SplineSet
1510 190 m 0
 1491 190 1469 196 1446 213 c 2
 920 593 l 2
 860 636 830 706 830 775 c 0
 831 846 862 919 920 961 c 2
 1446 1341 l 2
 1470 1358 1494 1364 1512 1364 c 0
 1558 1364 1592 1326 1592 1278 c 0
 1592 1256 1586 1233 1568 1209 c 2
 1270.45 824.148 l 2
 1246.66 793.38 1246.66 760.62 1270.45 729.852 c 2
 1568 345 l 2
 1585 323 1590 300 1590 277 c 0
 1590 230 1556 190 1510 190 c 0
774 190 m 0
 755 190 732 197 711 213 c 2
 184 593 l 2
 124 636 94 706 94 775 c 0
 95 846 126 919 184 961 c 2
 711 1341 l 2
 735 1358 757 1364 776 1364 c 0
 822 1364 857 1326 857 1278 c 0
 857 1256 850 1233 832 1209 c 2
 534.452 824.148 l 2
 510.664 793.38 510.664 760.62 534.452 729.852 c 2
 832 345 l 2
 849 323 855 300 855 277 c 0
 855 230 820 190 774 190 c 0
EndSplineSet
EndChar

StartChar: guillemotright
Encoding: 187 187 297
Width: 1770
VWidth: 0
Flags: HW
LayerCount: 2
Fore
SplineSet
906 775 m 0
 906 706 876 636 816 593 c 2
 290 213 l 2
 267 196 245 190 226 190 c 0
 180 190 146 230 146 277 c 0
 146 300 151 323 168 345 c 2
 465.548 729.852 l 2
 489.336 760.62 489.336 793.38 465.548 824.148 c 2
 168 1209 l 2
 150 1233 144 1256 144 1278 c 0
 144 1326 178 1364 224 1364 c 0
 242 1364 266 1358 290 1341 c 2
 816 961 l 2
 874 919 905 846 906 775 c 0
1642 775 m 0
 1642 706 1612 636 1552 593 c 2
 1025 213 l 2
 1004 197 981 190 962 190 c 0
 916 190 881 230 881 277 c 0
 881 300 887 323 904 345 c 2
 1201.55 729.852 l 2
 1225.34 760.62 1225.34 793.38 1201.55 824.148 c 2
 904 1209 l 2
 886 1233 879 1256 879 1278 c 0
 879 1326 914 1364 960 1364 c 0
 979 1364 1001 1358 1025 1341 c 2
 1552 961 l 2
 1610 919 1641 846 1642 775 c 0
EndSplineSet
EndChar

StartChar: guilsinglleft
Encoding: 8249 8249 298
Width: 1036
VWidth: 0
Flags: HW
LayerCount: 2
Fore
SplineSet
824 190 m 0
 805 190 783 196 760 213 c 2
 234 593 l 2
 174 636 144 706 144 775 c 0
 145 846 176 919 234 961 c 2
 760 1341 l 2
 784 1358 808 1364 826 1364 c 0
 872 1364 906 1326 906 1278 c 0
 906 1256 900 1233 882 1209 c 2
 584.452 824.148 l 2
 560.664 793.38 560.664 760.62 584.452 729.852 c 2
 882 345 l 2
 899 323 904 300 904 277 c 0
 904 230 870 190 824 190 c 0
EndSplineSet
EndChar

StartChar: guilsinglright
Encoding: 8250 8250 299
Width: 1034
VWidth: 0
Flags: HW
LayerCount: 2
Fore
SplineSet
906 775 m 0
 906 706 876 636 816 593 c 2
 290 213 l 2
 267 196 245 190 226 190 c 0
 180 190 146 230 146 277 c 0
 146 300 151 323 168 345 c 2
 465.548 729.852 l 2
 489.336 760.62 489.336 793.38 465.548 824.148 c 2
 168 1209 l 2
 150 1233 144 1256 144 1278 c 0
 144 1326 178 1364 224 1364 c 0
 242 1364 266 1358 290 1341 c 2
 816 961 l 2
 874 919 905 846 906 775 c 0
EndSplineSet
EndChar

StartChar: h
Encoding: 104 104 300
Width: 1591
VWidth: 0
Flags: HW
LayerCount: 2
Fore
SplineSet
215 0 m 2
 167 0 140 28 139 76 c 0
 136 183 133 290 131 395 c 0
 130 454 129 513 128 570 c 0
 127 686 126 801 126 913 c 0
 126 1167 130 1409 139 1634 c 0
 141 1679 167 1710 215 1710 c 2
 634 1710 l 2
 682 1710 708 1681 710 1634 c 0
 715 1512 718 1369 720 1224 c 1
 723 1226 726 1228 729 1231 c 0
 798 1290 950 1327 1073 1327 c 0
 1346 1326 1444 1195 1464 944 c 0
 1472 841 1477 684 1477 516 c 0
 1477 370 1473 214 1464 76 c 0
 1461 28 1436 0 1388 0 c 2
 969 0 l 2
 921 0 893 28 893 76 c 2
 893 1045 l 2
 893 1083 871 1105 833 1105 c 2
 774 1105 l 2
 750 1105 732 1096 722 1079 c 1
 723 1021 723 963 723 907 c 0
 723 681 719 476 714 249 c 1
 714 76 l 2
 714 28 686 0 638 0 c 2
 215 0 l 2
EndSplineSet
EndChar

StartChar: hbar
Encoding: 295 295 301
Width: 1511
VWidth: 0
Flags: HW
LayerCount: 2
Fore
SplineSet
740.641 1255.36 m 0
 805.339 1312.91 910.572 1343 1023 1343 c 0
 1298 1343 1439 1213 1439 945 c 2
 1439 75.8873 l 2
 1439 28.397 1410.6 0 1363.11 0 c 2
 943.887 0 l 2
 896.397 0 868 28.397 868 75.8873 c 2
 868 1005.4 l 2
 868 1042.7 845.699 1065 808.404 1065 c 2
 761.596 1065 l 2
 724.301 1065 702 1042.7 702 1005.4 c 2
 702 75.8873 l 2
 702 28.397 673.603 0 626.113 0 c 2
 205.887 0 l 2
 158.397 0 130 28.397 130 75.8873 c 2
 130 1450 l 1
 118.887 1450 l 2
 71.397 1450 43 1478.4 43 1525.89 c 2
 43 1543.11 l 2
 43 1590.6 71.397 1619 118.887 1619 c 2
 130 1619 l 1
 130 1634.11 l 2
 130 1681.6 158.397 1710 205.887 1710 c 2
 626.113 1710 l 2
 673.603 1710 702 1681.6 702 1634.11 c 2
 702 1619 l 1
 1112.11 1619 l 2
 1159.6 1619 1188 1590.6 1188 1543.11 c 2
 1188 1525.89 l 2
 1188 1478.4 1159.6 1450 1112.11 1450 c 2
 702 1450 l 1
 702 1272.71 l 2
 702 1245.36 720.204 1237.19 740.641 1255.36 c 0
EndSplineSet
EndChar

StartChar: hungarumlaut
Encoding: 733 733 303
Width: 1636
VWidth: 0
Flags: HW
LayerCount: 2
Fore
SplineSet
69 1420 m 0
 69 1438 79 1459 103 1480 c 0
 266 1629 476 1835 577 1893 c 0
 622 1919 664 1930 702 1930 c 0
 805 1930 876 1846 876 1752 c 0
 876 1687 841 1617 760 1570 c 0
 656 1510 369 1438 164 1376 c 0
 153 1372 142 1371 132 1371 c 0
 97 1371 69 1391 69 1420 c 0
760 1420 m 0
 760 1438 770 1459 794 1480 c 0
 957 1629 1167 1835 1268 1893 c 0
 1313 1919 1355 1930 1393 1930 c 0
 1496 1930 1567 1846 1567 1752 c 0
 1567 1687 1532 1617 1451 1570 c 0
 1347 1510 1060 1438 855 1376 c 0
 844 1372 833 1371 823 1371 c 0
 788 1371 760 1391 760 1420 c 0
EndSplineSet
EndChar

StartChar: hyphen
Encoding: 45 45 304
Width: 1328
VWidth: 0
Flags: HW
LayerCount: 2
Fore
SplineSet
239.887 811 m 6
 1089.11 811 l 6
 1136.6 811 1165 782.603 1165 735.113 c 6
 1165 553.887 l 6
 1165 506.397 1136.6 478 1089.11 478 c 6
 239.887 478 l 6
 192.397 478 164 506.397 164 553.887 c 6
 164 735.113 l 6
 164 782.603 192.397 811 239.887 811 c 6
EndSplineSet
EndChar

StartChar: i
Encoding: 105 105 305
Width: 759
VWidth: 0
Flags: HW
LayerCount: 2
Fore
SplineSet
598 1299 m 2
 646 1299 672 1270 674 1223 c 0
 682.576585405 1055.67924843 685.934452705 886.35257373 685.934452705 715.676216196 c 0
 685.934452705 504.108049347 680.774835958 290.465992871 674 76 c 0
 673 28 646 0 598 0 c 2
 179 0 l 2
 131 0 104 28 103 76 c 0
 95.136619062 283.68516356 89.9201172406 493.298500454 89.9201172406 700.251038402 c 0
 89.9201172406 877.410083827 93.7427670378 1052.61929718 103 1223 c 0
 105 1268 131 1299 179 1299 c 2
 598 1299 l 2
179.887 1709 m 2
 599.113 1709 l 2
 646.603 1709 675 1680.6 675 1633.11 c 2
 675 1500.89 l 2
 675 1453.4 646.603 1425 599.113 1425 c 2
 179.887 1425 l 2
 132.397 1425 104 1453.4 104 1500.89 c 2
 104 1633.11 l 2
 104 1680.6 132.397 1709 179.887 1709 c 2
EndSplineSet
EndChar

StartChar: j
Encoding: 106 106 315
Width: 868
VWidth: 0
Flags: HW
LayerCount: 2
Fore
SplineSet
287.887 1709 m 2
 708.113 1709 l 2
 755.603 1709 784 1680.6 784 1633.11 c 2
 784 1500.89 l 2
 784 1453.4 755.603 1425 708.113 1425 c 2
 287.887 1425 l 2
 240.397 1425 212 1453.4 212 1500.89 c 2
 212 1633.11 l 2
 212 1680.6 240.397 1709 287.887 1709 c 2
784 1224.11 m 2
 784 94 l 2
 784 -199 620 -326 323 -326 c 0
 247.371 -326 185.703 -323.593 127.975 -316.774 c 0
 81.6765 -311.306 49.8222 -279.683 44.0159 -233.426 c 2
 32.4514 -141.296 l 2
 26.7003 -95.4787 52.71 -66 98.8873 -66 c 2
 152.404 -66 l 2
 189.699 -66 212 -43.6994 212 -6.40437 c 2
 212 1224.11 l 2
 212 1271.6 240.397 1300 287.887 1300 c 2
 708.113 1300 l 2
 755.603 1300 784 1271.6 784 1224.11 c 2
EndSplineSet
EndChar

StartChar: k
Encoding: 107 107 317
Width: 1637
VWidth: 0
Flags: HW
LayerCount: 2
Fore
SplineSet
635 0 m 2
 216 0 l 2
 168 0 142 29 140 76 c 0
 134 216 128 493 128 841 c 0
 128 1100 131 1421 140 1634 c 0
 142 1682 168 1710 216 1710 c 2
 635 1710 l 2
 683 1710 711 1682 711 1634 c 1
 728 858 l 2
 728 845 734 838 741 838 c 0
 746 838 752 842 756 851 c 2
 961 1233 l 2
 985 1278 1022 1300 1073 1300 c 2
 1507 1300 l 2
 1537 1300 1555 1284 1555 1261 c 0
 1555 1253 1552 1243 1547 1233 c 2
 1296 762 l 2
 1287 744 1282 726 1282 708 c 0
 1282 691 1286 674 1294 656 c 2
 1573 68 l 2
 1577 59 1580 49 1580 41 c 0
 1580 17 1561 0 1530 0 c 2
 1086 0 l 2
 1036 0 1000 24 981 70 c 2
 791 527 l 2
 786 538 770 565 750 554 c 0
 732 544 729 495 728 466 c 2
 711 76 l 2
 709 28 683 0 635 0 c 2
EndSplineSet
EndChar

StartChar: kgreenlandic
Encoding: 312 312 319
Width: 1590
VWidth: 0
Flags: HW
LayerCount: 2
Fore
SplineSet
608.113 0 m 2
 175.887 0 l 2
 128.397 0 100 28.397 100 75.8873 c 2
 100 1223.11 l 2
 100 1270.6 128.397 1299 175.887 1299 c 2
 608.113 1299 l 2
 655.603 1299 684 1270.6 684 1223.11 c 2
 684 917.596 l 2
 684 894.249 702.794 888.996 714.899 908.96 c 2
 912.654 1235.11 l 2
 938.941 1278.46 977.187 1300 1027.89 1300 c 2
 1462.11 1300 l 2
 1501.53 1300 1517.98 1269.52 1496.34 1236.57 c 2
 1235.72 839.811 l 2
 1213.85 806.513 1211.15 772.005 1227.6 735.718 c 2
 1529.68 69.1212 l 2
 1547.05 30.7728 1527.21 0 1485.11 0 c 2
 1061.89 0 l 2
 1011.64 0 976.166 23.6745 956.889 70.0817 c 2
 819.861 399.964 l 2
 807.487 429.753 779.604 433.91 759.079 409.025 c 2
 721.921 363.975 l 2
 696.869 333.602 684 297.775 684 258.404 c 2
 684 75.8873 l 2
 684 28.397 655.603 0 608.113 0 c 2
EndSplineSet
EndChar

StartChar: l
Encoding: 108 108 320
Width: 853
VWidth: 0
Flags: HW
LayerCount: 2
Fore
SplineSet
636 1710 m 6
 684 1710 710 1681 712 1634 c 4
 720 1422 725 1146 725 907 c 4
 725 625 719 377 712 76 c 4
 711 28 684 0 636 0 c 6
 217 0 l 6
 169 0 142 28 141 76 c 4
 133 363 128 644 128 913 c 4
 128 1167 132 1409 141 1634 c 4
 143 1679 169 1710 217 1710 c 6
 636 1710 l 6
EndSplineSet
EndChar

StartChar: less
Encoding: 60 60 325
Width: 1036
VWidth: 0
Flags: HW
LayerCount: 2
Fore
SplineSet
75 564.887 m 2
 75 1022.11 l 2
 75 1072.76 96.9308 1110.49 140.94 1135.56 c 2
 885.06 1559.44 l 2
 920.322 1579.52 951 1561.69 951 1521.11 c 2
 951 1167.89 l 2
 951 1117.4 928.195 1080.81 882.877 1058.56 c 2
 403.498 823.26 l 2
 376.749 810.13 376.784 783.942 403.569 770.884 c 2
 882.787 537.255 l 2
 928.157 515.136 951 478.587 951 428.113 c 2
 951 75.8873 l 2
 951 35.1639 920.296 17.1395 884.738 36.9889 c 2
 141.262 452.011 l 2
 97.0551 476.688 75 514.259 75 564.887 c 2
EndSplineSet
EndChar

StartChar: logicalnot
Encoding: 172 172 326
Width: 1269
VWidth: 0
Flags: HW
LayerCount: 2
Fore
SplineSet
1179 1029.11 m 2
 1179 375.887 l 2
 1179 328.397 1150.6 300 1103.11 300 c 2
 1025.89 300 l 2
 978.397 300 950 328.397 950 375.887 c 2
 950 731.404 l 2
 950 768.699 927.699 791 890.404 791 c 2
 158.887 791 l 2
 111.397 791 83 819.397 83 866.887 c 2
 83 1029.11 l 2
 83 1076.6 111.397 1105 158.887 1105 c 2
 1103.11 1105 l 2
 1150.6 1105 1179 1076.6 1179 1029.11 c 2
EndSplineSet
EndChar

StartChar: lslash
Encoding: 322 322 327
Width: 1145
VWidth: 0
Flags: HW
LayerCount: 2
Fore
SplineSet
852 1634.11 m 2
 852 1157.52 l 1
 1025.29 1238.78 l 2
 1063.23 1256.57 1094 1237.01 1094 1195.11 c 2
 1094 1098.89 l 2
 1094 1048.46 1070.93 1012.17 1025.29 990.726 c 2
 852 909.294 l 1
 852 75.8873 l 2
 852 28.397 823.603 0 776.113 0 c 2
 356.887 0 l 2
 309.397 0 281 28.397 281 75.8873 c 2
 281 640.971 l 1
 132.682 571.274 l 2
 94.7703 553.459 64 572.998 64 614.887 c 2
 64 712.113 l 2
 64 762.536 87.0288 798.811 132.682 820.219 c 2
 281 889.768 l 1
 281 1634.11 l 2
 281 1681.6 309.397 1710 356.887 1710 c 2
 776.113 1710 l 2
 823.603 1710 852 1681.6 852 1634.11 c 2
EndSplineSet
EndChar

StartChar: m
Encoding: 109 109 328
Width: 2322
VWidth: 0
Flags: HW
LayerCount: 2
Fore
SplineSet
708 76 m 2
 708 28 680 0 632 0 c 2
 219 0 l 2
 171 0 150 28 143 76 c 1
 133 284 128 481 128 672 c 0
 128 862 133 1046 143 1224 c 1
 150 1283 171 1300 219 1300 c 2
 595 1300 l 2
 633 1300 659 1281 671 1245 c 1
 671 1247 l 1
 677 1228 688 1217 701 1217 c 0
 709 1217 719 1222 729 1231 c 0
 798 1290 978 1327 1101 1327 c 0
 1256 1326 1354 1284 1414 1202 c 1
 1470 1246 1558 1327 1804 1327 c 0
 2077 1327 2175 1215 2195 964 c 0
 2203 861 2208 694 2208 526 c 0
 2208 380 2204 214 2195 76 c 0
 2192 28 2167 0 2119 0 c 2
 1706 0 l 2
 1658 0 1630 28 1630 76 c 2
 1630 1045 l 2
 1630 1083 1608 1105 1570 1105 c 2
 1511 1105 l 2
 1448 1105 1446 1074 1446 997 c 2
 1446 76 l 2
 1446 28 1418 0 1370 0 c 2
 963 0 l 2
 915 0 887 28 887 76 c 2
 887 1045 l 2
 887 1083 865 1105 827 1105 c 2
 768 1105 l 2
 730 1105 708 1083 708 1045 c 2
 708 76 l 2
EndSplineSet
EndChar

StartChar: macron
Encoding: 175 175 329
Width: 999
VWidth: 0
Flags: HW
LayerCount: 2
Fore
SplineSet
162.887 897 m 2
 844.113 897 l 2
 891.603 897 920 868.603 920 821.113 c 2
 920 741.887 l 2
 920 694.397 891.603 666 844.113 666 c 2
 162.887 666 l 2
 115.397 666 87 694.397 87 741.887 c 2
 87 821.113 l 2
 87 868.603 115.397 897 162.887 897 c 2
EndSplineSet
EndChar

StartChar: multiply
Encoding: 215 215 331
Width: 1310
VWidth: 0
Flags: HW
LayerCount: 2
Fore
SplineSet
969.071 1238.8 m 2
 1213.93 979.204 l 2
 1246.9 944.245 1246.96 903.704 1214.08 868.656 c 2
 1048.78 692.462 l 2
 1022.95 664.934 1022.98 633.093 1048.85 605.612 c 2
 1213.98 430.249 l 2
 1246.92 395.264 1246.91 354.727 1213.98 319.726 c 2
 968.997 59.2743 l 2
 936.903 25.1578 897.166 25.2229 865.185 59.4443 c 2
 700.691 235.459 l 2
 675.572 262.337 644.363 262.397 619.141 235.616 c 2
 453.029 59.2434 l 2
 420.898 25.1273 381.145 25.1676 349.083 59.3487 c 2
 104.917 319.651 l 2
 72.0335 354.708 72.0723 395.255 105.023 430.249 c 2
 270.145 605.612 l 2
 296.022 633.093 296.051 664.934 270.224 692.462 c 2
 104.917 868.656 l 2
 72.0266 903.713 72.058 944.263 104.992 979.279 c 2
 349.008 1238.72 l 2
 381.139 1272.88 420.914 1272.93 453.13 1238.85 c 2
 619.062 1063.31 l 2
 644.354 1036.55 675.582 1036.61 700.77 1063.47 c 2
 865.084 1238.65 l 2
 897.15 1272.84 936.909 1272.89 969.071 1238.8 c 2
EndSplineSet
EndChar

StartChar: n
Encoding: 110 110 332
Width: 1579
VWidth: 0
Flags: HW
LayerCount: 2
Fore
SplineSet
729 1231 m 0
 798 1290 950 1327 1073 1327 c 0
 1346 1326 1444 1195 1464 944 c 0
 1472 841 1477 684 1477 516 c 0
 1477 370 1473 214 1464 76 c 0
 1461 28 1436 0 1388 0 c 2
 969 0 l 2
 921 0 893 28 893 76 c 2
 893 1003 l 2
 893 1041 871 1063 833 1063 c 2
 774 1063 l 2
 736 1063 714 1041 714 1003 c 2
 714 76 l 2
 714 28 686 0 638 0 c 2
 219 0 l 2
 171 0 150 28 143 76 c 1
 133 284 128 481 128 672 c 0
 128 862 133 1046 143 1224 c 1
 150 1283 171 1300 219 1300 c 2
 595 1300 l 2
 633 1300 659 1281 671 1245 c 1
 671 1247 l 1
 677 1228 688 1217 701 1217 c 0
 709 1217 719 1222 729 1231 c 0
EndSplineSet
EndChar

StartChar: nine
Encoding: 57 57 336
Width: 1445
VWidth: 0
Flags: HW
LayerCount: 2
Fore
SplineSet
576 508 m 2
 178 508 68 688 68 1071 c 0
 68 1551 325 1629 722 1629 c 0
 1130 1629 1365 1508 1365 1116 c 2
 1365 520 l 2
 1365 84 1131 -40 733 -40 c 0
 490 -40 124 0 115 328 c 0
 114.505 344.834 114.255 361.178 114.129 377.031 c 0
 113.896 406.252 131.504 424 160.725 424 c 2
 569.113 424 l 2
 616.603 424 645 395.603 645 348.113 c 2
 645 284.596 l 2
 645 247.301 667.301 225 704.596 225 c 2
 743.404 225 l 2
 780.699 225 803 247.301 803 284.596 c 2
 803 448.404 l 2
 803 485.699 780.699 508 743.404 508 c 2
 576 508 l 2
799 838.596 m 2
 799 1298.4 l 2
 799 1335.7 776.699 1358 739.404 1358 c 2
 687.596 1358 l 2
 650.301 1358 628 1335.7 628 1298.4 c 2
 628 838.596 l 2
 628 801.301 650.301 779 687.596 779 c 2
 739.404 779 l 2
 776.699 779 799 801.301 799 838.596 c 2
EndSplineSet
EndChar

StartChar: numbersign
Encoding: 35 35 339
Width: 1718
VWidth: 0
Flags: HW
LayerCount: 2
Fore
SplineSet
777.75 933.978 m 2
 742.25 680.022 l 2
 737.247 644.232 757.458 621 793.596 621 c 2
 871.404 621 l 2
 909.656 621 933.955 642.139 939.25 680.022 c 2
 974.75 933.978 l 2
 979.753 969.768 959.542 993 923.404 993 c 2
 845.596 993 l 2
 807.344 993 783.045 971.861 777.75 933.978 c 2
1583.38 545.86 m 2
 1577.62 505.14 l 2
 1570.8 456.9 1539.83 430 1491.11 430 c 2
 1461.6 430 l 2
 1423.35 430 1399.05 408.859 1393.76 370.976 c 2
 1352.49 75.1316 l 2
 1345.76 26.8926 1314.82 0 1266.11 0 c 2
 916.887 0 l 2
 870.898 0 845.209 29.5998 851.683 75.1316 c 2
 893.61 369.998 l 2
 898.695 405.755 878.521 429 842.404 429 c 2
 764.596 429 l 2
 726.344 429 702.044 407.881 696.745 369.998 c 2
 655.511 75.1316 l 2
 648.765 26.8923 617.821 0 569.113 0 c 2
 218.887 0 l 2
 172.898 0 147.209 29.5998 153.683 75.1316 c 2
 195.61 369.998 l 2
 200.695 405.755 180.521 429 144.404 429 c 2
 136 429 l 2
 95.9356 429 73.4803 454.701 78.8567 494.403 c 2
 86.875 553.615 l 2
 92.7278 596.836 120.384 621 164 621 c 2
 174.404 621 l 2
 212.64 621 236.901 642.142 242.095 680.022 c 2
 276.905 933.978 l 2
 281.817 969.804 261.566 993 225.404 993 c 2
 210 993 l 2
 165.737 993 140.987 1021.46 147.128 1065.29 c 2
 155.525 1125.23 l 2
 162.249 1173.22 193.038 1200 241.5 1200 c 2
 259.404 1200 l 2
 297.637 1200 321.894 1221.17 327.072 1259.05 c 2
 362.721 1519.79 l 2
 369.315 1568.03 400.203 1595 448.887 1595 c 2
 796.113 1595 l 2
 842.193 1595 868.036 1565.46 861.908 1519.79 c 2
 826.925 1259.05 l 2
 822.113 1223.18 842.408 1200 878.596 1200 c 2
 956.404 1200 l 2
 994.652 1200 1018.94 1221.16 1024.22 1259.05 c 2
 1060.53 1519.79 l 2
 1067.25 1568.03 1098.18 1595 1146.89 1595 c 2
 1493.11 1595 l 2
 1539.19 1595 1565.04 1565.46 1558.91 1519.79 c 2
 1523.93 1259.05 l 2
 1519.11 1223.18 1539.41 1200 1575.6 1200 c 2
 1591 1200 l 2
 1635.2 1200 1659.85 1171.5 1653.48 1127.76 c 2
 1644.74 1067.72 l 2
 1637.84 1020.36 1607.36 994 1559.5 994 c 2
 1542.6 994 l 2
 1504.35 994 1480.05 972.858 1474.77 934.975 c 2
 1439.23 680.022 l 2
 1434.24 644.227 1454.45 621 1490.6 621 c 2
 1518.11 621 l 2
 1564.11 621 1589.82 591.406 1583.38 545.86 c 2
EndSplineSet
EndChar

StartChar: o
Encoding: 111 111 340
Width: 1525
VWidth: 0
Flags: HW
LayerCount: 2
Fore
SplineSet
746 233 m 2
 772 233 l 2
 862 233 863 282 863 393 c 2
 863 955 l 2
 863 1070 863 1105 772 1105 c 2
 746 1105 l 2
 653 1105 653 1073 653 955 c 2
 653 391 l 2
 653 276 653 233 746 233 c 2
1423 654 m 0
 1423 550 1422 448 1404 352 c 0
 1334 -12 1068 -27 763 -27 c 0
 445 -27 175 -7 115 353 c 0
 100 445 102 542 102 641 c 0
 102 743 100 848 115 953 c 0
 163 1293 467 1327 764 1327 c 0
 1083 1327 1338 1292 1404 952 c 0
 1423 852 1423 752 1423 654 c 0
EndSplineSet
EndChar

StartChar: oe
Encoding: 339 339 345
Width: 2136
VWidth: 0
Flags: HW
LayerCount: 2
Fore
SplineSet
1350 991.404 m 2
 1350 884.596 l 2
 1350 847.301 1372.3 825 1409.6 825 c 2
 1441.4 825 l 2
 1478.7 825 1501 847.301 1501 884.596 c 2
 1501 991.404 l 2
 1501 1028.7 1478.7 1051 1441.4 1051 c 2
 1409.6 1051 l 2
 1372.3 1051 1350 1028.7 1350 991.404 c 2
649 991.404 m 2
 649 307.596 l 2
 649 270.301 671.301 248 708.596 248 c 2
 739.404 248 l 2
 776.699 248 799 270.301 799 307.596 c 2
 799 991.404 l 2
 799 1028.7 776.699 1051 739.404 1051 c 2
 708.596 1051 l 2
 671.301 1051 649 1028.7 649 991.404 c 2
1166 16 m 0
 1122.04 35.9805 1091.06 59.9531 1075.05 95.8946 c 0
 1075.02 95.9473 1074.97 95.9461 1074.95 95.8946 c 2
 1074.05 94.1051 l 2
 1074.03 94.0523 1073.97 93.9509 1073.91 93.8653 c 0
 1010.87 1.96876 873.92 -30 711 -30 c 0
 530 -30 384 -13 269 37 c 0
 167 82 95 154 88 282 c 0
 86 312 85 340 85 367 c 2
 85 930 l 2
 85 1112 138 1203 268 1262 c 0
 382 1313 530 1330 710 1330 c 0
 821 1330 910 1316 980 1285 c 0
 1000.53 1275.71 1019.38 1265.47 1035.28 1253.69 c 0
 1072.2 1226.33 1078.26 1226.41 1114.51 1254.67 c 0
 1188.62 1312.46 1314.77 1330 1447 1330 c 0
 1629 1330 1774 1313 1888 1262 c 0
 1989 1217 2061 1145 2067 1016 c 0
 2068 986 2069 958 2069 931 c 2
 2065.98 695.881 l 2
 2065.36 648.271 2036.73 620 1989.11 620 c 2
 1410.6 620 l 2
 1373.3 620 1351 597.699 1351 560.404 c 2
 1351 308.596 l 2
 1351 271.301 1373.3 249 1410.6 249 c 2
 1442.4 249 l 2
 1479.7 249 1502 271.301 1502 308.596 c 2
 1502 478.113 l 2
 1502 525.603 1530.4 554 1577.89 554 c 2
 1993.11 554 l 2
 2040.6 554 2069 525.603 2069 478.113 c 2
 2069 368 l 2
 2069 188 2019 96 1889 39 c 0
 1775 -11 1628 -28 1448 -28 c 0
 1332 -28 1238 -17 1166 16 c 0
EndSplineSet
EndChar

StartChar: ogonek
Encoding: 731 731 346
Width: 816
VWidth: 0
Flags: HW
LayerCount: 2
Fore
SplineSet
141 -316 m 0
 141 -181.620117188 221.735351562 -35.2158203125 405.491210938 52.37109375 c 0
 433.158203125 65.5576171875 462.418945312 60.4208984375 483.938476562 38.59765625 c 2
 484.057617188 38.4765625 l 2
 507.930664062 14.267578125 507.870117188 -7.58984375 483.86328125 -31.666015625 c 0
 438.163085938 -77.4951171875 412 -137.076171875 412 -189 c 0
 412 -252 450 -303 537 -303 c 0
 557.42578125 -303 580.749023438 -300.102539062 606.96875 -293.943359375 c 0
 647.671875 -284.379882812 672 -303.655273438 672 -345.465820312 c 2
 672 -518.663085938 l 2
 672 -564.193359375 643.836914062 -600.681640625 599.791992188 -612.215820312 c 0
 553.774414062 -624.266601562 510.84375 -630 471 -630 c 0
 264 -630 141 -482 141 -316 c 0
EndSplineSet
EndChar

StartChar: one
Encoding: 49 49 350
Width: 961
VWidth: 0
Flags: HW
LayerCount: 2
Fore
SplineSet
41 1366.89 m 2
 41 1431.57 l 2
 41 1482.3 66.2596 1509.85 116.794 1514.25 c 0
 191.902 1520.79 260.869 1537.01 320.088 1561.2 c 0
 381.753 1586.39 425.599 1595 492.212 1595 c 2
 790.113 1595 l 2
 837.603 1595 866 1566.6 866 1519.11 c 2
 866 75.8873 l 2
 866 28.397 837.603 0 790.113 0 c 2
 337.887 0 l 2
 290.397 0 262 28.397 262 75.8873 c 2
 262 1231.4 l 2
 262 1268.7 239.699 1291 202.404 1291 c 2
 116.887 1291 l 2
 69.397 1291 41 1319.4 41 1366.89 c 2
EndSplineSet
EndChar

StartChar: onehalf
Encoding: 189 189 351
Width: 2580
VWidth: 0
Flags: HW
LayerCount: 2
Fore
SplineSet
1125.11 0 m 2
 841.887 0 l 2
 796.815 0 772.641 30.0905 782.354 74.1042 c 2
 1101.65 1520.89 l 2
 1112.27 1569.01 1144.61 1595 1193.89 1595 c 2
 1476.11 1595 l 2
 1521.19 1595 1545.38 1564.91 1535.69 1520.89 c 2
 1217.31 74.1042 l 2
 1206.72 25.9792 1174.39 0 1125.11 0 c 2
31 1342 m 2
 31 1343 l 2
 31 1389.2 52.059 1413.07 101.885 1419.33 c 0
 133.015 1423.24 162.268 1429.73 188.975 1438.55 c 0
 265.438 1463.8 303.96 1470 384.485 1470 c 2
 494.113 1470 l 2
 541.603 1470 570 1441.6 570 1394.11 c 2
 570 505.887 l 2
 570 458.397 541.603 430 494.113 430 c 2
 250.887 430 l 2
 203.397 430 175 458.397 175 505.887 c 2
 175 1211.4 l 2
 175 1248.7 152.699 1271 115.404 1271 c 2
 102 1271 l 2
 57.5681 1271 31 1297.57 31 1342 c 2
1973.11 836 m 2
 1705.25 836 l 2
 1692.4 836 1684.99 843.15 1684.54 856.016 c 0
 1684.27 863.344 1684 870.672 1684 878 c 0
 1684 1148 1863 1209 2106 1209 c 0
 2368 1209 2522 1142 2522 876 c 0
 2522 634 2364 548 2199 474 c 0
 2149.95 452.279 2095.99 426.63 2068.09 388.453 c 0
 2053.03 367.853 2071.23 332 2096.75 332 c 2
 2406.11 332 l 2
 2453.6 332 2482 303.603 2482 256.113 c 2
 2482 209.887 l 2
 2482 162.397 2453.6 134 2406.11 134 c 2
 1760.89 134 l 2
 1713.4 134 1685 162.397 1685 209.887 c 2
 1685 313 l 2
 1685 575 1819 690 2013 768 c 0
 2075 793 2149 823 2149 877 c 2
 2149 981 l 2
 2149 1011.66 2130.66 1030 2100 1030 c 2
 2098 1030 l 2
 2067.34 1030 2049 1011.66 2049 981 c 2
 2049 911.887 l 2
 2049 864.397 2020.6 836 1973.11 836 c 2
EndSplineSet
EndChar

StartChar: onequarter
Encoding: 188 188 352
Width: 2565
VWidth: 0
Flags: HW
LayerCount: 2
Fore
SplineSet
1110.11 0 m 2
 826.887 0 l 2
 781.815 0 757.641 30.0905 767.354 74.1042 c 2
 1086.65 1520.89 l 2
 1097.27 1569.01 1129.61 1595 1178.89 1595 c 2
 1461.11 1595 l 2
 1506.19 1595 1530.38 1564.91 1520.69 1520.89 c 2
 1202.31 74.1042 l 2
 1191.72 25.9792 1159.39 0 1110.11 0 c 2
31 1342 m 2
 31 1343 l 2
 31 1389.2 52.059 1413.07 101.885 1419.33 c 0
 133.015 1423.24 162.268 1429.73 188.975 1438.55 c 0
 265.438 1463.8 303.96 1470 384.485 1470 c 2
 494.113 1470 l 2
 541.603 1470 570 1441.6 570 1394.11 c 2
 570 505.887 l 2
 570 458.397 541.603 430 494.113 430 c 2
 250.887 430 l 2
 203.397 430 175 458.397 175 505.887 c 2
 175 1211.4 l 2
 175 1248.7 152.699 1271 115.404 1271 c 2
 102 1271 l 2
 57.5681 1271 31 1297.57 31 1342 c 2
2499 684.113 m 2
 2499 205.887 l 2
 2499 158.397 2470.6 130 2423.11 130 c 2
 2215.89 130 l 2
 2168.4 130 2140 158.397 2140 205.887 c 2
 2140 231.404 l 2
 2140 268.699 2117.7 291 2080.4 291 c 2
 1699.89 291 l 2
 1652.4 291 1624 319.397 1624 366.887 c 2
 1624 495.113 l 2
 1624 540.28 1632.36 600.56 1644.66 644.022 c 2
 1773.34 1098.95 l 2
 1786.86 1146.73 1820.24 1172 1869.89 1172 c 2
 2103.11 1172 l 2
 2147.45 1172 2170.46 1141.62 2158.46 1098.95 c 2
 2014.6 587.365 l 2
 2011.86 577.631 2010 564.112 2010 554 c 2
 2010 552 l 2
 2010 541.398 2016.4 535 2027 535 c 2
 2080.4 535 l 2
 2117.7 535 2140 557.301 2140 594.596 c 2
 2140 684.113 l 2
 2140 731.603 2168.4 760 2215.89 760 c 2
 2423.11 760 l 2
 2470.6 760 2499 731.603 2499 684.113 c 2
EndSplineSet
EndChar

StartChar: ordfeminine
Encoding: 170 170 353
Width: 1471
VWidth: 0
Flags: HW
LayerCount: 2
Fore
SplineSet
750.404 942 m 2
 703.596 942 l 2
 666.301 942 644 919.699 644 882.404 c 2
 644 548.596 l 2
 644 511.301 666.301 489 703.596 489 c 2
 750.404 489 l 2
 787.699 489 810 511.301 810 548.596 c 2
 810 882.404 l 2
 810 919.699 787.699 942 750.404 942 c 2
1380 1241 m 2
 1380 545.997 l 1
 1369.1 535.105 l 2
 1379.32 545.316 1366.65 549.459 1368.85 535.187 c 2
 1395.17 364.619 l 2
 1402.34 318.209 1378.15 290 1331.19 290 c 2
 962.465 290 l 2
 913.851 290 879.656 313.027 861.376 358.073 c 2
 856.659 369.698 l 2
 844.039 400.796 819.958 405.033 797.483 380.108 c 0
 731.744 307.202 629.293 263 493 263 c 0
 208 263 72 396 72 677 c 0
 72 982 234 1113 544 1113 c 0
 624.276 1113 692.732 1103.43 752.746 1088.52 c 0
 787.67 1079.84 810 1097.3 810 1133.28 c 2
 810 1335.4 l 2
 810 1372.7 787.699 1395 750.404 1395 c 2
 730.596 1395 l 2
 693.301 1395 671 1372.7 671 1335.4 c 2
 671 1279.89 l 2
 671 1232.04 642.983 1202.93 595.168 1201.11 c 2
 197.974 1185.98 l 2
 164.965 1184.72 141.849 1204.66 138.25 1237.5 c 0
 136.25 1255.75 135 1274.5 135 1294 c 0
 135 1514 315 1576 515 1603 c 0
 578 1612 653 1616 739 1616 c 0
 921 1616 1068 1601 1186 1553 c 0
 1289 1511 1367 1444 1377 1321 c 0
 1379 1293 1380 1266 1380 1241 c 2
1380 545.997 m 1
 1380.21 546.207 l 2
 1389.79 555.788 1380 532.158 1380 545.707 c 2
 1380 545.997 l 1
EndSplineSet
EndChar

StartChar: ordmasculine
Encoding: 186 186 354
Width: 1334
VWidth: 0
Flags: HW
LayerCount: 2
Fore
SplineSet
675 954.404 m 2
 675 376.596 l 2
 675 339.301 697.301 317 734.596 317 c 2
 748.404 317 l 2
 785.699 317 808 339.301 808 376.596 c 2
 808 954.404 l 2
 808 991.699 785.699 1014 748.404 1014 c 2
 734.596 1014 l 2
 697.301 1014 675 991.699 675 954.404 c 2
1265 412 m 2
 1265 110 990 102 744 99 c 1
 490 99 218 115 218 413 c 2
 218 893 l 2
 218 1185 507 1204 745 1204 c 0
 996 1204 1265 1180 1265 892 c 2
 1265 412 l 2
EndSplineSet
EndChar

StartChar: oslash
Encoding: 248 248 355
Width: 1465
VWidth: 0
Flags: HW
LayerCount: 2
Fore
SplineSet
657 1046.4 m 2
 657 695.596 l 2
 657 667.846 679.249 658.785 698.636 678.639 c 2
 781.364 763.361 l 2
 809.076 791.74 823 825.931 823 865.596 c 2
 823 1046.4 l 2
 823 1083.7 800.699 1106 763.404 1106 c 2
 716.596 1106 l 2
 679.301 1106 657 1083.7 657 1046.4 c 2
657 459.404 m 2
 657 293.596 l 2
 657 256.301 679.301 234 716.596 234 c 2
 763.404 234 l 2
 800.699 234 823 256.301 823 293.596 c 2
 823 629.404 l 2
 823 657.154 800.751 666.215 781.364 646.361 c 2
 698.636 561.639 l 2
 670.924 533.26 657 499.069 657 459.404 c 2
169.958 18.6199 m 2
 141.876 -10.2961 l 2
 124.484 -28.2049 103.359 -28.3594 85.7071 -10.7071 c 2
 84.2929 -9.29289 l 2
 66.5506 8.44943 66.4424 29.6577 84.0027 47.5801 c 2
 104.208 68.2024 l 2
 137.149 101.822 140.834 125.364 119.743 167.441 c 0
 95.1438 216.518 86 276.46 86 352 c 2
 86 952 l 2
 86 1212 241 1288 473 1325 c 0
 547 1337 638 1343 744.5 1343.5 c 0
 928.725 1343.93 1081.76 1328.96 1201.97 1276.1 c 0
 1241.52 1258.71 1269.87 1264.19 1300.09 1295.06 c 2
 1320.01 1315.41 l 2
 1337.49 1333.26 1358.63 1333.37 1376.29 1315.71 c 2
 1377.71 1314.29 l 2
 1395.45 1296.55 1395.58 1275.33 1378.03 1257.38 c 2
 1368.06 1247.18 l 2
 1335.92 1214.29 1332.87 1191.22 1355.79 1150.32 c 0
 1384.42 1099.26 1395 1034.82 1395 952 c 2
 1395 352 l 2
 1395 172 1330 82 1197 27 c 0
 1078 -22 928 -39 744 -39 c 0
 550.617 -39 389.863 -23.0651 267.025 35.9053 c 0
 228.112 54.5864 200.03 49.5858 169.958 18.6199 c 2
EndSplineSet
EndChar

StartChar: p
Encoding: 112 112 357
Width: 1476
VWidth: 0
Flags: HW
LayerCount: 2
Fore
SplineSet
670 1045.4 m 2
 670 258.596 l 2
 670 221.301 692.301 199 729.596 199 c 2
 777.404 199 l 2
 814.699 199 837 221.301 837 258.596 c 2
 837 1045.4 l 2
 837 1082.7 814.699 1105 777.404 1105 c 2
 729.596 1105 l 2
 692.301 1105 670 1082.7 670 1045.4 c 2
1409 365 m 2
 1409 99 1263 -27 989 -27 c 0
 877.42 -27 778.727 -4.44661 712.579 45.3156 c 0
 689.039 63.024 670 53.5217 670 24.0649 c 2
 670 -332.113 l 2
 670 -379.603 641.603 -408 594.113 -408 c 2
 174.887 -408 l 2
 127.397 -408 99 -379.603 99 -332.113 c 2
 99 1224.11 l 2
 99 1271.6 127.397 1300 174.887 1300 c 2
 531.023 1300 l 2
 568.488 1300 594.347 1281.79 606.575 1246.8 c 0
 617.282 1214.39 639.934 1207.93 666.123 1229.83 c 0
 741.096 1292.51 859.754 1327 986 1327 c 0
 1262 1327 1409 1198 1409 926 c 2
 1409 365 l 2
EndSplineSet
EndChar

StartChar: paragraph
Encoding: 182 182 358
Width: 1318
VWidth: 0
Flags: HW
LayerCount: 2
Fore
SplineSet
591 75.8873 m 2
 591 597.831 l 2
 591 636.529 570.042 658.526 531.39 660.398 c 0
 234.048 674.8 56 801.876 56 1107 c 0
 56 1516 342 1595 689 1595 c 2
 1147.11 1595 l 2
 1194.6 1595 1223 1566.6 1223 1519.11 c 2
 1223 75.8873 l 2
 1223 28.397 1194.6 0 1147.11 0 c 2
 1037.89 0 l 2
 990.397 0 962 28.397 962 75.8873 c 2
 962 604.5 l 2
 962 637.98 941.98 658 908.5 658 c 2
 906.5 658 l 2
 873.02 658 853 637.98 853 604.5 c 2
 853 75.8873 l 2
 853 28.397 824.603 0 777.113 0 c 2
 666.887 0 l 2
 619.397 0 591 28.397 591 75.8873 c 2
EndSplineSet
EndChar

StartChar: parenleft
Encoding: 40 40 359
Width: 860
VWidth: 0
Flags: HW
LayerCount: 2
Fore
SplineSet
678 -169 m 2
 253 -169 51 326 51 827 c 0
 51 1328 253 1841 678 1841 c 2
 725.5 1841 l 2
 753.974 1841 771 1823.97 771 1795.5 c 2
 771 1593.5 l 2
 771 1573.79 759.213 1562 739.5 1562 c 2
 706 1562 l 2
 545 1562 453 1188 453 827 c 0
 453 466 545 110 706 110 c 2
 739.5 110 l 2
 759.213 110 771 98.2127 771 78.5 c 2
 771 -123.5 l 2
 771 -151.974 753.974 -169 725.5 -169 c 2
 678 -169 l 2
EndSplineSet
EndChar

StartChar: parenright
Encoding: 41 41 360
Width: 861
VWidth: 0
Flags: HW
LayerCount: 2
Fore
SplineSet
183 1841 m 2
 608 1841 810 1328 810 827 c 0
 810 326 608 -169 183 -169 c 2
 135.5 -169 l 2
 107.026 -169 90 -151.974 90 -123.5 c 2
 90 78.5 l 2
 90 98.2127 101.787 110 121.5 110 c 2
 155 110 l 2
 316 110 408 466 408 827 c 0
 408 1188 316 1562 155 1562 c 2
 121.5 1562 l 2
 101.787 1562 90 1573.79 90 1593.5 c 2
 90 1795.5 l 2
 90 1823.97 107.026 1841 135.5 1841 c 2
 183 1841 l 2
EndSplineSet
EndChar

StartChar: percent
Encoding: 37 37 361
Width: 2792
VWidth: 0
Flags: HW
LayerCount: 2
Fore
SplineSet
1470.89 1632 m 2
 1703.11 1632 l 2
 1748.13 1632 1772.22 1601.89 1762.34 1557.96 c 2
 1419.66 35.0362 l 2
 1408.83 -13.0694 1376.42 -39 1327.11 -39 c 2
 1090.89 -39 l 2
 1045.9 -39 1021.85 -8.8738 1031.83 34.998 c 2
 1378.17 1558 l 2
 1389.11 1606.1 1421.56 1632 1470.89 1632 c 2
2665 442 m 2
 2665 153 2436 129 2215 129 c 0
 1990 129 1765 146 1765 441 c 2
 1765 798 l 2
 1765 1091 1990 1109 2214 1109 c 0
 2437 1109 2665 1092 2665 799 c 2
 2665 442 l 2
2262 391 m 2
 2262 848 l 2
 2262 875.535 2245.54 892 2218 892 c 2
 2216 892 l 2
 2188.46 892 2172 875.535 2172 848 c 2
 2172 391 l 2
 2172 363.465 2188.46 347 2216 347 c 2
 2218 347 l 2
 2245.54 347 2262 363.465 2262 391 c 2
1025 929 m 2
 1025 630 798 618 575 618 c 0
 349 618 125 623 125 927 c 2
 125 1286 l 2
 125 1577 352 1595 574 1595 c 0
 795 1595 1025 1578 1025 1288 c 2
 1025 929 l 2
623 877.5 m 2
 623 1333.5 l 2
 623 1361.35 606.348 1378 578.5 1378 c 2
 576.5 1378 l 2
 548.652 1378 532 1361.35 532 1333.5 c 2
 532 877.5 l 2
 532 849.652 548.652 833 576.5 833 c 2
 578.5 833 l 2
 606.348 833 623 849.652 623 877.5 c 2
EndSplineSet
EndChar

StartChar: period
Encoding: 46 46 362
Width: 670
VWidth: 0
Flags: HW
LayerCount: 2
Fore
SplineSet
340 -39 m 0
 238 -39 136 31 136 171 c 0
 136 311 238 381 340 381 c 0
 442 381 544 311 544 171 c 0
 544 31 442 -39 340 -39 c 0
EndSplineSet
EndChar

StartChar: periodcentered
Encoding: 183 183 363
Width: 670
VWidth: 0
Flags: HW
LayerCount: 2
Fore
SplineSet
340 -39 m 0
 238 -39 136 31 136 171 c 0
 136 311 238 381 340 381 c 0
 442 381 544 311 544 171 c 0
 544 31 442 -39 340 -39 c 0
EndSplineSet
EndChar

StartChar: plus
Encoding: 43 43 364
Width: 1328
VWidth: 0
Flags: HW
LayerCount: 2
Fore
SplineSet
179.887 811 m 2
 409.404 811 l 2
 446.699 811 469 833.301 469 870.596 c 2
 469 1116.11 l 2
 469 1163.6 497.397 1192 544.887 1192 c 2
 785.113 1192 l 2
 832.603 1192 861 1163.6 861 1116.11 c 2
 861 870.596 l 2
 861 833.301 883.301 811 920.596 811 c 2
 1149.11 811 l 2
 1196.6 811 1225 782.603 1225 735.113 c 2
 1225 553.887 l 2
 1225 506.397 1196.6 478 1149.11 478 c 2
 920.596 478 l 2
 883.301 478 861 455.699 861 418.404 c 2
 861 175.887 l 2
 861 128.397 832.603 100 785.113 100 c 2
 544.887 100 l 2
 497.397 100 469 128.397 469 175.887 c 2
 469 418.404 l 2
 469 455.699 446.699 478 409.404 478 c 2
 179.887 478 l 2
 132.397 478 104 506.397 104 553.887 c 2
 104 735.113 l 2
 104 782.603 132.397 811 179.887 811 c 2
EndSplineSet
EndChar

StartChar: plusminus
Encoding: 177 177 365
Width: 1304
VWidth: 0
Flags: HW
LayerCount: 2
Fore
SplineSet
305.887 300 m 2
 988.113 300 l 2
 1035.6 300 1064 271.603 1064 224.113 c 2
 1064 74.8873 l 2
 1064 27.397 1035.6 -1 988.113 -1 c 2
 305.887 -1 l 2
 258.397 -1 230 27.397 230 74.8873 c 2
 230 224.113 l 2
 230 271.603 258.397 300 305.887 300 c 2
167.887 1214 m 2
 397.404 1214 l 2
 434.699 1214 457 1236.3 457 1273.6 c 2
 457 1519.11 l 2
 457 1566.6 485.397 1595 532.887 1595 c 2
 773.113 1595 l 2
 820.603 1595 849 1566.6 849 1519.11 c 2
 849 1273.6 l 2
 849 1236.3 871.301 1214 908.596 1214 c 2
 1137.11 1214 l 2
 1184.6 1214 1213 1185.6 1213 1138.11 c 2
 1213 956.887 l 2
 1213 909.397 1184.6 881 1137.11 881 c 2
 908.596 881 l 2
 871.301 881 849 858.699 849 821.404 c 2
 849 578.887 l 2
 849 531.397 820.603 503 773.113 503 c 2
 532.887 503 l 2
 485.397 503 457 531.397 457 578.887 c 2
 457 821.404 l 2
 457 858.699 434.699 881 397.404 881 c 2
 167.887 881 l 2
 120.397 881 92 909.397 92 956.887 c 2
 92 1138.11 l 2
 92 1185.6 120.397 1214 167.887 1214 c 2
EndSplineSet
EndChar

StartChar: product
Encoding: 8719 8719 366
Width: 1788
VWidth: 0
Flags: HW
LayerCount: 2
Fore
SplineSet
236 1595 m 2
 1551 1595 l 2
 1599 1595 1622 1566 1627 1519 c 0
 1648 1325 1648 1069 1648 810 c 0
 1648 548 1648 283 1627 76 c 0
 1622 28 1599 0 1551 0 c 2
 1089 0 l 2
 1041 0 1013 28 1013 76 c 2
 1013 1335.5 l 2
 1013 1373.5 1011 1375.5 973 1375.5 c 2
 814 1375.5 l 2
 776 1375.5 774 1373.5 774 1335.5 c 2
 774 76 l 2
 774 28 746 0 698 0 c 2
 236 0 l 2
 188 0 164 29 160 76 c 0
 141 305 140 543 140 790 c 0
 140 1025 140 1268 160 1519 c 0
 164 1565 188 1595 236 1595 c 2
EndSplineSet
EndChar

StartChar: q
Encoding: 113 113 367
Width: 1459
VWidth: 0
Flags: HW
LayerCount: 2
Fore
SplineSet
817 258.596 m 2
 817 1045.4 l 2
 817 1082.7 794.699 1105 757.404 1105 c 2
 711.596 1105 l 2
 674.301 1105 652 1082.7 652 1045.4 c 2
 652 258.596 l 2
 652 221.301 674.301 199 711.596 199 c 2
 757.404 199 l 2
 794.699 199 817 221.301 817 258.596 c 2
86 365 m 2
 86 926 l 1
 85 926 l 1
 85 1194 226 1327 502 1327 c 0
 608 1327 702 1292 768 1248 c 0
 781 1239.5 792.75 1230.25 803.25 1220.25 c 0
 820.761 1203.57 837.698 1207.74 845.468 1230.64 c 2
 850.321 1244.95 l 2
 862.613 1281.18 888.879 1300 927.135 1300 c 2
 1305.11 1300 l 2
 1352.6 1300 1381 1271.6 1381 1224.11 c 2
 1381 -332.113 l 2
 1381 -379.603 1352.6 -408 1305.11 -408 c 2
 907.887 -408 l 2
 860.397 -408 832 -379.603 832 -332.113 c 2
 832 24.3936 l 2
 832 54.4909 812.27 64.6132 787.823 47.0584 c 0
 717.584 -3.37698 616.838 -27 501 -27 c 0
 227 -27 86 99 86 365 c 2
EndSplineSet
EndChar

StartChar: question
Encoding: 63 63 368
Width: 955
VWidth: 0
Flags: HW
LayerCount: 2
Fore
SplineSet
406.977 -39 m 0
 304.977 -39 202.977 31 202.977 171 c 0
 202.977 311 304.977 381 406.977 381 c 0
 508.977 381 610.977 311 610.977 171 c 0
 610.977 31 508.977 -39 406.977 -39 c 0
922.977 1313 m 0
 922.977 1009 506.977 912 466.977 567 c 0
 461.977 524 431.977 510 404.977 510 c 0
 363.977 510 343.977 536 343.977 582 c 0
 343.977 814 461.977 979 488.977 1123 c 0
 489.977 1132 490.977 1141 490.977 1150 c 0
 490.977 1212 451.977 1264 348.977 1264 c 0
 315.743 1264 275.317 1257.29 226.042 1241.54 c 0
 181.653 1227.36 151.661 1246.97 146.851 1293.32 c 2
 126.633 1488.2 l 2
 121.707 1535.68 145.722 1570.99 191.696 1583.86 c 0
 311.251 1617.32 409.704 1632 489.977 1632 c 0
 824.977 1632 922.977 1473 922.977 1313 c 0
EndSplineSet
EndChar

StartChar: questiondown
Encoding: 191 191 369
Width: 906
VWidth: 0
Flags: HW
LayerCount: 2
Fore
SplineSet
553 1637 m 0
 655 1637 757 1567 757 1427 c 0
 757 1287 655 1217 553 1217 c 0
 451 1217 349 1287 349 1427 c 0
 349 1567 451 1637 553 1637 c 0
37 285 m 0
 37 589 453 686 493 1031 c 0
 498 1074 528 1088 555 1088 c 0
 596 1088 616 1062 616 1016 c 0
 616 784 498 619 471 475 c 0
 470 466 469 457 469 448 c 0
 469 386 508 334 611 334 c 0
 644.234 334 684.66 340.712 733.935 356.458 c 0
 778.324 370.643 808.316 351.033 813.125 304.682 c 2
 833.343 109.803 l 2
 838.27 62.3172 814.255 27.0085 768.281 14.1422 c 0
 648.726 -19.3168 550.273 -34 470 -34 c 0
 135 -34 37 125 37 285 c 0
EndSplineSet
EndChar

StartChar: quotedbl
Encoding: 34 34 370
Width: 1213
VWidth: 0
Flags: HW
LayerCount: 2
Fore
SplineSet
832 837 m 0
 810 837 788 856 777 896 c 1
 732 1090 644 1349 644 1454 c 0
 644 1572 736 1629 830 1629 c 0
 927 1629 1025 1568 1025 1452 c 0
 1025 1344 932 1086 887 896 c 0
 878 857 854 837 832 837 c 0
335 837 m 0
 313 837 291 856 280 896 c 1
 235 1090 147 1349 147 1454 c 0
 147 1572 239 1629 333 1629 c 0
 430 1629 528 1568 528 1452 c 0
 528 1344 435 1086 390 896 c 0
 381 857 357 837 335 837 c 0
EndSplineSet
EndChar

StartChar: quotedblbase
Encoding: 8222 8222 371
Width: 1229
VWidth: 0
Flags: HW
LayerCount: 2
Fore
SplineSet
841 -409 m 0
 819 -409 797 -390 786 -350 c 1
 741 -156 653 103 653 208 c 0
 653 326 745 383 839 383 c 0
 936 383 1034 322 1034 206 c 0
 1034 98 941 -160 896 -350 c 0
 887 -389 863 -409 841 -409 c 0
344 -409 m 0
 322 -409 300 -390 289 -350 c 1
 244 -156 156 103 156 208 c 0
 156 326 248 383 342 383 c 0
 439 383 537 322 537 206 c 0
 537 98 444 -160 399 -350 c 0
 390 -389 366 -409 344 -409 c 0
EndSplineSet
EndChar

StartChar: quotedblleft
Encoding: 8220 8220 372
Width: 1339
VWidth: 0
Flags: HW
LayerCount: 2
Fore
SplineSet
546.809 1381.41 m 0
 614.786 1353.44 668 1288.47 668 1187 c 0
 668 1054 566 987 464 987 c 0
 320 987 254 1098 254 1227 c 0
 254 1411 380 1630 601 1630 c 0
 608.438 1630 616.157 1629.72 624.009 1629.15 c 0
 636.831 1628.23 645 1619.45 645 1606.6 c 2
 645 1578.91 l 2
 645 1538.47 632.413 1521.89 591.997 1510.59 c 0
 568.462 1504.02 547.288 1493.16 530.321 1478.35 c 0
 501.04 1452.8 510.344 1396.42 546.809 1381.41 c 0
1049.81 1381.41 m 0
 1117.79 1353.44 1171 1288.47 1171 1187 c 0
 1171 1054 1069 987 967 987 c 0
 823 987 757 1098 757 1227 c 0
 757 1411 883 1630 1104 1630 c 0
 1111.44 1630 1119.16 1629.72 1127.01 1629.15 c 0
 1139.83 1628.23 1148 1619.45 1148 1606.6 c 2
 1148 1578.91 l 2
 1148 1538.47 1135.41 1521.89 1095 1510.59 c 0
 1071.46 1504.02 1050.29 1493.16 1033.32 1478.35 c 0
 1004.04 1452.8 1013.34 1396.42 1049.81 1381.41 c 0
EndSplineSet
EndChar

StartChar: quotedblright
Encoding: 8221 8221 373
Width: 1327
VWidth: 0
Flags: HW
LayerCount: 2
Fore
SplineSet
878.191 1235.59 m 0
 810.214 1263.56 757 1328.53 757 1430 c 0
 757 1563 859 1630 961 1630 c 0
 1105 1630 1171 1519 1171 1390 c 0
 1171 1206 1045 987 824 987 c 0
 816.562 987 808.843 987.282 800.991 987.847 c 0
 788.169 988.768 780 997.546 780 1010.4 c 2
 780 1038.09 l 2
 780 1078.53 792.587 1095.11 833.003 1106.41 c 0
 856.538 1112.98 877.712 1123.84 894.679 1138.65 c 0
 923.96 1164.2 914.656 1220.58 878.191 1235.59 c 0
375.191 1235.59 m 0
 307.214 1263.56 254 1328.53 254 1430 c 0
 254 1563 356 1630 458 1630 c 0
 602 1630 668 1519 668 1390 c 0
 668 1206 542 987 321 987 c 0
 313.562 987 305.843 987.282 297.991 987.847 c 0
 285.169 988.768 277 997.546 277 1010.4 c 2
 277 1038.09 l 2
 277 1078.53 289.587 1095.11 330.003 1106.41 c 0
 353.538 1112.98 374.712 1123.84 391.679 1138.65 c 0
 420.96 1164.2 411.656 1220.58 375.191 1235.59 c 0
EndSplineSet
EndChar

StartChar: quoteleft
Encoding: 8216 8216 374
Width: 722
VWidth: 0
Flags: HW
LayerCount: 2
Fore
SplineSet
447.809 1381.41 m 0
 515.786 1353.44 569 1288.47 569 1187 c 0
 569 1054 472 987 375 987 c 0
 224 987 155 1098 155 1227 c 0
 155 1411 281 1630 502 1630 c 0
 509.438 1630 517.157 1629.72 525.009 1629.15 c 0
 537.831 1628.23 546 1619.45 546 1606.6 c 2
 546 1578.91 l 2
 546 1538.47 533.413 1521.89 492.997 1510.59 c 0
 469.462 1504.02 448.288 1493.16 431.321 1478.35 c 0
 402.04 1452.8 411.344 1396.42 447.809 1381.41 c 0
EndSplineSet
EndChar

StartChar: quoteright
Encoding: 8217 8217 375
Width: 706
VWidth: 0
Flags: HW
LayerCount: 2
Fore
SplineSet
275.191 1235.59 m 0
 207.214 1263.56 154 1328.53 154 1430 c 0
 154 1563 256 1630 358 1630 c 0
 502 1630 568 1519 568 1390 c 0
 568 1206 442 987 221 987 c 0
 213.562 987 205.843 987.282 197.991 987.847 c 0
 185.169 988.768 177 997.546 177 1010.4 c 2
 177 1038.09 l 2
 177 1078.53 189.587 1095.11 230.003 1106.41 c 0
 253.538 1112.98 274.712 1123.84 291.679 1138.65 c 0
 320.96 1164.2 311.656 1220.58 275.191 1235.59 c 0
EndSplineSet
EndChar

StartChar: quotesinglbase
Encoding: 8218 8218 376
Width: 648
VWidth: 0
Flags: HW
LayerCount: 2
Fore
SplineSet
308 -409 m 0
 286 -409 264 -390 253 -350 c 1
 208 -156 120 103 120 208 c 0
 120 326 212 383 306 383 c 0
 403 383 501 322 501 206 c 0
 501 98 408 -160 363 -350 c 0
 354 -389 330 -409 308 -409 c 0
EndSplineSet
EndChar

StartChar: quotesingle
Encoding: 39 39 377
Width: 629
VWidth: 0
Flags: HW
LayerCount: 2
Fore
SplineSet
335 837 m 0
 313 837 291 856 280 896 c 1
 235 1090 147 1349 147 1454 c 0
 147 1572 239 1629 333 1629 c 0
 430 1629 528 1568 528 1452 c 0
 528 1344 435 1086 390 896 c 0
 381 857 357 837 335 837 c 0
EndSplineSet
EndChar

StartChar: r
Encoding: 114 114 378
Width: 981
VWidth: 0
Flags: HW
LayerCount: 2
Fore
SplineSet
595.113 0 m 2
 175.887 0 l 2
 128.404 0 100.022 28.4044 100.058 75.8873 c 2
 100.942 1224.11 l 2
 100.978 1271.61 129.39 1300 176.887 1300 c 2
 511.695 1300 l 2
 560.944 1300 594 1274.9 607.231 1227.46 c 2
 611.05 1213.77 l 2
 619.033 1185.15 639.986 1180.94 658.403 1204.26 c 0
 706.064 1264.61 785.984 1304.65 881.476 1320.08 c 0
 923.932 1326.94 957 1298.78 957 1255.78 c 2
 957 1024.89 l 2
 957 975.772 930.727 943.856 882.527 934.418 c 2
 729.485 904.452 l 2
 691.633 897.04 671 871.975 671 833.404 c 2
 671 75.8873 l 2
 671 28.397 642.603 0 595.113 0 c 2
EndSplineSet
EndChar

StartChar: registered
Encoding: 174 174 382
Width: 1861
VWidth: 0
Flags: HW
LayerCount: 2
Fore
SplineSet
895 1233.5 m 2
 895 955.5 l 2
 895 930.155 910.155 915 935.5 915 c 2
 937.5 915 l 2
 962.845 915 978 930.155 978 955.5 c 2
 978 1233.5 l 2
 978 1258.84 962.845 1274 937.5 1274 c 2
 935.5 1274 l 2
 910.155 1274 895 1258.84 895 1233.5 c 2
1116 845.5 m 2
 1116 843.5 l 2
 1116 838.204 1119.19 834.798 1124.47 834.465 c 2
 1227 828 l 2
 1311 822 1357 751 1357 643 c 2
 1357 354.887 l 2
 1357 307.397 1328.6 279 1281.11 279 c 2
 1053.89 279 l 2
 1006.4 279 978 307.397 978 354.887 c 2
 978 715.5 l 2
 978 740.845 962.845 756 937.5 756 c 2
 935.5 756 l 2
 910.155 756 895 740.845 895 715.5 c 2
 895 354.887 l 2
 895 307.397 866.603 279 819.113 279 c 2
 581.887 279 l 2
 534.397 279 506 307.397 506 354.887 c 2
 506 1358.11 l 2
 506 1405.6 534.397 1434 581.887 1434 c 2
 1016 1434 l 2
 1171 1434 1361 1423 1361 1164 c 2
 1361 1071 l 2
 1361 945 1308 871 1226 864 c 2
 1124.47 854.77 l 2
 1119.17 854.288 1116 850.819 1116 845.5 c 2
932 1573 m 0
 520 1573 323 1471 323 1114 c 2
 323 535 l 2
 323 169 523 68 932 68 c 0
 1300 68 1541 156 1541 482 c 2
 1541 1165 l 2
 1541 1500 1275 1573 932 1573 c 0
1780 539 m 2
 1780 14 1377 -101 932 -101 c 0
 421 -101 84 42 84 539 c 2
 84 1116 l 2
 84 1638 490 1749 932 1749 c 0
 1441 1749 1780 1610 1780 1116 c 2
 1780 539 l 2
EndSplineSet
EndChar

StartChar: ring
Encoding: 730 730 383
Width: 954
VWidth: 0
Flags: HW
LayerCount: 2
Fore
SplineSet
595 430 m 0
 595 499 542 552 474 552 c 0
 404 552 353 500 353 430 c 0
 353 362 406 309 474 309 c 0
 541 309 595 363 595 430 c 0
169 305 m 0
 152 344 143 386 143 430 c 0
 143 581 236 682 346 727 c 0
 387 744 430 752 476 752 c 0
 629 752 735 664 783 556 c 0
 800 517 809 475 809 430 c 0
 809 280 714 180 605 135 c 0
 565 118 522 110 476 110 c 0
 323 110 217 197 169 305 c 0
EndSplineSet
EndChar

StartChar: s
Encoding: 115 115 384
Width: 1434
VWidth: 0
Flags: HW
LayerCount: 2
Fore
SplineSet
710 -27 m 0
 358 -27 100 8 100 397 c 2
 100 416 l 2
 100 425 107 432 117 431 c 2
 564 404 l 2
 612 402 640 372 640 324 c 2
 640 293 l 2
 640 255 662 233 700 233 c 2
 747 233 l 2
 785 233 807 255 807 293 c 2
 807 395 l 2
 807 409 803.443 455.492 764 460 c 0
 653 475 527 492 422 507 c 0
 125 549 70 685 70 900 c 0
 70 1266 367 1327 739 1327 c 0
 1012 1327 1347 1309 1347 956 c 2
 1347 913 l 2
 1347 888 1330 873 1306 874 c 2
 883 898 l 2
 835 900 807 930 807 978 c 2
 807 1003 l 2
 807 1041 785 1063 747 1063 c 2
 700 1063 l 2
 662 1063 640 1041 640 1003 c 2
 640 878 l 2
 640 863.548 658.492 851.302 685 846 c 0
 796 828 922 812 1027 796 c 0
 1307 753 1378 629 1378 420 c 0
 1378 6 1047 -27 710 -27 c 0
EndSplineSet
EndChar

StartChar: section
Encoding: 167 167 390
Width: 1362
VWidth: 0
Flags: HW
LayerCount: 2
Fore
SplineSet
681.5 748 m 2
 683.5 748 l 2
 704.464 748 717 760.536 717 781.5 c 2
 717 937.5 l 2
 717 958.464 704.464 971 683.5 971 c 2
 681.5 971 l 2
 660.536 971 648 958.464 648 937.5 c 2
 648 781.5 l 2
 648 760.536 660.536 748 681.5 748 c 2
1150.32 651.585 m 1
 1223.68 602.83 1278 524.624 1278 401 c 0
 1278 3 1002 -40 664 -40 c 0
 401 -40 85 -18 85 321 c 0
 85 338.961 85.2634 356.659 85.5198 374.5 c 0
 85.9879 407.072 105.19 426 137.766 426 c 2
 561.113 426 l 2
 608.603 426 637 397.603 637 350.113 c 2
 637 270.5 l 2
 637 248.284 650.284 235 672.5 235 c 2
 674.5 235 l 2
 696.716 235 710 248.284 710 270.5 c 2
 710 427.404 l 2
 710 464.699 687.699 487 650.404 487 c 2
 455 487 l 2
 231 487 73 555 73 783 c 0
 73 911.349 141.58 993.384 231.669 1032.47 c 1
 155.152 1001.86 l 2
 240.376 1035.95 242.546 1055.33 213.24 1075.53 c 0
 139.629 1126.26 88 1206.17 88 1329 c 0
 88 1727 364 1770 702 1770 c 0
 964 1770 1283 1749 1283 1411 c 0
 1283 1393.04 1282.74 1375.34 1282.48 1357.5 c 0
 1282.01 1324.93 1262.81 1306 1230.23 1306 c 2
 805.887 1306 l 2
 758.397 1306 730 1334.4 730 1381.89 c 2
 730 1461.5 l 2
 730 1483.72 716.716 1497 694.5 1497 c 2
 692.5 1497 l 2
 670.284 1497 657 1483.72 657 1461.5 c 2
 657 1293.99 l 2
 657 1272.46 692.758 1234.42 714.241 1233.08 c 0
 735.148 1231.78 757.758 1231.91 776 1231 c 0
 965 1223 1294 1212 1294 949 c 0
 1294 833.731 1241.3 761.579 1168.73 718.986 c 0
 1166.44 717.646 1166.9 716.793 1169.29 717.926 c 2
 1232.37 747.809 l 2
 1148.42 708.043 1145.2 654.82 1221.55 606.601 c 2
 1150.32 651.585 l 1
EndSplineSet
EndChar

StartChar: semicolon
Encoding: 59 59 391
Width: 710
VWidth: 0
Flags: HW
LayerCount: 2
Fore
SplineSet
345 923 m 0
 243 923 141 993 141 1133 c 0
 141 1273 243 1343 345 1343 c 0
 447 1343 549 1273 549 1133 c 0
 549 993 447 923 345 923 c 0
262.191 128.587 m 0
 194.214 156.559 141 221.526 141 323 c 0
 141 456 243 523 345 523 c 0
 489 523 555 412 555 283 c 0
 555 99 429 -120 208 -120 c 0
 200.562 -120 192.843 -119.718 184.991 -119.153 c 0
 172.169 -118.232 164 -109.454 164 -96.5994 c 2
 164 -68.9055 l 2
 164 -28.4746 176.587 -11.8882 217.003 -0.594382 c 0
 240.538 5.9822 261.712 16.8435 278.679 31.6479 c 0
 307.96 57.1966 298.656 113.582 262.191 128.587 c 0
EndSplineSet
EndChar

StartChar: seven
Encoding: 55 55 392
Width: 991
VWidth: 0
Flags: HW
LayerCount: 2
Fore
SplineSet
115.887 1595 m 2
 866.113 1595 l 2
 913.603 1595 942 1566.6 942 1519.11 c 2
 942 1426.89 l 2
 942 1384.15 936.531 1318.3 929.479 1276.15 c 2
 728.521 74.8473 l 2
 720.45 26.6037 689.027 0 640.113 0 c 2
 187.887 0 l 2
 142.146 0 116.878 29.7492 124.278 74.8874 c 2
 324.358 1295.19 l 2
 330.169 1330.64 310.325 1354 274.404 1354 c 2
 115.887 1354 l 2
 68.397 1354 40 1382.4 40 1429.89 c 2
 40 1519.11 l 2
 40 1566.6 68.397 1595 115.887 1595 c 2
EndSplineSet
EndChar

StartChar: six
Encoding: 54 54 393
Width: 1448
VWidth: 0
Flags: HW
LayerCount: 2
Fore
SplineSet
1382 523 m 0
 1382 62 1130 -36 718 -39 c 1
 312 -39 85 93 85 476 c 2
 85 1056 l 2
 85 1496 312 1632 717 1632 c 0
 966 1632 1329 1608 1329 1237 c 0
 1329 1222.67 1329.49 1209.32 1329.98 1196.46 c 0
 1330.88 1173.07 1316.38 1158 1292.97 1158 c 2
 875.887 1158 l 2
 828.397 1158 800 1186.4 800 1233.89 c 2
 800 1309.4 l 2
 800 1346.7 777.699 1369 740.404 1369 c 2
 696.596 1369 l 2
 659.301 1369 637 1346.7 637 1309.4 c 2
 637 1127.6 l 2
 637 1090.3 659.301 1068 696.596 1068 c 2
 761 1068 l 2
 1223 1068 1382 941 1382 523 c 0
636 738.404 m 2
 636 295.596 l 2
 636 258.301 658.301 236 695.596 236 c 2
 756.404 236 l 2
 793.699 236 816 258.301 816 295.596 c 2
 816 738.404 l 2
 816 775.699 793.699 798 756.404 798 c 2
 695.596 798 l 2
 658.301 798 636 775.699 636 738.404 c 2
EndSplineSet
EndChar

StartChar: slash
Encoding: 47 47 394
Width: 1056
VWidth: 0
Flags: HW
LayerCount: 2
Fore
SplineSet
495.113 0 m 2
 211.887 0 l 2
 166.815 0 142.641 30.0905 152.354 74.1042 c 2
 471.646 1520.89 l 2
 482.266 1569.01 514.607 1595 563.887 1595 c 2
 846.113 1595 l 2
 891.193 1595 915.379 1564.91 905.69 1520.89 c 2
 587.31 74.1042 l 2
 576.719 25.9792 544.389 0 495.113 0 c 2
EndSplineSet
EndChar

StartChar: sterling
Encoding: 163 163 396
Width: 1598
VWidth: 0
Flags: HW
LayerCount: 2
Fore
SplineSet
74 75.8873 m 2
 74 264.882 l 2
 74 264.941 74.0528 265.026 74.1056 265.053 c 2
 75.9062 265.953 l 2
 75.9531 265.977 76.052 266.007 76.104 266.013 c 0
 147.085 275.021 234 297.039 234 376 c 2
 234 659.404 l 2
 234 696.699 211.699 719 174.404 719 c 2
 151.887 719 l 2
 104.397 719 76 747.397 76 794.887 c 2
 76 865.113 l 2
 76 912.603 104.397 941 151.887 941 c 2
 174.404 941 l 2
 211.699 941 234 963.301 234 1000.6 c 2
 234 1065 l 2
 234 1260 248 1417 346 1511 c 0
 458 1618 664 1632 893 1632 c 0
 1069 1632 1210 1616 1322 1568 c 0
 1423 1524 1494 1456 1504 1331 c 0
 1506 1302 1507 1274 1507 1247 c 2
 1507 1145.89 l 2
 1507 1098.4 1478.6 1070 1431.11 1070 c 2
 1001.89 1070 l 2
 954.397 1070 926 1098.4 926 1145.89 c 2
 926 1311.5 l 2
 926 1344.35 906.355 1364 873.5 1364 c 2
 871.5 1364 l 2
 838.645 1364 819 1344.35 819 1311.5 c 2
 819 999.596 l 2
 819 962.301 841.301 940 878.596 940 c 2
 1170.11 940 l 2
 1217.6 940 1246 911.603 1246 864.113 c 2
 1246 793.887 l 2
 1246 746.397 1217.6 718 1170.11 718 c 2
 878.596 718 l 2
 841.301 718 819 695.699 819 658.404 c 2
 819 327.596 l 2
 819 290.301 841.301 268 878.596 268 c 2
 887.404 268 l 2
 924.699 268 947 290.301 947 327.596 c 2
 947 486.113 l 2
 947 533.603 975.397 562 1022.89 562 c 2
 1452.11 562 l 2
 1499.6 562 1528 533.603 1528 486.113 c 2
 1528 385 l 2
 1528 228 1498 126 1399 65 c 0
 1325 19 1225 0 1097 0 c 0
 971 0 877 29 819 91 c 0
 815.117 95.1602 811.311 99.1665 807.604 103.019 c 0
 800.585 110.312 765.392 111.977 738.141 88.5546 c 0
 696.544 52.8021 650.992 28.6172 579 16 c 0
 497 2 407 1 301 0 c 1
 149.887 0 l 2
 102.397 0 74 28.397 74 75.8873 c 2
EndSplineSet
EndChar

StartChar: t
Encoding: 116 116 397
Width: 968
VWidth: 0
Flags: HW
LayerCount: 2
Fore
SplineSet
764 1060 m 2
 764 75.8873 l 2
 764 28.397 735.603 0 688.113 0 c 2
 268.887 0 l 2
 221.397 0 193 28.397 193 75.8873 c 2
 193 1060 l 2
 193 1098 191 1100 153 1100 c 2
 123.5 1100 l 2
 81.2584 1100 56 1125.26 56 1167.5 c 2
 56 1232.5 l 2
 56 1274.74 81.2584 1300 123.5 1300 c 2
 153 1300 l 2
 191 1300 193 1302 193 1340 c 2
 193 1519.11 l 2
 193 1566.6 221.397 1595 268.887 1595 c 2
 688.113 1595 l 2
 735.603 1595 764 1566.6 764 1519.11 c 2
 764 1340 l 2
 764 1302 766 1300 804 1300 c 2
 847.113 1300 l 2
 894.603 1300 923 1271.6 923 1224.11 c 2
 923 1175.89 l 2
 923 1128.4 894.603 1100 847.113 1100 c 2
 804 1100 l 2
 766 1100 764 1098 764 1060 c 2
EndSplineSet
EndChar

StartChar: thorn
Encoding: 254 254 399
Width: 1430
VWidth: 0
Flags: HW
LayerCount: 2
Fore
SplineSet
674 1013 m 2
 674 287 l 2
 674 251.955 694.955 231 730 231 c 2
 732 231 l 2
 767.045 231 788 251.955 788 287 c 2
 788 1013 l 2
 788 1048.04 767.045 1069 732 1069 c 2
 730 1069 l 2
 694.955 1069 674 1048.04 674 1013 c 2
675 1526.11 m 2
 675 1227.11 l 1
 713.85 1307.28 820.114 1323 948 1323 c 0
 1200 1323 1350 1231 1360 995 c 0
 1361 964 1362 935 1362 908 c 2
 1362 390 l 2
 1362 229 1334 116 1239 48 c 0
 1170 -2 1073 -24 948 -24 c 0
 838 -24 746 -13 701 44 c 0
 696.395 50.1406 691.789 56.0194 687.318 61.7703 c 0
 681.912 68.7224 675 66.3514 675 57.5451 c 2
 675 -333.113 l 2
 675 -380.603 646.603 -409 599.113 -409 c 2
 179.887 -409 l 2
 132.397 -409 104 -380.603 104 -333.113 c 2
 104 1526.11 l 2
 104 1573.6 132.397 1602 179.887 1602 c 2
 599.113 1602 l 2
 646.603 1602 675 1573.6 675 1526.11 c 2
675 1225 m 1
 675 1224.5 l 2
 675 1201.35 698.646 1225 675.5 1225 c 2
 675 1225 l 1
EndSplineSet
EndChar

StartChar: three
Encoding: 51 51 400
Width: 1436
VWidth: 0
Flags: HW
LayerCount: 2
Fore
SplineSet
72 1108 m 0
 72 1503 293 1632 714 1632 c 0
 1147 1632 1364 1506 1364 1113 c 0
 1364 988.161 1307.08 900.32 1216.65 846.477 c 0
 1190.27 830.774 1190.47 810.206 1217.14 795.002 c 0
 1316.8 738.198 1366 641.114 1366 522 c 0
 1366 79 1111 -39 716 -39 c 0
 270 -39 71 142 71 517 c 0
 71 533.075 71.2689 549.419 71.9461 566.032 c 0
 73.1209 594.85 92.0264 613 120.868 613 c 2
 551.113 613 l 2
 598.603 613 627 584.603 627 537.113 c 2
 627 294.596 l 2
 627 257.301 649.301 235 686.596 235 c 2
 739.404 235 l 2
 776.699 235 799 257.301 799 294.596 c 2
 799 647.404 l 2
 799 684.699 776.699 707 739.404 707 c 2
 615.887 707 l 2
 568.397 707 540 735.397 540 782.887 c 2
 540 855.113 l 2
 540 902.603 568.397 931 615.887 931 c 2
 739.404 931 l 2
 776.699 931 799 953.301 799 990.596 c 2
 799 1301.4 l 2
 799 1338.7 776.699 1361 739.404 1361 c 2
 686.596 1361 l 2
 649.301 1361 627 1338.7 627 1301.4 c 2
 627 1099.89 l 2
 627 1052.4 598.603 1024 551.113 1024 c 2
 115.311 1024 l 2
 89.9287 1024 73.7592 1039.58 72.8158 1064.94 c 0
 72.2719 1079.57 72 1093.92 72 1108 c 0
EndSplineSet
EndChar

StartChar: threequarters
Encoding: 190 190 401
Width: 2894
VWidth: 0
Flags: HW
LayerCount: 2
Fore
SplineSet
1479.11 0 m 2
 1195.89 0 l 2
 1150.81 0 1126.64 30.0905 1136.35 74.1042 c 2
 1455.65 1520.89 l 2
 1466.27 1569.01 1498.61 1595 1547.89 1595 c 2
 1830.11 1595 l 2
 1875.19 1595 1899.38 1564.91 1889.69 1520.89 c 2
 1571.31 74.1042 l 2
 1560.72 25.9792 1528.39 0 1479.11 0 c 2
565 1499 m 0
 835 1499 995 1422 995 1175 c 0
 995 1091.76 962.327 1032.28 909.343 992.9 c 0
 881.921 972.52 881.892 954.919 909.283 934.419 c 0
 968.093 890.403 997 818.614 997 733 c 0
 997 487 862 394 566 394 c 0
 270 394 139 515 139 765 c 0
 139 775.469 139.274 785.938 139.822 796.55 c 0
 140.76 814.721 152.636 826 170.832 826 c 2
 432.113 826 l 2
 479.603 826 508 797.603 508 750.113 c 2
 508 631.5 l 2
 508 596.768 528.768 576 563.5 576 c 2
 565.5 576 l 2
 600.232 576 621 596.768 621 631.5 c 2
 621 829.404 l 2
 621 866.699 598.699 889 561.404 889 c 2
 523 889 l 2
 477.317 889 450 916.317 450 962 c 2
 450 964 l 2
 450 1009.68 477.317 1037 523 1037 c 2
 561.404 1037 l 2
 598.699 1037 621 1059.3 621 1096.6 c 2
 621 1265.5 l 2
 621 1300.23 600.232 1321 565.5 1321 c 2
 563.5 1321 l 2
 528.768 1321 508 1300.23 508 1265.5 c 2
 508 1173.89 l 2
 508 1126.4 479.603 1098 432.113 1098 c 2
 167.878 1098 l 2
 151.532 1098 140.76 1108.16 139.822 1124.48 c 0
 139.27 1134.09 139 1143.54 139 1153 c 0
 139 1416 285 1499 565 1499 c 0
2828 684.113 m 2
 2828 205.887 l 2
 2828 158.397 2799.6 130 2752.11 130 c 2
 2544.89 130 l 2
 2497.4 130 2469 158.397 2469 205.887 c 2
 2469 231.404 l 2
 2469 268.699 2446.7 291 2409.4 291 c 2
 2028.89 291 l 2
 1981.4 291 1953 319.397 1953 366.887 c 2
 1953 495.113 l 2
 1953 540.28 1961.36 600.56 1973.66 644.022 c 2
 2102.34 1098.95 l 2
 2115.86 1146.73 2149.24 1172 2198.89 1172 c 2
 2432.11 1172 l 2
 2476.45 1172 2499.46 1141.62 2487.46 1098.95 c 2
 2343.6 587.365 l 2
 2340.86 577.631 2339 564.112 2339 554 c 2
 2339 552 l 2
 2339 541.398 2345.4 535 2356 535 c 2
 2409.4 535 l 2
 2446.7 535 2469 557.301 2469 594.596 c 2
 2469 684.113 l 2
 2469 731.603 2497.4 760 2544.89 760 c 2
 2752.11 760 l 2
 2799.6 760 2828 731.603 2828 684.113 c 2
EndSplineSet
EndChar

StartChar: tilde
Encoding: 732 732 402
Width: 1523
VWidth: 0
Flags: HW
LayerCount: 2
Fore
SplineSet
1325.39648438 96 m 2
 1325.39648438 96 1107.23632812 96.240234375 1107.23632812 96.48046875 c 0
 1107.12695312 178.3203125 1079.07617188 260 997.236328125 260 c 0
 953.236328125 260 922.236328125 233 894.236328125 211 c 0
 800.236328125 136 702.236328125 70 527.236328125 70 c 0
 291.236328125 70 192.236328125 176 147.236328125 376 c 1
 134.017578125 422.265625 125.653320312 478.778320312 122.141601562 545.140625 c 0
 119.7265625 590.78125 148.389648438 621 194.092773438 621 c 2
 327.942382812 621 l 2
 385.889648438 621 410.439453125 601.823242188 424.467773438 545.598632812 c 0
 437.693359375 492.587890625 468.481445312 453 528.236328125 453 c 0
 572.236328125 453 606.236328125 481 636.236328125 503 c 0
 732.236328125 573 825.236328125 646 994.236328125 646 c 0
 1327.20703125 646 1391.55664062 473.19140625 1399.34667969 171.883789062 c 0
 1400.546875 125.296875 1371.99609375 96 1325.39648438 96 c 2
EndSplineSet
EndChar

StartChar: trademark
Encoding: 8482 8482 403
Width: 1884
VWidth: 0
Flags: HW
LayerCount: 2
Fore
SplineSet
1291 657 m 2
 1289 657 l 2
 1255.7 657 1233.46 674.106 1224.92 706.295 c 2
 1175.28 893.397 l 2
 1171.08 909.245 1160 907.8 1160 891.404 c 2
 1160 732.887 l 2
 1160 685.397 1131.6 657 1084.11 657 c 2
 864.887 657 l 2
 817.397 657 789 685.397 789 732.887 c 2
 789 1519.11 l 2
 789 1566.6 817.397 1595 864.887 1595 c 2
 1147.11 1595 l 2
 1195.94 1595 1227.16 1568.26 1234.67 1520.02 c 2
 1281.84 1216.89 l 2
 1284.49 1199.84 1296.76 1199.95 1299.11 1217.04 c 2
 1340.68 1519.82 l 2
 1347.3 1568.05 1378.2 1595 1426.89 1595 c 2
 1715.11 1595 l 2
 1762.6 1595 1791 1566.6 1791 1519.11 c 2
 1791 732.887 l 2
 1791 685.397 1762.6 657 1715.11 657 c 2
 1496.89 657 l 2
 1449.4 657 1421 685.397 1421 732.887 c 2
 1421 891.404 l 2
 1421 907.887 1409.81 909.364 1405.53 893.446 c 2
 1355.23 706.253 l 2
 1346.59 674.079 1324.32 657 1291 657 c 2
117 1595 m 2
 675 1595 l 2
 718.806 1595 745 1568.81 745 1525 c 2
 745 1523 l 2
 745 1479.19 718.806 1453 675 1453 c 2
 641.596 1453 l 2
 604.301 1453 582 1430.7 582 1393.4 c 2
 582 732.887 l 2
 582 685.397 553.603 657 506.113 657 c 2
 284.887 657 l 2
 237.397 657 209 685.397 209 732.887 c 2
 209 1393.4 l 2
 209 1430.7 186.699 1453 149.404 1453 c 2
 117 1453 l 2
 73.1939 1453 47 1479.19 47 1523 c 2
 47 1525 l 2
 47 1568.81 73.1939 1595 117 1595 c 2
EndSplineSet
EndChar

StartChar: two
Encoding: 50 50 404
Width: 1403
VWidth: 0
Flags: HW
LayerCount: 2
Fore
SplineSet
554.113 1064 m 2
 106.878 1064 l 2
 88.6316 1064 77.4643 1074.73 76.7383 1092.96 c 0
 76.3012 1103.94 76 1114.12 76 1124 c 0
 76 1536 347 1633 718 1633 c 0
 1139 1633 1349 1500 1349 1125 c 0
 1349 776 1076 650 858 545 c 0
 770.271 502.791 671.581 446.881 640.167 359.698 c 0
 630.07 331.677 651.624 301 681.409 301 c 2
 1201.11 301 l 2
 1248.6 301 1277 272.603 1277 225.113 c 2
 1277 76.8873 l 2
 1277 29.397 1248.6 1 1201.11 1 c 2
 153.887 1 l 2
 106.397 1 78 29.397 78 76.8873 c 2
 78 201 l 2
 78 599 289 758 573 890 c 1
 667 936 782 989 782 1086 c 2
 782 1298.4 l 2
 782 1335.7 759.699 1358 722.404 1358 c 2
 689.596 1358 l 2
 652.301 1358 630 1335.7 630 1298.4 c 2
 630 1139.89 l 2
 630 1092.4 601.603 1064 554.113 1064 c 2
EndSplineSet
EndChar

StartChar: u
Encoding: 117 117 405
Width: 1577
VWidth: 0
Flags: HW
LayerCount: 2
Fore
SplineSet
850 68 m 0
 781 9 641 -28 518 -28 c 0
 245 -27 147 104 127 355 c 0
 119 458 114 615 114 783 c 0
 114 929 118 1085 127 1223 c 0
 130 1271 155 1299 203 1299 c 2
 622 1299 l 2
 670 1299 698 1271 698 1223 c 2
 698 300 l 2
 698 262 720 240 758 240 c 2
 805 240 l 2
 843 240 865 262 865 300 c 2
 865 1223 l 2
 865 1271 893 1299 941 1299 c 2
 1360 1299 l 2
 1408 1299 1429 1271 1436 1223 c 1
 1446 1015 1451 818 1451 627 c 0
 1451 437 1446 253 1436 75 c 1
 1429 16 1408 -1 1360 -1 c 2
 984 -1 l 2
 946 -1 920 18 908 54 c 1
 908 52 l 1
 902 71 891 82 878 82 c 0
 870 82 860 77 850 68 c 0
EndSplineSet
EndChar

StartChar: underscore
Encoding: 95 95 413
Width: 1042
VWidth: 0
Flags: HW
LayerCount: 2
Fore
SplineSet
153.887 1 m 2
 891.113 1 l 2
 938.603 1 967 -27.397 967 -74.8873 c 2
 967 -359.113 l 2
 967 -406.603 938.603 -435 891.113 -435 c 2
 153.887 -435 l 2
 106.397 -435 78 -406.603 78 -359.113 c 2
 78 -74.8873 l 2
 78 -27.397 106.397 1 153.887 1 c 2
EndSplineSet
EndChar

StartChar: uni00AD
Encoding: 173 173 416
Width: 1005
VWidth: 0
Flags: HW
LayerCount: 2
Fore
SplineSet
162.887 897 m 2
 844.113 897 l 2
 891.603 897 920 868.603 920 821.113 c 2
 920 636.887 l 2
 920 589.397 891.603 561 844.113 561 c 2
 162.887 561 l 2
 115.397 561 87 589.397 87 636.887 c 2
 87 821.113 l 2
 87 868.603 115.397 897 162.887 897 c 2
EndSplineSet
EndChar

StartChar: uni00B2
Encoding: 178 178 417
Width: 1090
VWidth: 0
Flags: HW
LayerCount: 2
Fore
SplineSet
477.113 836 m 2
 209.254 836 l 2
 196.403 836 188.994 843.15 188.535 856.016 c 0
 188.274 863.344 188 870.672 188 878 c 0
 188 1148 367 1209 610 1209 c 0
 872 1209 1026 1142 1026 876 c 0
 1026 634 868 548 703 474 c 0
 653.952 452.279 599.995 426.63 572.088 388.453 c 0
 557.03 367.853 575.233 332 600.75 332 c 2
 910.113 332 l 2
 957.603 332 986 303.603 986 256.113 c 2
 986 209.887 l 2
 986 162.397 957.603 134 910.113 134 c 2
 264.887 134 l 2
 217.397 134 189 162.397 189 209.887 c 2
 189 313 l 2
 189 575 323 690 517 768 c 0
 579 793 653 823 653 877 c 2
 653 981 l 2
 653 1011.66 634.664 1030 604 1030 c 2
 602 1030 l 2
 571.336 1030 553 1011.66 553 981 c 2
 553 911.887 l 2
 553 864.397 524.603 836 477.113 836 c 2
EndSplineSet
EndChar

StartChar: uni00B3
Encoding: 179 179 418
Width: 1101
VWidth: 0
Flags: HW
LayerCount: 2
Fore
SplineSet
606 1205 m 0
 876 1205 1036 1128 1036 881 c 0
 1036 797.759 1003.33 738.28 950.343 698.9 c 0
 922.921 678.52 922.892 660.919 950.283 640.419 c 0
 1009.09 596.403 1038 524.614 1038 439 c 0
 1038 193 903 100 607 100 c 0
 311 100 180 221 180 471 c 0
 180 481.469 180.274 491.938 180.822 502.55 c 0
 181.76 520.721 193.636 532 211.832 532 c 2
 473.113 532 l 2
 520.603 532 549 503.603 549 456.113 c 2
 549 337.5 l 2
 549 302.768 569.768 282 604.5 282 c 2
 606.5 282 l 2
 641.232 282 662 302.768 662 337.5 c 2
 662 535.404 l 2
 662 572.699 639.699 595 602.404 595 c 2
 564 595 l 2
 518.317 595 491 622.317 491 668 c 2
 491 670 l 2
 491 715.683 518.317 743 564 743 c 2
 602.404 743 l 2
 639.699 743 662 765.301 662 802.596 c 2
 662 971.5 l 2
 662 1006.23 641.232 1027 606.5 1027 c 2
 604.5 1027 l 2
 569.768 1027 549 1006.23 549 971.5 c 2
 549 879.887 l 2
 549 832.397 520.603 804 473.113 804 c 2
 208.878 804 l 2
 192.532 804 181.76 814.164 180.822 830.484 c 0
 180.27 840.086 180 849.543 180 859 c 0
 180 1122 326 1205 606 1205 c 0
EndSplineSet
EndChar

StartChar: uni00B9
Encoding: 185 185 419
Width: 731
VWidth: 0
Flags: HW
LayerCount: 2
Fore
SplineSet
115 1042 m 2
 115 1043 l 2
 115 1089.2 136.059 1113.07 185.885 1119.33 c 0
 217.015 1123.24 246.268 1129.73 272.975 1138.55 c 0
 349.438 1163.8 387.96 1170 468.485 1170 c 2
 578.113 1170 l 2
 625.603 1170 654 1141.6 654 1094.11 c 2
 654 205.887 l 2
 654 158.397 625.603 130 578.113 130 c 2
 334.887 130 l 2
 287.397 130 259 158.397 259 205.887 c 2
 259 911.404 l 2
 259 948.699 236.699 971 199.404 971 c 2
 186 971 l 2
 141.568 971 115 997.568 115 1042 c 2
EndSplineSet
EndChar

StartChar: uni01C4
Encoding: 452 452 420
Width: 2693
VWidth: 0
Flags: HW
LayerCount: 2
Fore
SplineSet
859 1595 m 2
 1175 1595 1485 1559 1485 1204 c 2
 1485 393 l 2
 1485 26 1170 0 859 0 c 2
 178.887 0 l 2
 131.397 0 103 28.397 103 75.8873 c 2
 103 1519.11 l 2
 103 1566.6 131.397 1595 178.887 1595 c 2
 859 1595 l 2
708 1298.4 m 2
 708 294.596 l 2
 708 257.301 730.301 235 767.596 235 c 2
 821.404 235 l 2
 858.699 235 881 257.301 881 294.596 c 2
 881 1298.4 l 2
 881 1335.7 858.699 1358 821.404 1358 c 2
 767.596 1358 l 2
 730.301 1358 708 1335.7 708 1298.4 c 2
1698.89 1595 m 2
 2571.11 1595 l 2
 2615.63 1595 2638.91 1564.69 2627.44 1521.68 c 2
 2315.36 351.583 l 2
 2306.35 317.807 2324.64 294 2359.6 294 c 2
 2561.11 294 l 2
 2608.6 294 2637 265.603 2637 218.113 c 2
 2637 75.8873 l 2
 2637 28.397 2608.6 0 2561.11 0 c 2
 1686.89 0 l 2
 1642.72 0 1619.96 30.4263 1632.44 72.7966 c 2
 1978.17 1246.83 l 2
 1987.96 1280.11 1970.09 1304 1935.4 1304 c 2
 1698.89 1304 l 2
 1651.4 1304 1623 1332.4 1623 1379.89 c 2
 1623 1519.11 l 2
 1623 1566.6 1651.4 1595 1698.89 1595 c 2
2130 1733 m 0
 2075 1733 2018 1757 1987 1805 c 2
 1724 2214 l 2
 1712 2233 1706 2251 1706 2266 c 0
 1706 2303 1736 2328 1772 2328 c 0
 1789 2328 1808 2322 1826 2308 c 2
 2081.91 2109.52 l 2
 2112.63 2085.7 2145.37 2085.7 2176.09 2109.52 c 2
 2432 2308 l 2
 2451 2323 2471 2330 2489 2330 c 0
 2524 2330 2552 2304 2552 2267 c 0
 2552 2251 2546 2233 2534 2214 c 2
 2271 1805 l 2
 2238 1754 2183 1733 2130 1733 c 0
EndSplineSet
EndChar

StartChar: uni0237
Encoding: 567 567 460
Width: 868
VWidth: 0
Flags: HW
LayerCount: 2
Fore
SplineSet
784 1224.11 m 2
 784 94 l 2
 784 -199 620 -326 323 -326 c 0
 247.371 -326 185.703 -323.593 127.975 -316.774 c 0
 81.6765 -311.306 49.8222 -279.683 44.0159 -233.426 c 2
 32.4514 -141.296 l 2
 26.7003 -95.4787 52.71 -66 98.8873 -66 c 2
 152.404 -66 l 2
 189.699 -66 212 -43.6994 212 -6.40437 c 2
 212 1224.11 l 2
 212 1271.6 240.397 1300 287.887 1300 c 2
 708.113 1300 l 2
 755.603 1300 784 1271.6 784 1224.11 c 2
EndSplineSet
EndChar

StartChar: uni030F
Encoding: 783 783 461
Width: 1636
VWidth: 0
Flags: HW
LayerCount: 2
Fore
SplineSet
1568 1420 m 0
 1568 1391 1540 1371 1505 1371 c 0
 1495 1371 1484 1372 1473 1376 c 0
 1268 1438 981 1510 877 1570 c 0
 796 1617 761 1687 761 1752 c 0
 761 1846 832 1930 935 1930 c 0
 973 1930 1015 1919 1060 1893 c 0
 1161 1835 1371 1629 1534 1480 c 0
 1558 1459 1568 1438 1568 1420 c 0
877 1420 m 0
 877 1391 849 1371 814 1371 c 0
 804 1371 793 1372 782 1376 c 0
 577 1438 290 1510 186 1570 c 0
 105 1617 70 1687 70 1752 c 0
 70 1846 141 1930 244 1930 c 0
 282 1930 324 1919 369 1893 c 0
 470 1835 680 1629 843 1480 c 0
 867 1459 877 1438 877 1420 c 0
EndSplineSet
EndChar

StartChar: uni0311
Encoding: 785 785 462
Width: 1210
VWidth: 0
Flags: HW
LayerCount: 2
Fore
SplineSet
145.19140625 1473.88964844 m 0
 160.270507812 1715.76953125 258.145507812 1879 604.985351562 1879 c 0
 951.825195312 1879 1049.70019531 1715.76953125 1064.77929688 1473.88964844 c 0
 1067.60546875 1428.55957031 1038.89550781 1398 993.46875 1398 c 2
 854.693359375 1398 l 2
 800.84765625 1398 774.375976562 1420.5703125 765.854492188 1473.74023438 c 0
 755.68359375 1537.20019531 721.048828125 1576 604.985351562 1576 c 0
 488.922851562 1576 454.288085938 1537.20019531 444.116210938 1473.74023438 c 0
 435.595703125 1420.5703125 409.124023438 1398 355.27734375 1398 c 2
 216.502929688 1398 l 2
 171.075195312 1398 142.365234375 1428.55957031 145.19140625 1473.88964844 c 0
EndSplineSet
EndChar

StartChar: uni0326
Encoding: 806 806 463
Width: 711
VWidth: 0
Flags: HW
LayerCount: 2
Fore
SplineSet
262.191 14.5872 m 0
 194.214 42.5593 141 107.526 141 209 c 0
 141 342 243 409 345 409 c 0
 489 409 555 298 555 169 c 0
 555 -15 429 -234 208 -234 c 0
 200.562 -234 192.843 -233.718 184.991 -233.153 c 0
 172.169 -232.232 164 -223.454 164 -210.599 c 2
 164 -182.905 l 2
 164 -142.475 176.587 -125.888 217.003 -114.594 c 0
 240.538 -108.018 261.712 -97.1565 278.679 -82.3521 c 0
 307.96 -56.8034 298.656 -0.418232 262.191 14.5872 c 0
EndSplineSet
EndChar

StartChar: uni0326.001
Encoding: 65539 -1 464
Width: 706
VWidth: 0
Flags: HW
LayerCount: 2
Fore
SplineSet
278.191 -489.413 m 0
 210.214 -461.441 157 -396.474 157 -295 c 0
 157 -162 259 -95 361 -95 c 0
 505 -95 571 -206 571 -335 c 0
 571 -519 445 -738 224 -738 c 0
 216.562 -738 208.843 -737.718 200.991 -737.153 c 0
 188.169 -736.232 180 -727.454 180 -714.599 c 2
 180 -686.906 l 2
 180 -646.475 192.587 -629.888 233.003 -618.594 c 0
 256.538 -612.018 277.712 -601.156 294.679 -586.352 c 0
 323.96 -560.803 314.656 -504.418 278.191 -489.413 c 0
EndSplineSet
EndChar

StartChar: uni04B0
Encoding: 1200 1200 469
Width: 1509
VWidth: 0
Flags: HW
LayerCount: 2
Fore
SplineSet
334.776367188 555 m 2
 1184 555 l 2
 1231.48978 555 1259.88964844 526.603105244 1259.88964844 479.11328125 c 2
 1259.88964844 428.243164062 l 2
 1259.88964844 380.752929688 1231.48978 352.356445312 1184 352.356445312 c 2
 334.776367188 352.356445312 l 2
 287.286543193 352.356445312 258.889648438 380.752929688 258.889648438 428.243164062 c 2
 258.889648438 479.11328125 l 2
 258.889648438 526.603105244 287.286543193 555 334.776367188 555 c 2
982.352 0 m 2
 530.352 0 l 2
 482.352 0 458.352 30 454.352 76 c 0
 445.352 169 439.352 338 436.352 532 c 1
 36.3518 1524 l 2
 20.3518 1564 41.3515625 1595 84.3518 1595 c 2
 472.3515625 1595 l 2
 522.3515625 1595 554.166554688 1569.66210938 568.3515625 1522 c 2
 738.3515625 1018 l 1
 739.3515625 1010 744.3515625 1005 753.3515625 1005 c 2
 755.3515625 1005 l 2
 763.3515625 1005 768.3515625 1010 769.3515625 1018 c 1
 944.3515625 1522 l 6
 958.9692962 1569.53222656 990.351584961 1595 1040.34960938 1595 c 6
 1424.35 1595 l 2
 1467.34960938 1595 1489.35 1564 1473.35 1524 c 2
 1076.35 528 l 1
 1073.35 355 1067.35 194 1058.35 76 c 0
 1055.35 29 1030.35 0 982.352 0 c 2
EndSplineSet
EndChar

StartChar: uni04B1
Encoding: 1201 1201 470
Width: 1348
VWidth: 0
Flags: HW
LayerCount: 2
Fore
SplineSet
248.88671875 0 m 6
 1098.11035156 0 l 6
 1145.60013156 0 1174 -28.3968947559 1174 -75.88671875 c 6
 1174 -126.756835938 l 6
 1174 -174.247070312 1145.60013156 -202.643554688 1098.11035156 -202.643554688 c 6
 248.88671875 -202.643554688 l 6
 201.396894756 -202.643554688 173 -174.247070312 173 -126.756835938 c 6
 173 -75.88671875 l 6
 173 -28.3968947559 201.396894756 0 248.88671875 0 c 6
554 1225 m 2
 625 906 l 1
 668 663 l 2
 669 657 673 654 677 654 c 0
 681 654 685 657 685 663 c 2
 728 906 l 1
 798 1225 l 2
 808.396484375 1272.37890625 823 1300 872 1300 c 2
 1271 1300 l 2
 1310 1300 1333 1278 1333 1244 c 0
 1333 1238 1332.75585938 1232.07226562 1331 1226 c 2
 969.133789062 -25.2802734375 l 1
 967.098761593 -127.834275099 964.481740865 -230.669856778 961.565429688 -333.67578125 c 0
 960.565429688 -381.67578125 933.565429688 -409.67578125 885.565429688 -409.67578125 c 2
 466.565429688 -409.67578125 l 2
 418.565429688 -409.67578125 391.565429688 -381.67578125 390.565429688 -333.67578125 c 0
 386.618510249 -229.432544032 383.338436755 -124.703536524 381.050149243 -20.0690456324 c 1
 20 1226 l 2
 18.2412109375 1232.07128906 18 1238 18 1244 c 0
 18 1278 41 1300 80 1300 c 2
 479 1300 l 2
 528 1300 543.4609375 1272.34960938 554 1225 c 2
EndSplineSet
EndChar

StartChar: uni2074
Encoding: 8308 8308 471
Width: 1298
VWidth: 0
Flags: HW
LayerCount: 2
Fore
SplineSet
1096 684.113 m 2
 1096 205.887 l 2
 1096 158.397 1067.6 130 1020.11 130 c 2
 812.887 130 l 2
 765.397 130 737 158.397 737 205.887 c 2
 737 231.404 l 2
 737 268.699 714.699 291 677.404 291 c 2
 296.887 291 l 2
 249.397 291 221 319.397 221 366.887 c 2
 221 495.113 l 2
 221 540.28 229.361 600.56 241.655 644.022 c 2
 370.345 1098.95 l 2
 383.859 1146.73 417.235 1172 466.887 1172 c 2
 700.113 1172 l 2
 744.447 1172 767.459 1141.62 755.457 1098.95 c 2
 611.602 587.365 l 2
 608.865 577.631 607 564.112 607 554 c 2
 607 552 l 2
 607 541.398 613.398 535 624 535 c 2
 677.404 535 l 2
 714.699 535 737 557.301 737 594.596 c 2
 737 684.113 l 2
 737 731.603 765.397 760 812.887 760 c 2
 1020.11 760 l 2
 1067.6 760 1096 731.603 1096 684.113 c 2
EndSplineSet
EndChar

StartChar: v
Encoding: 118 118 480
Width: 1348
VWidth: 0
Flags: HW
LayerCount: 2
Fore
SplineSet
554 1225 m 2
 625 716 l 1
 668 353 l 2
 669 347 673 344 677 344 c 0
 681 344 685 347 685 353 c 2
 728 716 l 1
 798 1225 l 2
 805 1273 823 1300 872 1300 c 2
 1271 1300 l 2
 1310 1300 1333 1278 1333 1244 c 0
 1333 1238 1333 1232 1331 1226 c 2
 1089 74 l 2
 1079 26 1046 0 997 0 c 2
 355 0 l 2
 306 0 273 26 263 74 c 2
 20 1226 l 2
 18 1232 18 1238 18 1244 c 0
 18 1278 41 1300 80 1300 c 2
 479 1300 l 2
 528 1300 547 1273 554 1225 c 2
EndSplineSet
EndChar

StartChar: w
Encoding: 119 119 481
Width: 2066
VWidth: 0
Flags: HW
LayerCount: 2
Fore
SplineSet
1022 787 m 2
 992 475 l 1
 949 75 l 2
 943 27 913 0 864 0 c 2
 326 0 l 2
 277 0 246 27 237 75 c 2
 45 1225 l 2
 43 1232 43 1239 43 1246 c 0
 43 1279 59 1300 98 1300 c 2
 506 1300 l 2
 555 1300 565 1273 570 1225 c 2
 617 761 l 1
 656 446 l 2
 657 440 661 436 665 436 c 0
 669 436 673 440 673 446 c 2
 711 761 l 1
 756 1224 l 2
 760 1273 771 1300 819 1300 c 2
 1252 1300 l 2
 1300 1300 1311 1273 1315 1224 c 2
 1359 761 l 1
 1394 446 l 2
 1395 440 1398 436 1402 436 c 0
 1406 436 1410 440 1410 446 c 2
 1449 761 l 1
 1495 1224 l 2
 1499 1273 1510 1300 1558 1300 c 2
 1965 1300 l 2
 2004 1300 2020 1279 2020 1246 c 0
 2020 1239 2020 1232 2018 1225 c 2
 1826 75 l 2
 1817 27 1786 0 1737 0 c 2
 1195 0 l 2
 1146 0 1116 27 1110 75 c 2
 1065 475 l 1
 1034 787 l 2
 1034 792 1031 794 1028 794 c 0
 1025 794 1023 792 1022 787 c 2
EndSplineSet
EndChar

StartChar: x
Encoding: 120 120 486
Width: 1395
VWidth: 0
Flags: HW
LayerCount: 2
Fore
SplineSet
536.113 0 m 2
 120.887 0 l 2
 80.3368 0 62.5472 30.6723 82.6833 65.87 c 2
 388.407 600.271 l 2
 408.167 634.811 408.121 669.163 388.269 703.65 c 2
 82.8581 1234.23 l 2
 62.6505 1269.34 80.3808 1300 120.887 1300 c 2
 541.113 1300 l 2
 591.067 1300 625.406 1275.47 641.597 1228.21 c 2
 683.683 1105.38 l 2
 692.032 1081.01 714.082 1080.97 722.517 1105.31 c 2
 765.147 1228.3 l 2
 781.513 1275.51 815.915 1300 865.887 1300 c 2
 1285.11 1300 l 2
 1325.62 1300 1343.35 1269.34 1323.14 1234.23 c 2
 1017.73 703.65 l 2
 997.879 669.163 997.833 634.811 1017.59 600.271 c 2
 1323.32 65.87 l 2
 1343.45 30.6723 1325.66 0 1285.11 0 c 2
 869.887 0 l 2
 819.887 0 785.389 24.4132 768.758 71.5661 c 2
 722.823 201.798 l 2
 714.166 226.343 691.834 226.343 683.177 201.798 c 2
 637.242 71.5661 l 2
 620.611 24.4132 586.113 0 536.113 0 c 2
EndSplineSet
EndChar

StartChar: y
Encoding: 121 121 487
Width: 1342
VWidth: 0
Flags: HW
LayerCount: 2
Fore
SplineSet
562 1225 m 1
 619 878 l 1
 678 451 l 1
 679 430 688 430 690 451 c 2
 728 878 l 1
 774 1224 l 1
 778 1273 809 1300 857 1300 c 2
 1257 1300 l 2
 1303 1300 1328 1270 1320 1225 c 2
 1113 14 l 2
 1060 -299 872 -371 618 -371 c 0
 521 -371 371 -354 256 -332 c 0
 210 -324 196 -290 203 -243 c 2
 224 -90 l 2
 231 -42 252 -20 299 -30 c 1
 368 -43 451 -53 522 -53 c 0
 565 -53 608 -49 648 -41 c 1
 682 -33 705 -4 705 30 c 2
 705 74 l 1
 389 99 l 1
 291 109 249 116 221 267 c 1
 34 1225 l 2
 26 1270 50 1300 96 1300 c 2
 477 1300 l 2
 526 1300 556 1273 562 1225 c 1
EndSplineSet
EndChar

StartChar: yen
Encoding: 165 165 491
Width: 1571
VWidth: 0
Flags: HW
LayerCount: 2
Fore
SplineSet
611.665 1521.7 m 2
 726.335 1094.3 l 2
 737.498 1052.69 748.698 988.303 752.241 945.37 c 2
 761.89 828.454 l 2
 762.589 819.983 768 815 776.5 815 c 2
 778.5 815 l 2
 787 815 792.411 819.983 793.11 828.454 c 2
 802.759 945.37 l 2
 806.318 988.495 817.707 1052.43 829.258 1094.13 c 2
 947.742 1521.87 l 2
 960.988 1569.69 994.268 1595 1043.89 1595 c 2
 1448.11 1595 l 2
 1491.13 1595 1512.17 1564.33 1496.69 1524.2 c 2
 1189.61 728 l 1
 1354.5 728 l 2
 1398.62 728 1425 701.619 1425 657.5 c 2
 1425 655.5 l 2
 1425 611.381 1398.62 585 1354.5 585 c 2
 1134.46 585 l 1
 1103.45 504.603 l 2
 1096.18 485.757 1090.42 463.936 1086.71 442 c 1
 1354.5 442 l 2
 1398.62 442 1425 415.619 1425 371.5 c 2
 1425 369.5 l 2
 1425 325.381 1398.62 299 1354.5 299 c 2
 1082 299 l 1
 1082 75.8873 l 2
 1082 28.397 1053.6 0 1006.11 0 c 2
 552.887 0 l 2
 505.397 0 477 28.397 477 75.8873 c 2
 477 299 l 1
 197.5 299 l 2
 153.381 299 127 325.381 127 369.5 c 2
 127 371.5 l 2
 127 415.619 153.381 442 197.5 442 c 2
 473.801 442 l 1
 470.213 467.198 463.765 492.786 455.263 514.49 c 2
 427.642 585 l 1
 197.5 585 l 2
 153.381 585 127 611.381 127 655.5 c 2
 127 657.5 l 2
 127 701.619 153.381 728 197.5 728 c 2
 371.626 728 l 1
 59.6791 1524.34 l 2
 44.018 1564.32 64.9495 1595 107.887 1595 c 2
 516.113 1595 l 2
 565.683 1595 598.819 1569.58 611.665 1521.7 c 2
EndSplineSet
EndChar

StartChar: z
Encoding: 122 122 493
Width: 1169
VWidth: 0
Flags: HW
LayerCount: 2
Fore
SplineSet
130 1126.89 m 2
 130 1224.11 l 2
 130 1271.6 158.397 1300 205.887 1300 c 2
 1006.11 1300 l 2
 1053.6 1300 1082 1271.6 1082 1224.11 c 2
 1082 1154.89 l 2
 1082 1107.54 1070.78 1052.76 1052.18 1009.22 c 2
 749.42 300.801 l 2
 736.326 270.161 752.274 246 785.596 246 c 2
 1013.11 246 l 2
 1060.6 246 1089 217.603 1089 170.113 c 2
 1089 75.8873 l 2
 1089 28.397 1060.6 0 1013.11 0 c 2
 181.887 0 l 2
 134.397 0 106 28.397 106 75.8873 c 2
 106 157.113 l 2
 106 204.614 117.434 258.982 136.568 302.458 c 2
 441.994 996.453 l 2
 455.365 1026.84 439.599 1051 406.404 1051 c 2
 205.887 1051 l 2
 158.397 1051 130 1079.4 130 1126.89 c 2
EndSplineSet
EndChar

StartChar: zero
Encoding: 48 48 497
Width: 1469
VWidth: 0
Flags: HW
LayerCount: 2
Fore
SplineSet
1383 352 m 2
 1383 -25 1051 -39 739 -39 c 0
 422 -39 89 -14 89 352 c 2
 89 1242 l 2
 89 1610 429 1633 738 1633 c 0
 1056 1633 1383 1603 1383 1242 c 2
 1383 352 l 2
653 1299.4 m 2
 653 292.596 l 2
 653 255.301 675.301 233 712.596 233 c 2
 759.404 233 l 2
 796.699 233 819 255.301 819 292.596 c 2
 819 1299.4 l 2
 819 1336.7 796.699 1359 759.404 1359 c 2
 712.596 1359 l 2
 675.301 1359 653 1336.7 653 1299.4 c 2
EndSplineSet
EndChar
